<svg width="600" height="600" xmlns="http://www.w3.org/2000/svg">
 <g>
  <title>Layer 1</title>
  <g id="svg_1">
   <path fill="#fff" d="m117.8,77l218.6,0c26.8,0 49.7,3.3 68.8,9.8c19.1,6.5 34.9,16.1 47.5,28.7c8.5,8.5 15.2,18.5 20.1,29.9c4.9,11.4 7.3,24.4 7.3,39l0,1.2c0,24.8 -6.2,44.8 -18.5,60.1c-12.3,15.2 -28,26.9 -47,35.1c26.1,8.5 46.8,20.8 62.1,36.9c15.3,16.1 23,38.5 23,67.4l0,1.2c0,37 -14.1,65.9 -42.4,86.6c-28.3,20.7 -68.1,31.1 -119.3,31.1l-220.2,0l0,-427zm189.7,170.2c18.3,0 32.2,-3 41.8,-9.1c9.5,-6.1 14.3,-15.5 14.3,-28.1l0,-1.2c0,-11.8 -4.5,-20.8 -13.4,-27.1c-9,-6.3 -22.4,-9.5 -40.3,-9.5l-76.9,0l0,75l74.5,0zm17.1,161.6c18.3,0 32.3,-3.4 42.1,-10.1s14.6,-16.4 14.6,-29l0,-1.2c0,-11.8 -4.7,-21.1 -14,-28.1c-9.4,-6.9 -24,-10.4 -43.9,-10.4l-90.3,0l0,78.7l91.5,0l0,0.1z" id="svg_2"/>
  </g>
 </g>

</svg>