<svg width="600" height="600" xmlns="http://www.w3.org/2000/svg">
 <g>
  <title>Layer 1</title>
  <g id="svg_1">
   <path fill="#fff" d="m102.3,77l164.7,0c38.2,0 72.3,5.2 102.2,15.6c29.9,10.4 55.1,24.9 75.6,43.6c20.5,18.7 36.2,41 47,66.8c10.8,25.8 16.2,54.2 16.2,85.1l0,1.2c0,30.9 -5.5,59.5 -16.5,85.7c-11,26.2 -26.8,48.9 -47.6,68c-20.7,19.1 -46.3,34.1 -76.6,44.8c-30.3,10.8 -64.5,16.2 -102.8,16.2l-162.2,0l0,-427zm166.7,322.1c35.5,0 64.1,-9.4 85.7,-28.1c21.6,-18.7 32.5,-45.3 32.5,-79.9l0,-1.2c0,-34.2 -10.8,-60.7 -32.5,-79.6c-21.6,-18.9 -50.2,-28.4 -85.7,-28.4l-48.4,0l0,217.2l48.4,0z" id="svg_2"/>
  </g>
 </g>

</svg>