<svg width="64" height="64" xmlns="http://www.w3.org/2000/svg">

 <g>
  <title>background</title>
  <rect fill="none" id="canvas_background" height="602" width="802" y="-1" x="-1"/>
 </g>
 <g>
  <title>Layer 1</title>
  <g id="svg_1">
   <path fill="#ffffff" id="svg_2" d="m63,30.1c-10.1,-11.9 -20.8,-18.1 -31,-18.1c-10.2,0 -20.9,6.2 -31,18.1c-1,1.1 -1,2.8 0,3.9c10.1,11.8 20.8,18 31,18c10.2,0 20.9,-6.2 31,-18.1c0.9,-1.1 0.9,-2.7 0,-3.8zm-31,17.9c-8.7,0 -18.4,-5.7 -27.4,-16c9,-10.3 18.7,-16 27.4,-16c8.7,0 18.4,5.7 27.4,16c-9,10.3 -18.7,16 -27.4,16z"/>
   <path fill="#ffffff" id="svg_3" d="m32,20c-6.6,0 -12,5.4 -12,12s5.4,12 12,12s12,-5.4 12,-12s-5.4,-12 -12,-12zm0,20c-4.4,0 -8,-3.6 -8,-8s3.6,-8 8,-8s8,3.6 8,8s-3.6,8 -8,8z"/>
  </g>
 </g>
</svg>