<svg id="Layer_1" data-name="Layer 1" xmlns="http://www.w3.org/2000/svg" viewBox="0 0 86.4 86.4"><defs><style>.cls-1{fill:#fff;}</style></defs><path class="cls-1" d="M88.2,45A43.2,43.2,0,1,1,45,1.8,43.2,43.2,0,0,1,88.2,45Zm-5.57,0A37.63,37.63,0,1,0,17.37,70.45a16.68,16.68,0,0,1,16.48-14.3c3.59,0,5.3,2,11.15,2s7.58-2,11.15-2a16.68,16.68,0,0,1,16.48,14.3A37.46,37.46,0,0,0,82.63,45ZM67.3,72.87A11.16,11.16,0,0,0,56.15,61.72c-1.95,0-4.77,2-11.15,2s-9.21-2-11.15-2A11.16,11.16,0,0,0,22.7,72.87v2.37a37.34,37.34,0,0,0,44.6,0Zm-7-36.23A15.33,15.33,0,1,1,45,21.31,15.33,15.33,0,0,1,60.33,36.64Zm-5.58,0A9.75,9.75,0,1,0,45,46.39,9.76,9.76,0,0,0,54.75,36.64Z" transform="translate(-1.8 -1.8)"/></svg>