<?xml version="1.0" encoding="utf-8"?>
<!-- Generator: Adobe Illustrator 24.3.0, SVG Export Plug-In . SVG Version: 6.00 Build 0)  -->
<svg version="1.1" id="Layer_1" xmlns="http://www.w3.org/2000/svg" xmlns:xlink="http://www.w3.org/1999/xlink" x="0px" y="0px"
	 viewBox="0 0 90 90" style="enable-background:new 0 0 90 90;" xml:space="preserve">
<style type="text/css">
	.st0{clip-path:url(#SVGID_2_);}
	.st1{clip-path:url(#SVGID_4_);fill:#FFFFFF;}
</style>
<g>
	<defs>
		<path id="SVGID_1_" d="M56,81.3c-4.6,0-8.4-3.7-8.4-8.3V36.8c1.8,1.5,3.9,2.5,6.2,3c0.8,0.2,1.6-0.5,1.6-1.3v-2.6
			c0-0.6-0.4-1.1-0.9-1.2c-3.9-1-6.9-4.5-6.9-8.8V15.9c0-3.9,3.2-7.1,7.2-7.1c5,0,6.5,3.6,7.4,7.4l2.1,0h0.1c4.2,0,7.4,3.2,7.4,7.1
			c0,1-0.3,1.9-0.7,3.7c4.4,1.8,8,4.2,8,9.7c0,1.6,0,2.2-2.1,6.3c3.2,1.8,6.9,4,6.9,9.4c0,5.7-3.8,7.9-7.9,9.6
			c0.5,2.2,0.6,2.7,0.6,3.7c0,4.6-3.8,8.3-8.4,8.3c-0.6,0-1-0.1-3.6-0.5C63.1,77.7,61.1,81.3,56,81.3z M34,81.3
			c-5.2,0-7.2-3.5-8.6-7.8c-2,0.3-2.7,0.5-3.2,0.5L22,74c0,0-0.1,0-0.1,0c-4.6,0-8.4-3.7-8.4-8.3c0-1,0.1-1.5,0.6-3.7
			c-4.1-1.7-7.9-3.9-7.9-9.6c0-5.5,3.7-7.6,6.9-9.4c-2-4.2-2.1-4.7-2.1-6.3c0-5.5,3.5-7.8,8-9.7c-0.4-1.8-0.7-2.7-0.7-3.7
			c0-3.9,3.2-7.1,7.4-7.1h0.1l2.1,0c1-3.7,2.4-7.4,7.4-7.4c3.9,0,7.2,3.2,7.2,7.1v10.1c0,4.2-2.9,7.8-6.9,8.8
			c-0.6,0.1-0.9,0.7-0.9,1.2v2.6c0,0.8,0.8,1.4,1.6,1.3c2.3-0.5,4.5-1.5,6.2-3v36.1C42.4,77.5,38.6,81.3,34,81.3z M56,86.5
			c5.1,0,9.7-2.9,12-7.3c7.8,0.2,14.1-6.4,13.8-14.2c4.5-2.6,7.3-7.4,7.3-12.7c0-4.5-2.1-8.7-5.6-11.5c2.8-8.8-3.3-15.1-6.6-17.1
			c0.4-6.1-4.2-12-10.8-12.9c-1.9-4.4-6.3-7.4-11.3-7.4c-4,0-7.5,1.9-9.8,4.8c-2.3-2.9-5.8-4.8-9.8-4.8c-5,0-9.4,3-11.3,7.4
			c-6.6,0.8-11.2,6.8-10.8,12.9c-3.4,2-9.5,8.2-6.6,17.1C3,43.6,1,47.8,1,52.3C1,57.6,3.8,62.4,8.3,65C7.9,72.8,14.2,79.4,22,79.2
			c2.3,4.4,6.9,7.3,12,7.3c4.5,0,8.5-2.2,11-5.6C47.5,84.2,51.5,86.5,56,86.5z"/>
	</defs>
	<clipPath id="SVGID_2_">
		<use xlink:href="#SVGID_1_"  style="overflow:visible;"/>
	</clipPath>
	<g class="st0">
		<defs>
			<rect id="SVGID_3_" x="-54.3" y="-991.4" width="4719" height="2763.7"/>
		</defs>
		<clipPath id="SVGID_4_">
			<use xlink:href="#SVGID_3_"  style="overflow:visible;"/>
		</clipPath>
		<rect x="-16.3" y="-13.7" class="st1" width="122.6" height="117.5"/>
	</g>
</g>
</svg>
