<?xml version="1.0" encoding="UTF-8" standalone="no"?>
<svg
   xmlns:dc="http://purl.org/dc/elements/1.1/"
   xmlns:cc="http://creativecommons.org/ns#"
   xmlns:rdf="http://www.w3.org/1999/02/22-rdf-syntax-ns#"
   xmlns:svg="http://www.w3.org/2000/svg"
   xmlns="http://www.w3.org/2000/svg"
   id="svg55"
   version="1.1"
   viewBox="0 0 26.458332 26.458334"
   height="100"
   width="100">
  <defs
     id="defs49" />
  <metadata
     id="metadata52">
    <rdf:RDF>
      <cc:Work
         rdf:about="">
        <dc:format>image/svg+xml</dc:format>
        <dc:type
           rdf:resource="http://purl.org/dc/dcmitype/StillImage" />
        <dc:title></dc:title>
      </cc:Work>
    </rdf:RDF>
  </metadata>
  <g
     transform="translate(0,-270.54165)"
     id="layer1">
    <path
       class="st0"
       d="m 5.3657498,291.63424 c -2.1669375,-2.16694 -3.2490833,-4.78632 -3.2490833,-7.86342 0,-3.0771 1.0821458,-5.69913 3.2490833,-7.86342 2.1669375,-2.16693 4.7863122,-3.24908 7.8634172,-3.24908 3.077104,0 5.699125,1.08215 7.863417,3.24908 2.166937,2.16694 3.249083,4.78896 3.249083,7.86342 0,3.0771 -1.082146,5.69912 -3.249083,7.86342 -2.166938,2.16693 -4.788959,3.24908 -7.863417,3.24908 -3.077105,0 -5.6991255,-1.08215 -7.8634172,-3.24908 z m 7.8634172,-17.54452 c -2.688167,0 -4.9741671,0.94985 -6.8553547,2.84427 -1.8811875,1.89706 -2.8231041,4.17512 -2.8231041,6.83418 0,2.68817 0.9472083,4.97417 2.8442708,6.85536 1.8970626,1.88119 4.175125,2.8231 6.834188,2.8231 2.688167,0 4.974167,-0.94985 6.855354,-2.84427 1.881188,-1.89442 2.823104,-4.17512 2.823104,-6.83419 0,-2.68816 -0.949854,-4.97416 -2.844271,-6.85535 -1.897062,-1.88119 -4.175125,-2.8231 -6.834187,-2.8231 z m 3.899958,10.03829 -5.154083,5.19906 c -0.269875,0.24077 -0.537105,0.24077 -0.80698,0 l -0.314854,-0.35719 c -0.240771,-0.23812 -0.240771,-0.49212 0,-0.762 l 4.482042,-4.43706 -4.437063,-4.48204 c -0.269875,-0.23813 -0.269875,-0.47625 0,-0.71702 l 0.314855,-0.35719 c 0.238125,-0.23812 0.492125,-0.23812 0.762,0 l 5.154083,5.15408 c 0.238125,0.26723 0.238125,0.52123 0,0.75936 z"
       id="path24"
       style="fill:#ff4500;stroke-width:1.56458332" />
  </g>
</svg>
