<?xml version="1.0" encoding="UTF-8" standalone="no"?>
<svg
   xmlns:dc="http://purl.org/dc/elements/1.1/"
   xmlns:cc="http://creativecommons.org/ns#"
   xmlns:rdf="http://www.w3.org/1999/02/22-rdf-syntax-ns#"
   xmlns:svg="http://www.w3.org/2000/svg"
   xmlns="http://www.w3.org/2000/svg"
   id="svg55"
   version="1.1"
   viewBox="0 0 26.458332 26.458334"
   height="100"
   width="100">
  <defs
     id="defs49" />
  <metadata
     id="metadata52">
    <rdf:RDF>
      <cc:Work
         rdf:about="">
        <dc:format>image/svg+xml</dc:format>
        <dc:type
           rdf:resource="http://purl.org/dc/dcmitype/StillImage" />
        <dc:title></dc:title>
      </cc:Work>
    </rdf:RDF>
  </metadata>
  <g
     transform="translate(0,-270.54165)"
     id="layer1">
    <path
       class="st0"
       d="m 22.550437,273.0155 c 0.388938,0 0.724959,0.14287 1.008063,0.42598 0.283104,0.2831 0.425979,0.61912 0.425979,1.00806 v 18.64254 c 0,0.38894 -0.142875,0.72496 -0.425979,1.00807 -0.283104,0.2831 -0.619125,0.42598 -1.008063,0.42598 H 3.9078962 c -0.388938,0 -0.724958,-0.14288 -1.008063,-0.42598 -0.28575,-0.28311 -0.425979,-0.61913 -0.425979,-1.00807 v -18.64254 c 0,-0.38894 0.140229,-0.72496 0.425979,-1.00806 0.283105,-0.28311 0.619125,-0.42598 1.008063,-0.42598 z m -10.038291,10.03829 v -8.60425 H 3.9078962 v 8.60425 z m 0,10.03829 v -8.60425 H 3.9078962 v 8.60425 z M 5.7017712,279.46869 c -0.240771,0 -0.357188,-0.11907 -0.357188,-0.35719 v -0.71702 c 0,-0.23813 0.119063,-0.35719 0.357188,-0.35719 h 5.0191458 c 0.238125,0 0.357187,0.11906 0.357187,0.35719 v 0.71702 c 0,0.24077 -0.119062,0.35719 -0.357187,0.35719 z m 0.224896,11.1125 c -0.06085,-0.09 -0.08996,-0.17992 -0.08996,-0.26988 0,-0.09 0.0291,-0.17991 0.08996,-0.26987 l 1.254125,-1.25413 -1.254125,-1.25412 c -0.179917,-0.17992 -0.179917,-0.35719 0,-0.53711 l 0.492125,-0.49212 c 0.179916,-0.17992 0.359833,-0.17992 0.537104,0 l 1.254125,1.25412 1.254125,-1.25412 c 0.179917,-0.17992 0.359833,-0.17992 0.5371038,0 l 0.492125,0.49212 c 0.179917,0.17992 0.179917,0.35719 0,0.53711 l -1.2541248,1.25412 1.2541248,1.25413 c 0.179917,0.17991 0.179917,0.35719 0,0.5371 l -0.492125,0.49213 c -0.1799168,0.17991 -0.3598328,0.17991 -0.5371038,0 l -1.254125,-1.25413 -1.254125,1.25413 c -0.179917,0.17991 -0.357188,0.17991 -0.537104,0 z m 16.6237698,-7.5274 v -8.60425 h -8.60425 v 8.60425 z m 0,10.03829 v -8.60425 h -8.60425 v 8.60425 z m -6.810375,-13.62339 c -0.240771,0 -0.357187,-0.11907 -0.357187,-0.35719 v -0.71702 c 0,-0.23813 0.119062,-0.35719 0.357187,-0.35719 h 1.791229 v -1.79123 c 0,-0.23812 0.119063,-0.35718 0.359834,-0.35718 h 0.717021 c 0.238125,0 0.357187,0.11906 0.357187,0.35718 v 1.79123 h 1.791229 c 0.238125,0 0.359834,0.11906 0.359834,0.35719 v 0.71702 c 0,0.24077 -0.119063,0.35719 -0.359834,0.35719 h -1.791229 v 1.79123 c 0,0.24077 -0.119062,0.35718 -0.357187,0.35718 h -0.717021 c -0.240771,0 -0.359834,-0.11906 -0.359834,-0.35718 v -1.79123 z m 0,8.60425 c -0.240771,0 -0.357187,-0.11907 -0.357187,-0.35719 v -0.71702 c 0,-0.23813 0.119062,-0.35719 0.357187,-0.35719 h 5.019146 c 0.238125,0 0.359833,0.11906 0.359833,0.35719 v 0.71702 c 0,0.24077 -0.119062,0.35719 -0.359833,0.35719 z m 0,2.86808 c -0.240771,0 -0.357187,-0.11906 -0.357187,-0.35719 v -0.71702 c 0,-0.23812 0.119062,-0.35719 0.357187,-0.35719 h 5.019146 c 0.238125,0 0.359833,0.11907 0.359833,0.35719 v 0.71702 c 0,0.24077 -0.119062,0.35719 -0.359833,0.35719 z"
       id="path14"
       style="fill:#ffffff;stroke-width:0.26458332" />
  </g>
</svg>
