<?xml version="1.0" encoding="UTF-8" standalone="no"?>
<svg
   xmlns:dc="http://purl.org/dc/elements/1.1/"
   xmlns:cc="http://creativecommons.org/ns#"
   xmlns:rdf="http://www.w3.org/1999/02/22-rdf-syntax-ns#"
   xmlns:svg="http://www.w3.org/2000/svg"
   xmlns="http://www.w3.org/2000/svg"
   id="svg55"
   version="1.1"
   viewBox="0 0 26.458332 26.458334"
   height="100"
   width="100">
  <defs
     id="defs49" />
  <metadata
     id="metadata52">
    <rdf:RDF>
      <cc:Work
         rdf:about="">
        <dc:format>image/svg+xml</dc:format>
        <dc:type
           rdf:resource="http://purl.org/dc/dcmitype/StillImage" />
        <dc:title></dc:title>
      </cc:Work>
    </rdf:RDF>
  </metadata>
  <g
     transform="translate(0,-270.54165)"
     id="layer1">
    <path
       class="st0"
       d="m 22.550437,275.16657 c 0.597958,0 1.105958,0.20902 1.524,0.62706 0.418042,0.41804 0.627063,0.92604 0.627063,1.524 v 12.90638 c 0,0.59796 -0.209021,1.10596 -0.627063,1.524 -0.418042,0.41804 -0.926042,0.62706 -1.524,0.62706 H 3.9078954 c -0.597958,0 -1.105958,-0.20902 -1.524,-0.62706 -0.418042,-0.41804 -0.627062,-0.92604 -0.627062,-1.524 v -12.90638 c 0,-0.59796 0.20902,-1.10596 0.627062,-1.524 0.418042,-0.41804 0.926042,-0.62706 1.524,-0.62706 z m -18.6425416,1.43404 c -0.209021,0 -0.381,0.0661 -0.515937,0.20109 -0.134938,0.13493 -0.201084,0.30691 -0.201084,0.51593 v 1.83621 c 1.045104,0.89694 3.2993543,2.71992 6.765396,5.46629 0.8360836,0.68792 1.3599586,1.10596 1.5689796,1.25413 0.20902,0.15081 0.484187,0.31485 0.828145,0.49212 0.343959,0.17992 0.635,0.26988 0.873125,0.26988 0.209021,0 0.433917,-0.045 0.672042,-0.13494 0.238125,-0.09 0.484188,-0.2249 0.738188,-0.40217 0.254,-0.17991 0.47625,-0.34396 0.672041,-0.49212 0.193146,-0.14817 0.425979,-0.33602 0.695854,-0.56092 0.269875,-0.22489 0.431271,-0.36512 0.492125,-0.42598 3.466042,-2.74902 5.720292,-4.572 6.768042,-5.46629 v -1.83621 c 0,-0.20902 -0.06615,-0.381 -0.201083,-0.51593 -0.134938,-0.13494 -0.306917,-0.20109 -0.515938,-0.20109 z m 18.6425416,14.33777 c 0.209021,0 0.381,-0.0661 0.515938,-0.20108 0.134937,-0.13494 0.201083,-0.30692 0.201083,-0.51594 v -9.18633 c -1.045104,0.83608 -3.003021,2.40506 -5.871104,4.70429 -0.06085,0.0291 -0.261938,0.19579 -0.605896,0.49212 -0.343958,0.29898 -0.619125,0.52388 -0.828146,0.67205 -0.209021,0.15081 -0.478896,0.32808 -0.806979,0.5371 -0.328083,0.20902 -0.658813,0.36513 -0.986896,0.47096 -0.328083,0.10583 -0.642937,0.1561 -0.941917,0.1561 -0.269875,0 -0.545041,-0.045 -0.828145,-0.13493 -0.283105,-0.09 -0.537105,-0.19315 -0.762,-0.31486 -0.224896,-0.11906 -0.478896,-0.27516 -0.762,-0.47096 -0.283105,-0.19314 -0.515938,-0.35718 -0.693209,-0.49212 -0.179916,-0.13494 -0.3889373,-0.30692 -0.6270623,-0.51594 -0.2407708,-0.20902 -0.4021666,-0.34396 -0.492125,-0.40217 -2.8680833,-2.29923 -4.8260003,-3.8682 -5.8711043,-4.70429 v 9.18634 c 0,0.20902 0.06615,0.381 0.201084,0.51593 0.134937,0.13494 0.306916,0.20109 0.515937,0.20109 H 22.550437 Z"
       id="path20"
       style="fill:#ffffff;stroke-width:0.26458332" />
  </g>
</svg>
