<?xml version="1.0" encoding="UTF-8" standalone="no"?>
<svg
   xmlns:dc="http://purl.org/dc/elements/1.1/"
   xmlns:cc="http://creativecommons.org/ns#"
   xmlns:rdf="http://www.w3.org/1999/02/22-rdf-syntax-ns#"
   xmlns:svg="http://www.w3.org/2000/svg"
   xmlns="http://www.w3.org/2000/svg"
   id="svg55"
   version="1.1"
   viewBox="0 0 26.458332 26.458334"
   height="100"
   width="100">
  <defs
     id="defs49" />
  <metadata
     id="metadata52">
    <rdf:RDF>
      <cc:Work
         rdf:about="">
        <dc:format>image/svg+xml</dc:format>
        <dc:type
           rdf:resource="http://purl.org/dc/dcmitype/StillImage" />
        <dc:title></dc:title>
      </cc:Work>
    </rdf:RDF>
  </metadata>
  <g
     transform="translate(0,-270.54165)"
     id="layer1">
    <path
       style="fill:none;stroke:#ffffff;stroke-width:1.59687499;stroke-linecap:round;stroke-linejoin:round;stroke-miterlimit:10"
       d="m 18.17716,288.26135 c -0.185208,-0.30427 -0.563563,-0.42334 -0.889,-0.28046 -0.105833,0.0159 -0.216958,0.0159 -0.322792,0 -0.08996,-0.005 -0.182562,-0.003 -0.272521,0.005 -0.09525,0.0238 -0.1905,0.0529 -0.280458,0.0926 l 0.03175,0.0794 c -0.140229,0.17463 -0.261937,0.33867 -0.396875,0.48683 -0.05027,0.045 -0.119062,0.0661 -0.187854,0.0503 -0.166688,-0.0609 -0.328083,-0.12964 -0.484188,-0.21166 -0.0635,-0.0317 -0.100541,-0.0609 -0.182562,-0.0185 -0.0926,0.0397 -0.198438,0.0476 -0.296333,0.0238 -0.283105,-0.0423 -0.574146,-0.008 -0.83873,0.10054 -0.0635,0.0238 -0.116416,0.0661 -0.156104,0.11906 -0.132291,0.16669 -0.312208,0.29105 -0.515937,0.35719 -0.3175,0.11113 -0.547688,0.39158 -0.590021,0.72496 -0.0079,0.13758 0,0.27517 0.02646,0.41275 0.01323,0.0767 0.03175,0.15346 0.05292,0.23019 -0.01852,0.0132 -0.02646,0.0212 -0.0344,0.0238 -0.481541,0.0291 -0.912812,-0.30163 -1.013354,-0.77523 -0.0053,-0.0291 -0.01323,-0.0556 -0.02646,-0.082 -0.238125,-0.36777 -0.470958,-0.73819 -0.719667,-1.09802 -0.108479,-0.13229 -0.283104,-0.18521 -0.447145,-0.14023 -0.07408,0.0106 -0.145521,0.10319 -0.20373,0.17198 -0.0635,0.082 -0.124354,0.16933 -0.17727,0.25929 -0.280459,-0.17198 -0.5450424,-0.32015 -0.6561674,-0.64558 -0.134938,-0.32809 -0.346604,-0.61913 -0.619125,-0.84402 -0.140229,-0.11907 -0.3175,-0.18786 -0.502708,-0.19315 -0.08202,-0.0106 -0.166688,-0.0159 -0.261938,-0.0265 l -0.06085,0.22754 c -0.590022,-0.0156 -1.16946,-0.17172 -1.688043,-0.45217 -0.306917,-0.2249 -0.640292,-0.41275 -0.960438,-0.61913 -0.246062,-0.12964 -0.518583,-0.19579 -0.796395,-0.19844 -0.240771,-0.0265 -0.243417,-0.0291 -0.269875,-0.26723 -0.04763,-0.24077 -0.1905,-0.45508 -0.39423,-0.59266 -0.179916,-0.21167 -0.407458,-0.37836 -0.66675,-0.48419 -0.05556,-0.0397 -0.08731,-0.10319 -0.08202,-0.16933 0.03175,-0.18521 -0.0026,-0.37571 -0.09525,-0.53975 -0.04233,-0.0979 -0.09525,-0.19579 -0.145521,-0.2884 -0.0635,-0.082 -0.06085,-0.19579 0.0079,-0.27252 0.02117,-0.0582 0.0079,-0.12435 -0.0291,-0.17462 -0.05821,-0.0714 -0.09261,-0.1614 -0.0979,-0.25665 -0.04233,-0.24342 -0.100542,-0.48419 -0.171979,-0.72231 -0.07937,-0.16404 -0.09525,-0.3519 -0.04233,-0.52917 0.01058,-0.0609 0.0079,-0.12435 -0.01323,-0.18256 -0.05556,-0.19579 -0.02381,-0.40481 0.08202,-0.57679 0.08202,-0.1323 0.124354,-0.28575 0.124354,-0.44186 -0.0053,-0.254 0.04763,-0.50535 0.15875,-0.73289 0.15875,-0.34661 0.322792,-0.69057 0.460375,-1.04775 0.15875,-0.4445 0.22225,-0.91811 0.179917,-1.38642 0,-0.0503 0,-0.10319 0,-0.17992 0.254,0.15082 0.537104,0.21167 0.738187,0.47625 v -0.59002 c 0.07144,0.0185 0.116417,0.0291 0.161396,0.0423 1.600729,0.44714 3.230563,0.77522 4.881563,0.9816 1.1562294,0.14817 2.3203954,0.22754 3.4845624,0.24342 0.256646,-0.0132 0.513292,0.0291 0.754063,0.12435 0.140229,0.0476 0.28575,0.082 0.433917,0.10319 0.04763,0.008 0.0926,0.0344 0.124354,0.0714 0.193146,0.30691 0.515936,0.508 0.878416,0.54504 -0.100541,0.082 -0.185208,0.14552 -0.264583,0.21696 -0.02117,0.0265 -0.03969,0.0529 -0.05292,0.0847 0.03175,0.005 0.0635,0.005 0.09525,0 0.08731,-0.0317 0.17198,-0.0741 0.254,-0.11112 0.182563,0.19579 0.201084,0.21166 0.404814,0.0423 0.206374,-0.16933 0.383646,-0.24606 0.603249,-0.045 0.04498,0.0344 0.0979,0.0582 0.153458,0.0714 0.312209,0.0767 0.608542,0.20373 0.875772,0.381 0.129645,0.0741 0.277813,0.11112 0.428625,0.11112 0.219604,0.005 0.394228,0.18786 0.388937,0.40746 -0.0026,0.0609 -0.01587,0.11906 -0.04498,0.17198 -0.03969,0.10583 -0.0926,0.20638 -0.140229,0.31221 l 0.0291,0.0344 0.105834,-0.082 0.214312,-0.16404 c 0.05292,0.0794 0.100542,0.1614 0.140229,0.24607 0.127,0.25929 0.08467,0.56885 -0.103187,0.78845 -0.02646,0.0397 -0.05027,0.0794 -0.07144,0.12436 0.15875,0.18521 0.436563,0.20637 0.621771,0.0503 0.261938,-0.19315 0.518584,-0.39423 0.777875,-0.59002 0.119063,-0.0582 0.169334,-0.20373 0.108479,-0.32279 0,-0.003 -0.0026,-0.005 -0.0026,-0.005 -0.0053,-0.0688 0.02646,-0.13493 0.08202,-0.17727 0.0979,-0.0397 0.20373,-0.0608 0.312209,-0.0608 0.174625,0.005 0.346604,-0.0582 0.473604,-0.17992 0.05556,-0.0556 0.07408,-0.10848 0.02646,-0.17462 -0.05027,-0.0661 -0.05027,-0.15875 0.0026,-0.22225 0.0635,-0.10054 0.119063,-0.20638 0.185208,-0.30427 0.09525,-0.14288 0.246063,-0.23813 0.415396,-0.26988 0.232834,-0.0476 0.465667,-0.10848 0.693209,-0.17462 0.314854,-0.0847 0.531812,-0.37042 0.529166,-0.69586 0.02646,-0.28046 0.07937,-0.55827 0.124354,-0.86783 0.0926,0.10583 0.251355,0.127 0.367771,0.0476 0.07673,-0.045 0.177272,-0.0212 0.22225,0.0556 0.0053,0.0106 0.01058,0.0185 0.01323,0.0291 0.03175,0.0529 0.05556,0.11113 0.07144,0.17198 0.05027,0.21431 0.15875,0.4101 0.3175,0.56356 0.08996,0.11113 0.174625,0.23019 0.251354,0.3519 -0.04233,0.037 -0.08996,0.0741 -0.134937,0.10583 -0.291042,0.20109 -0.550334,0.4445 -0.772584,0.71702 -0.214312,0.25665 -0.214312,0.62971 0,0.88371 0.08202,0.09 0.06085,0.1614 -0.02646,0.22754 -0.148167,0.10848 -0.296333,0.21696 -0.449792,0.32809 l 0.08202,0.15081 c -0.103187,0.0767 -0.211667,0.14023 -0.306917,0.22754 -0.193145,0.17198 -0.386291,0.3466 -0.563562,0.53446 -0.164041,0.18256 -0.259292,0.41804 -0.267229,0.6641 -0.0079,0.0847 -0.02646,0.16934 -0.05027,0.25136 -0.0053,0.0238 -0.04233,0.0397 -0.07408,0.0661 0.01588,0.19315 0.04498,0.38629 0.08731,0.57679 0.05821,0.17992 0.137583,0.3519 0.230188,0.51594 0.05292,0.0609 0.14552,0.11906 0.150812,0.18786 0.01588,0.16404 -0.134937,0.21166 -0.259292,0.27516 l 0.121709,0.18521 c -0.296334,0.28046 -0.590021,0.55827 -0.883709,0.83873 -0.03439,0.0265 -0.05821,0.0609 -0.07408,0.10054 -0.07408,0.20638 -0.203729,0.38894 -0.378354,0.52388 -0.336021,0.28575 -0.489479,0.73289 -0.399521,1.16416 0.100542,0.27782 0.230188,0.53975 0.391583,0.78582 0.04498,0.0873 0.09261,0.17198 0.137584,0.25929 0.07408,0.17991 0.161396,0.35719 0.256646,0.52652 0.164041,0.29104 0.203729,0.635 0.116416,0.95779 -0.02381,0.11642 -0.124354,0.20108 -0.243416,0.20638 -0.10848,0.0212 -0.134938,-0.0741 -0.1905,-0.14023 -0.0635,-0.0688 -0.132292,-0.12965 -0.20373,-0.18786 -0.0291,-0.0238 -0.07144,-0.037 -0.08996,-0.0661 -0.182562,-0.24871 -0.365125,-0.49742 -0.542396,-0.74877 -0.0926,-0.12965 -0.119062,-0.29634 -0.07144,-0.4498 0.05292,-0.12435 -0.0053,-0.26723 -0.129646,-0.3175 -0.0079,-0.003 -0.01323,-0.005 -0.02117,-0.008 -0.06085,-0.0344 -0.116416,-0.0767 -0.166687,-0.12436 -0.07144,-0.0608 -0.134938,-0.13229 -0.206375,-0.19579 -0.07937,-0.0794 -0.211667,-0.0794 -0.291042,0 -0.111125,0.0847 -0.251354,0.15346 -0.378354,0.23019 z"
       class="st1"
       id="US_Map_icon" />
  </g>
</svg>
