<?xml version="1.0" encoding="UTF-8" standalone="no"?>
<svg
   xmlns:dc="http://purl.org/dc/elements/1.1/"
   xmlns:cc="http://creativecommons.org/ns#"
   xmlns:rdf="http://www.w3.org/1999/02/22-rdf-syntax-ns#"
   xmlns:svg="http://www.w3.org/2000/svg"
   xmlns="http://www.w3.org/2000/svg"
   id="svg55"
   version="1.1"
   viewBox="0 0 26.458332 26.458334"
   height="100"
   width="100">
  <defs
     id="defs49" />
  <metadata
     id="metadata52">
    <rdf:RDF>
      <cc:Work
         rdf:about="">
        <dc:format>image/svg+xml</dc:format>
        <dc:type
           rdf:resource="http://purl.org/dc/dcmitype/StillImage" />
        <dc:title></dc:title>
      </cc:Work>
    </rdf:RDF>
  </metadata>
  <g
     transform="translate(0,-270.54165)"
     id="layer1">
    <path
       class="st0"
       d="m 5.3657505,275.9074 c 2.166937,-2.16693 4.7863125,-3.24908 7.8634165,-3.24908 3.077104,0 5.699125,1.08215 7.863417,3.24908 2.166937,2.16694 3.249083,4.78896 3.249083,7.86342 0,3.0771 -1.082146,5.69912 -3.249083,7.86342 -2.166938,2.16693 -4.788959,3.24908 -7.863417,3.24908 -3.077104,0 -5.6991255,-1.08215 -7.8634165,-3.24908 -2.166938,-2.16694 -3.249084,-4.78632 -3.249084,-7.86342 0,-3.07446 1.084792,-5.69648 3.249084,-7.86342 z m 7.8660625,17.54452 c 2.688166,0 4.974166,-0.94985 6.855354,-2.84427 1.881187,-1.89441 2.823104,-4.17512 2.823104,-6.83418 0,-2.68817 -0.949854,-4.97417 -2.844271,-6.85536 -1.897062,-1.88119 -4.175125,-2.8231 -6.834187,-2.8231 -2.688167,0 -4.9741669,0.94985 -6.8553545,2.84427 -1.881187,1.89706 -2.823104,4.17512 -2.823104,6.83419 0,2.68816 0.947208,4.97416 2.846917,6.85535 1.8944162,1.88119 4.1724785,2.8231 6.8315415,2.8231 z m 4.257146,-12.77143 -3.09298,3.09298 3.09298,3.09297 c 0.238125,0.26988 0.238125,0.52388 0,0.762 l -0.402167,0.40217 c -0.240771,0.24077 -0.492125,0.24077 -0.762,0 l -3.092979,-3.09298 -3.092979,3.09298 c -0.2698754,0.24077 -0.5238754,0.24077 -0.7620004,0 l -0.4021667,-0.40217 c -0.2407708,-0.23812 -0.2407708,-0.49212 0,-0.762 l 3.0929791,-3.09297 -3.0929791,-3.09298 c -0.2407708,-0.26988 -0.2407708,-0.52123 0,-0.762 l 0.4021667,-0.40217 c 0.238125,-0.23813 0.492125,-0.23813 0.7620004,0 l 3.092979,3.09298 3.092979,-3.09298 c 0.269875,-0.23813 0.521229,-0.23813 0.762,0 l 0.402167,0.40217 c 0.238125,0.24077 0.238125,0.49212 0,0.762 z"
       id="path26"
       style="fill:#ffffff;stroke-width:0.26458332" />
  </g>
</svg>
