<svg width="24" height="24" xmlns="http://www.w3.org/2000/svg" clip-rule="evenodd">

 <g>
  <title>background</title>
  <rect fill="none" id="canvas_background" height="602" width="802" y="-1" x="-1"/>
 </g>
 <g>
  <title>Layer 1</title>
  <path fill="#ffffff" id="svg_1" d="m0,22l12,0l0,2l-12,0l0,-2zm11,-1l-10,0c0,-1.105 0.895,-2 2,-2l6,0c1.105,0 2,0.895 2,2zm6.369,-12.839l-2.246,2.197s6.291,5.541 8.172,7.144c0.475,0.405 0.705,0.929 0.705,1.446c0,1.015 -0.888,1.886 -1.95,1.819c-0.52,-0.032 -0.981,-0.303 -1.321,-0.697c-1.619,-1.875 -7.07,-8.249 -7.07,-8.249l-2.245,2.196l-5.857,-5.856l5.957,-5.857l5.855,5.857zm-12.299,0.926c-0.195,-0.193 -0.458,-0.302 -0.733,-0.302c-0.274,0 -0.537,0.109 -0.732,0.302c-0.193,0.195 -0.303,0.458 -0.303,0.733c0,0.274 0.11,0.537 0.303,0.732l5.513,5.511c0.194,0.195 0.457,0.304 0.732,0.304c0.275,0 0.538,-0.109 0.732,-0.304c0.194,-0.193 0.303,-0.457 0.303,-0.732c0,-0.274 -0.109,-0.537 -0.303,-0.731l-5.512,-5.513zm8.784,-8.784c-0.195,-0.194 -0.458,-0.303 -0.732,-0.303c-0.576,0 -1.035,0.467 -1.035,1.035c0,0.275 0.108,0.539 0.303,0.732l5.513,5.513c0.194,0.193 0.456,0.303 0.731,0.303c0.572,0 1.036,-0.464 1.036,-1.035c0,-0.275 -0.109,-0.539 -0.304,-0.732l-5.512,-5.513z"/>
 </g>
</svg>