<?xml version="1.0" encoding="UTF-8" standalone="no"?>
<svg
   xmlns:dc="http://purl.org/dc/elements/1.1/"
   xmlns:cc="http://creativecommons.org/ns#"
   xmlns:rdf="http://www.w3.org/1999/02/22-rdf-syntax-ns#"
   xmlns:svg="http://www.w3.org/2000/svg"
   xmlns="http://www.w3.org/2000/svg"
   id="svg55"
   version="1.1"
   viewBox="0 0 26.458332 26.458334"
   height="100"
   width="100">
  <defs
     id="defs49" />
  <metadata
     id="metadata52">
    <rdf:RDF>
      <cc:Work
         rdf:about="">
        <dc:format>image/svg+xml</dc:format>
        <dc:type
           rdf:resource="http://purl.org/dc/dcmitype/StillImage" />
        <dc:title></dc:title>
      </cc:Work>
    </rdf:RDF>
  </metadata>
  <g
     transform="translate(0,-270.54165)"
     id="layer1">
    <path
       class="st0"
       d="m 24.566563,282.56169 c 0.08996,0.09 0.134938,0.17992 0.134938,0.26988 0,0.0899 -0.0291,0.16404 -0.08996,0.22489 l -0.447146,0.58209 c -0.06085,0.0899 -0.150812,0.13493 -0.269875,0.13493 -0.08996,0 -0.164041,-0.0291 -0.224895,-0.09 l -1.836209,-1.47902 v 10.89025 c 0,0.17992 -0.06615,0.34396 -0.201083,0.49213 -0.134938,0.14817 -0.306917,0.2249 -0.515938,0.2249 h -5.736166 c -0.209021,0 -0.381,-0.0661 -0.515938,-0.20109 -0.134937,-0.13494 -0.201083,-0.30691 -0.201083,-0.51594 v -5.73616 h -2.868083 v 5.73616 c 0,0.17992 -0.06615,0.34396 -0.201084,0.49213 -0.134938,0.14817 -0.306917,0.2249 -0.515938,0.2249 H 5.3419382 c -0.209021,0 -0.381,-0.0741 -0.515938,-0.2249 -0.134937,-0.15081 -0.201083,-0.31485 -0.201083,-0.49213 v -10.89289 l -1.836208,1.47902 c -0.06086,0.0608 -0.134938,0.09 -0.224896,0.09 -0.119063,0 -0.209021,-0.045 -0.269875,-0.13494 l -0.447146,-0.58208 c -0.06085,-0.0609 -0.08996,-0.13494 -0.08996,-0.2249 0,-0.09 0.04498,-0.17992 0.134937,-0.26987 l 10.4404588,-8.5143 c 0.269875,-0.20902 0.566208,-0.31485 0.896937,-0.31485 0.328084,0 0.627063,0.10583 0.896938,0.31485 z m -4.167187,9.8134 v -11.3374 l -7.170209,-5.8711 -7.1702078,5.8711 v 11.3374 h 4.3021248 v -5.73617 c 0,-0.20902 0.06615,-0.381 0.201083,-0.51594 0.134937,-0.13493 0.306917,-0.20108 0.515937,-0.20108 h 4.302126 c 0.08996,0 0.179916,0.0159 0.269875,0.045 0.08996,0.0291 0.164042,0.082 0.224896,0.1561 0.05821,0.0741 0.111125,0.15611 0.156104,0.24607 0.04498,0.09 0.06615,0.17991 0.06615,0.26987 v 5.73617 z"
       id="path8"
       style="fill:#ffffff;stroke-width:0.26458332" />
  </g>
</svg>
