<?xml version="1.0" encoding="UTF-8" standalone="no"?>
<svg
   xmlns:dc="http://purl.org/dc/elements/1.1/"
   xmlns:cc="http://creativecommons.org/ns#"
   xmlns:rdf="http://www.w3.org/1999/02/22-rdf-syntax-ns#"
   xmlns:svg="http://www.w3.org/2000/svg"
   xmlns="http://www.w3.org/2000/svg"
   id="svg55"
   version="1.1"
   viewBox="0 0 26.458332 26.458334"
   height="100"
   width="100">
  <defs
     id="defs49" />
  <metadata
     id="metadata52">
    <rdf:RDF>
      <cc:Work
         rdf:about="">
        <dc:format>image/svg+xml</dc:format>
        <dc:type
           rdf:resource="http://purl.org/dc/dcmitype/StillImage" />
        <dc:title></dc:title>
      </cc:Work>
    </rdf:RDF>
  </metadata>
  <g
     transform="translate(0,-270.54165)"
     id="layer1">
    <path
       class="st0"
       d="m 13.229167,272.29981 c 2.54,2.30187 4.609042,4.68313 6.207125,7.1464 1.598083,2.46591 2.397125,4.56406 2.397125,6.29708 0,2.80723 -0.799042,5.09323 -2.397125,6.85535 -1.598083,1.76213 -3.667125,2.64319 -6.207125,2.64319 -2.54,0 -4.6090413,-0.88106 -6.2071253,-2.64319 -1.598083,-1.76212 -2.397125,-4.04812 -2.397125,-6.85535 0,-1.73302 0.791104,-3.83117 2.375959,-6.29708 1.582208,-2.46327 3.6565413,-4.84453 6.2282913,-7.1464 z m 5.331354,19.04471 c 1.225021,-1.49225 1.836208,-3.36021 1.836208,-5.60123 0,-0.74613 -0.201083,-1.59808 -0.605895,-2.55323 -0.402167,-0.95515 -0.873125,-1.84415 -1.41023,-2.667 -0.537104,-0.82021 -1.180041,-1.67217 -1.926166,-2.55323 -0.746125,-0.88106 -1.359959,-1.57427 -1.836208,-2.08492 -0.478896,-0.508 -0.941917,-0.97102 -1.389063,-1.38906 -0.627062,0.56886 -1.254125,1.20386 -1.881187,1.905 -0.627063,0.70115 -1.3890633,1.61396 -2.2860003,2.73315 -0.896938,1.11918 -1.621896,2.27012 -2.172229,3.45016 -0.55298,1.18005 -0.828146,2.23309 -0.828146,3.15913 0,2.24102 0.611187,4.10898 1.836208,5.60123 -0.179917,-0.62706 -0.269875,-1.22502 -0.269875,-1.79123 0,-0.41804 0.07408,-0.889 0.224896,-1.41288 0.148167,-0.52123 0.336021,-1.016 0.560917,-1.47902 0.224895,-0.46302 0.508,-0.96308 0.851958,-1.50018 0.343958,-0.53711 0.656167,-1.00807 0.9419173,-1.41288 0.283104,-0.40217 0.611187,-0.82815 0.986895,-1.27794 0.373063,-0.44714 0.672042,-0.79904 0.896938,-1.05304 0.224896,-0.254 0.605896,-0.6641 1.143,-1.23296 0.0291,0.0291 0.127,0.13494 0.291042,0.31486 0.164041,0.17991 0.33602,0.35718 0.515937,0.5371 0.179917,0.17992 0.396875,0.42598 0.650875,0.73819 0.254,0.31485 0.508,0.61912 0.762,0.9181 0.254,0.29898 0.521229,0.64294 0.806979,1.03188 0.283104,0.38894 0.545042,0.76994 0.783167,1.143 0.238125,0.37306 0.470958,0.76994 0.693208,1.18798 0.224896,0.41804 0.418042,0.82285 0.582083,1.20914 0.164042,0.38894 0.291042,0.77788 0.381,1.16417 0.08996,0.38894 0.134938,0.762 0.134938,1.11919 -0.0053,0.57414 -0.09525,1.16946 -0.275167,1.79652 z m -9.4985413,-1.79123 c 0,1.07421 0.291041,1.98702 0.873125,2.73315 0.5820833,0.74612 1.3678963,1.22502 2.3521463,1.43404 0.47625,0.0609 0.791104,0.09 0.941916,0.09 0.08996,0 0.402167,-0.0291 0.941917,-0.09 0.986895,-0.20902 1.770062,-0.68792 2.352145,-1.43404 0.582084,-0.74613 0.873125,-1.65894 0.873125,-2.73315 0,-1.67217 -1.389062,-4.07723 -4.167187,-7.21519 -2.778125,3.13796 -4.1671873,5.54302 -4.1671873,7.21519 z"
       id="path12"
       style="fill:#ffffff;stroke-width:0.26458332" />
  </g>
</svg>
