<?xml version="1.0" encoding="UTF-8" standalone="no"?>
<svg
   xmlns:dc="http://purl.org/dc/elements/1.1/"
   xmlns:cc="http://creativecommons.org/ns#"
   xmlns:rdf="http://www.w3.org/1999/02/22-rdf-syntax-ns#"
   xmlns:svg="http://www.w3.org/2000/svg"
   xmlns="http://www.w3.org/2000/svg"
   id="svg55"
   version="1.1"
   viewBox="0 0 26.458332 26.458334"
   height="100"
   width="100">
  <defs
     id="defs49" />
  <metadata
     id="metadata52">
    <rdf:RDF>
      <cc:Work
         rdf:about="">
        <dc:format>image/svg+xml</dc:format>
        <dc:type
           rdf:resource="http://purl.org/dc/dcmitype/StillImage" />
        <dc:title></dc:title>
      </cc:Work>
    </rdf:RDF>
  </metadata>
  <g
     transform="translate(0,-270.54165)"
     id="layer1">
    <path
       class="st0"
       d="m 24.510844,294.55888 -0.492125,0.49212 c -0.269875,0.26988 -0.523875,0.26988 -0.762,0 l -5.781146,-5.78115 c -0.08996,-0.0899 -0.134937,-0.20902 -0.134937,-0.35718 v -0.40217 c -1.791229,1.61396 -3.884083,2.42094 -6.27327,2.42094 -2.5691052,0 -4.7572092,-0.89694 -6.5643132,-2.68817 -1.807104,-1.79123 -2.727854,-3.95817 -2.756958,-6.49817 -0.0291,-2.62731 0.881062,-4.86833 2.733146,-6.72306 1.852083,-1.85208 4.093104,-2.76225 6.7230622,-2.73314 2.54,0.0291 4.704291,0.94985 6.498166,2.75695 1.793875,1.80711 2.688167,3.99521 2.688167,6.56432 0,2.38918 -0.806979,4.48204 -2.420938,6.27327 h 0.402167 c 0.148167,0 0.269875,0.045 0.357188,0.13494 l 5.781145,5.78114 c 0.272521,0.23548 0.272521,0.48948 0.0026,0.75936 z m -7.863416,-7.3713 c 1.537229,-1.53723 2.307166,-3.39725 2.307166,-5.58006 0,-2.18017 -0.769937,-4.04019 -2.307166,-5.58006 -1.539875,-1.53723 -3.399896,-2.30717 -5.580062,-2.30717 -2.1801672,0 -4.0401882,0.76994 -5.5800632,2.30717 -1.539875,1.53987 -2.307167,3.39989 -2.307167,5.58006 0,2.18017 0.769938,4.04019 2.307167,5.58006 1.537229,1.53988 3.39725,2.30717 5.5800632,2.30717 2.180166,0 4.040187,-0.76994 5.580062,-2.30717 z m -0.560917,-5.75998 v 0.35719 c 0,0.15081 -0.05292,0.27781 -0.156104,0.381 -0.105834,0.10584 -0.232834,0.15611 -0.381,0.15611 h -3.765021 v 3.76502 c 0,0.09 -0.02117,0.17991 -0.06615,0.26987 -0.04498,0.09 -0.111125,0.15611 -0.201083,0.20109 -0.08996,0.045 -0.179917,0.0661 -0.269875,0.0661 h -0.357187 c -0.150813,0 -0.277813,-0.0529 -0.381,-0.1561 -0.105834,-0.10319 -0.156104,-0.23019 -0.156104,-0.381 V 282.3245 H 6.5879658 c -0.150813,0 -0.275167,-0.0529 -0.381,-0.1561 -0.105834,-0.10319 -0.156104,-0.23019 -0.156104,-0.381 v -0.35984 c 0,-0.14816 0.05292,-0.27516 0.156104,-0.381 0.103187,-0.10318 0.230187,-0.1561 0.381,-0.1561 h 3.7650212 v -3.76502 c 0,-0.14817 0.05292,-0.27517 0.156104,-0.381 0.103187,-0.10319 0.230187,-0.1561 0.381,-0.1561 h 0.357187 c 0.148167,0 0.275167,0.0529 0.381,0.1561 0.103188,0.10583 0.156104,0.23283 0.156104,0.381 v 3.76502 h 3.765021 c 0.148166,0 0.275166,0.0529 0.381,0.1561 0.103187,0.10584 0.156104,0.23284 0.156104,0.381 z"
       id="path10"
       style="fill:#ffffff;stroke-width:0.26458332" />
  </g>
</svg>
