<?xml version="1.0" encoding="UTF-8" standalone="no"?>
<svg
   xmlns:dc="http://purl.org/dc/elements/1.1/"
   xmlns:cc="http://creativecommons.org/ns#"
   xmlns:rdf="http://www.w3.org/1999/02/22-rdf-syntax-ns#"
   xmlns:svg="http://www.w3.org/2000/svg"
   xmlns="http://www.w3.org/2000/svg"
   id="svg55"
   version="1.1"
   viewBox="0 0 26.458332 26.458334"
   height="100"
   width="100">
  <defs
     id="defs49" />
  <metadata
     id="metadata52">
    <rdf:RDF>
      <cc:Work
         rdf:about="">
        <dc:format>image/svg+xml</dc:format>
        <dc:type
           rdf:resource="http://purl.org/dc/dcmitype/StillImage" />
        <dc:title></dc:title>
      </cc:Work>
    </rdf:RDF>
  </metadata>
  <g
     transform="translate(0,-270.54165)"
     id="layer1">
    <path
       class="st0"
       d="m 24.510339,293.88782 c 0.269875,0.23813 0.269875,0.49213 0,0.762 l -0.402167,0.40217 c -0.269875,0.26988 -0.523875,0.26988 -0.762,0 l -5.781145,-5.73617 c -0.119063,-0.11906 -0.179917,-0.254 -0.179917,-0.40216 v -0.44715 c -1.791229,1.64306 -3.897314,2.46327 -6.318252,2.46327 -2.569104,0 -4.765145,-0.91017 -6.588125,-2.73314 -1.822979,-1.82298 -2.733145,-4.01903 -2.733145,-6.58813 0,-2.5691 0.910166,-4.76514 2.733145,-6.58812 1.82298,-1.82298 4.016375,-2.73315 6.588125,-2.73315 2.569106,0 4.765148,0.91281 6.588127,2.73315 1.822979,1.82298 2.733146,4.01902 2.733146,6.58812 0,2.42094 -0.822854,4.52702 -2.465917,6.31825 h 0.447146 c 0.148167,0 0.283104,0.0609 0.402167,0.17992 z M 5.486796,287.18857 c 1.537229,1.53988 3.39725,2.30717 5.580062,2.30717 2.180168,0 4.040189,-0.76994 5.580064,-2.30717 1.53723,-1.53723 2.307167,-3.39725 2.307167,-5.58006 0,-2.18017 -0.769937,-4.04019 -2.307167,-5.58006 -1.539875,-1.53723 -3.399897,-2.30717 -5.580064,-2.30717 -2.180166,0 -4.040187,0.76994 -5.580062,2.30717 -1.539875,1.53987 -2.307167,3.39989 -2.307167,5.58006 0,2.18017 0.767292,4.04019 2.307167,5.58006 z"
       id="path6"
       style="fill:rgb(70,67,67);stroke-width:0.26458332" />
  </g>
</svg>
