<?xml version="1.0" encoding="UTF-8" standalone="no"?>
<svg
   xmlns:dc="http://purl.org/dc/elements/1.1/"
   xmlns:cc="http://creativecommons.org/ns#"
   xmlns:rdf="http://www.w3.org/1999/02/22-rdf-syntax-ns#"
   xmlns:svg="http://www.w3.org/2000/svg"
   xmlns="http://www.w3.org/2000/svg"
   id="svg55"
   version="1.1"
   viewBox="0 0 26.458332 26.458334"
   height="100"
   width="100">
  <defs
     id="defs49" />
  <metadata
     id="metadata52">
    <rdf:RDF>
      <cc:Work
         rdf:about="">
        <dc:format>image/svg+xml</dc:format>
        <dc:type
           rdf:resource="http://purl.org/dc/dcmitype/StillImage" />
        <dc:title></dc:title>
      </cc:Work>
    </rdf:RDF>
  </metadata>
  <g
     transform="translate(0,-270.54165)"
     id="layer1">
    <path
       class="st0"
       d="m 5.3657466,275.9074 c 2.16694,-2.16693 4.7863104,-3.24908 7.8634204,-3.24908 3.0771,0 5.69912,1.08215 7.86341,3.24908 2.16429,2.16694 3.24909,4.78896 3.24909,7.86342 0,3.0771 -1.08215,5.69912 -3.24909,7.86342 -2.16694,2.16693 -4.78896,3.24908 -7.86341,3.24908 -3.07711,0 -5.6991304,-1.08215 -7.8634204,-3.24908 -2.16694,-2.16694 -3.24908,-4.78632 -3.24908,-7.86342 0,-3.0771 1.08214,-5.69648 3.24908,-7.86342 z m -1.81504,7.86342 c 0,0.9869 0.14816,1.94204 0.44714,2.86808 h 4.03225 c -0.11906,-0.95514 -0.17991,-1.91029 -0.17991,-2.86808 0,-0.92604 0.0608,-1.88119 0.17991,-2.86808 h -4.03225 c -0.29633,0.92604 -0.44714,1.88383 -0.44714,2.86808 z m 6.6331004,-9.18633 c -2.5400004,0.83608 -4.4079604,2.46327 -5.6012304,4.88421 h 3.67507 c 0.41539,-2.00025 1.05833,-3.63009 1.9261604,-4.88421 z m -5.6012304,13.48845 c 1.19327,2.42094 3.06123,4.04813 5.6012304,4.88421 -0.8678304,-1.22502 -1.5081204,-2.85221 -1.9261604,-4.88421 z m 12.5915204,-4.30212 c 0,-0.95515 -0.0609,-1.91029 -0.17991,-2.86808 H 9.4667866 c -0.11906,0.95514 -0.17992,1.91293 -0.17992,2.86808 0,0.95515 0.0609,1.91294 0.17992,2.86808 h 7.5274004 c 0.11906,-0.95514 0.17991,-1.91029 0.17991,-2.86808 z m -3.94493,-9.67846 c -0.62707,0 -1.27794,0.48684 -1.94998,1.45521 -0.67204,0.97102 -1.18798,2.27806 -1.5451704,3.92113 h 6.9902904 c -0.17992,-0.83609 -0.4101,-1.59809 -0.69321,-2.286 -0.2831,-0.68792 -0.58208,-1.25413 -0.89693,-1.70392 -0.31486,-0.44979 -0.635,-0.79111 -0.96309,-1.03188 -0.32808,-0.23548 -0.64294,-0.35454 -0.94191,-0.35454 z m 0,19.35692 c 0.62706,0 1.27793,-0.48683 1.94997,-1.45521 0.67205,-0.97102 1.18798,-2.27806 1.54517,-3.92113 H 9.7340166 c 0.2381305,1.10596 0.5609204,2.06905 0.9630804,2.88926 0.40217,0.82285 0.82021,1.44197 1.25413,1.86002 0.43391,0.41804 0.85989,0.62706 1.27794,0.62706 z m 8.64922,-13.98058 c -1.19591,-2.42094 -3.06387,-4.04813 -5.60122,-4.88421 0.86518,1.22502 1.50812,2.8522 1.92616,4.88421 z m -5.60122,13.48845 c 2.54,-0.83608 4.40531,-2.46327 5.60122,-4.88421 h -3.67506 c -0.41804,2.0029 -1.05833,3.63009 -1.92616,4.88421 z m 2.15106,-6.31825 h 4.03225 c 0.29898,-0.92604 0.44714,-1.88118 0.44714,-2.86808 0,-0.9869 -0.15081,-1.94204 -0.44714,-2.86808 h -4.03225 c 0.11906,0.95514 0.17991,1.91293 0.17991,2.86808 0,0.92604 -0.0609,1.88119 -0.17991,2.86808 z"
       id="path16"
       style="fill:#ffffff;stroke-width:0.26458332" />
  </g>
</svg>
