<svg width="600" height="600" xmlns="http://www.w3.org/2000/svg">
 <g>
  <title>Layer 1</title>
  <g id="svg_1">
   <path fill="#fff" d="m294.3,512.5c-32.9,0 -63.4,-5.8 -91.5,-17.4s-52.3,-27.3 -72.6,-47.3c-20.3,-19.9 -36.3,-43.3 -47.9,-70.1c-11.6,-26.8 -17.4,-55.5 -17.4,-86l0,-1.2c0,-30.5 5.8,-59.3 17.4,-86.3c11.6,-27 27.8,-50.6 48.5,-70.8c20.7,-20.1 45.1,-36 73.2,-47.6c28.1,-11.6 58.6,-17.4 91.5,-17.4c32.9,0 63.4,5.8 91.5,17.4c28.1,11.6 52.3,27.4 72.6,47.3c20.3,19.9 36.3,43.3 47.9,70.1c11.6,26.8 17.4,55.5 17.4,86l0,1.2c0,30.5 -5.8,59.3 -17.4,86.3c-11.6,27 -27.8,50.6 -48.5,70.8s-45.1,36 -73.2,47.6s-58.6,17.4 -91.5,17.4zm0.9,-106.7c16.3,0 31.2,-3 44.7,-9.2c13.5,-6.1 24.9,-14.3 34.3,-24.7c9.4,-10.4 16.7,-22.5 22,-36.3c5.3,-13.8 8,-28.5 8,-43.9l0,-1.2c0,-15.5 -2.7,-30.1 -8,-43.9c-5.3,-13.8 -12.8,-26 -22.6,-36.6c-9.8,-10.6 -21.4,-19 -34.9,-25.3c-13.5,-6.3 -28.3,-9.5 -44.7,-9.5c-16.3,0 -31.1,3 -44.3,9.1c-13.3,6.1 -24.7,14.3 -34.3,24.7c-9.6,10.4 -16.9,22.5 -22,36.3c-5.1,13.8 -7.6,28.5 -7.6,43.9l0,1.2c0,15.5 2.6,30.1 7.9,43.9c5.3,13.8 12.7,26 22.3,36.6c9.6,10.6 21.1,19 34.6,25.3c13.4,6.4 28.3,9.6 44.6,9.6z" id="svg_2"/>
  </g>
 </g>

</svg>