<svg width="25" height="25" viewBox="0 0 25 25" fill="none" xmlns="http://www.w3.org/2000/svg">
<path d="M22.7275 9.43958H20.7275V7.43958H12.3135L10.3135 5.43958H4.72754V19.4396H12.1745C12.5418 20.2422 13.1161 20.9325 13.8385 21.4396H3.72754C3.46232 21.4396 3.20797 21.3342 3.02043 21.1467C2.8329 20.9591 2.72754 20.7048 2.72754 20.4396V4.43958C2.72754 4.17436 2.8329 3.92 3.02043 3.73247C3.20797 3.54493 3.46232 3.43958 3.72754 3.43958H11.1415L13.1415 5.43958H21.7275C21.9928 5.43958 22.2471 5.54493 22.4346 5.73247C22.6222 5.92 22.7275 6.17436 22.7275 6.43958V9.43958ZM13.7275 11.4396H22.7275V17.3886C22.7275 18.3786 22.2265 19.3046 21.3915 19.8536L18.2275 21.9376L15.0635 19.8536C14.6542 19.5857 14.3178 19.2203 14.0846 18.7902C13.8514 18.3601 13.7287 17.8788 13.7275 17.3896V11.4396ZM15.7275 17.3886C15.7275 17.7046 15.8895 18.0026 16.1635 18.1836L18.2275 19.5436L20.2915 18.1836C20.4245 18.0976 20.5339 17.98 20.61 17.8412C20.6861 17.7024 20.7265 17.5469 20.7275 17.3886V13.4396H15.7275V17.3886Z" fill="white"/>
</svg>
