<svg width="894" height="117" viewBox="0 0 894 117" fill="none" xmlns="http://www.w3.org/2000/svg">
<path d="M95.8554 78.3111L95.8596 78.3032L95.8639 78.2954C97.213 75.8559 99.6552 74.4976 102.339 74.4976L862.598 74.4976C871.376 74.4976 878.399 67.4485 878.399 58.6201C878.399 49.7917 871.376 42.7426 862.598 42.7426L102.339 42.7426C99.6019 42.7426 97.206 41.1045 95.89 38.9892L95.8683 38.9544L95.8495 38.9179C88.5577 24.7257 73.9717 16.02 58.0033 16.02H57.9935L57.9838 16.0198C34.5246 15.5622 15.3673 34.7855 15.3673 58.3857C15.3673 81.9819 34.5251 101.22 58.0033 101.22C73.9633 101.22 88.3264 92.5209 95.8554 78.3111ZM57.9917 1.36185C77.999 0.893196 96.135 11.197 106.401 27.8501L862.598 27.8501C879.251 27.8501 893 41.4239 893 58.3857C893 75.3424 879.489 88.9213 862.598 88.9213L106.394 88.9213C95.9029 105.573 77.7736 115.878 58.0033 115.878C42.8061 115.878 28.316 109.914 17.6256 99.1753C6.93536 88.4364 0.999939 73.8825 0.999939 58.6201C0.999939 43.3578 6.93536 28.8039 17.6257 18.065C28.3133 7.32869 42.7987 1.36488 57.9917 1.36185Z" fill="#464343" stroke="white" stroke-width="2"/>
</svg>
