<svg width="25" height="25" viewBox="0 0 25 25" fill="none" xmlns="http://www.w3.org/2000/svg">
<path d="M4.72754 2.43958H20.7275C20.9928 2.43958 21.2471 2.54493 21.4346 2.73247C21.6222 2.92 21.7275 3.17436 21.7275 3.43958V21.4396C21.7275 21.7048 21.6222 21.9591 21.4346 22.1467C21.2471 22.3342 20.9928 22.4396 20.7275 22.4396H4.72754C4.46232 22.4396 4.20797 22.3342 4.02043 22.1467C3.8329 21.9591 3.72754 21.7048 3.72754 21.4396V3.43958C3.72754 3.17436 3.8329 2.92 4.02043 2.73247C4.20797 2.54493 4.46232 2.43958 4.72754 2.43958ZM5.72754 4.43958V20.4396H19.7275V4.43958H5.72754ZM7.72754 7.43958H17.7275V9.43958H7.72754V7.43958ZM7.72754 12.4396H9.72754V14.4396H7.72754V12.4396ZM7.72754 16.4396H9.72754V18.4396H7.72754V16.4396ZM11.7275 12.4396H13.7275V14.4396H11.7275V12.4396ZM11.7275 16.4396H13.7275V18.4396H11.7275V16.4396ZM15.7275 12.4396H17.7275V18.4396H15.7275V12.4396Z" fill="white"/>
</svg>
