<svg width="17" height="17" viewBox="0 0 17 17" fill="none" xmlns="http://www.w3.org/2000/svg">
<path d="M11.929 0.896621H12.2731C12.6756 1.00506 12.908 1.25568 12.9265 1.68161C12.9321 1.8116 12.9265 1.94191 12.9265 2.07191C12.9265 2.22066 12.9265 2.36909 12.9265 2.52565C13.0435 2.52565 13.1367 2.52565 13.2299 2.52565C13.9969 2.53135 14.7306 2.83993 15.2707 3.38405C15.8108 3.92817 16.1136 4.66365 16.1129 5.42997C16.1173 8.29241 16.1173 11.1549 16.1129 14.0173C16.1135 14.6016 15.9365 15.1724 15.6054 15.6541C15.2742 16.1357 14.8045 16.5056 14.2584 16.7147C14.0613 16.7916 13.8517 16.8363 13.6481 16.896H3.20089C3.1724 16.8843 3.14314 16.8746 3.11331 16.8669C1.7461 16.6107 0.740478 15.4241 0.73735 14.032C0.730885 11.1539 0.730781 8.27544 0.737037 5.39653C0.739539 4.13031 1.60159 2.98721 2.82398 2.65159C3.16461 2.55784 3.53214 2.55971 3.88747 2.52659C4.03479 2.51315 4.1843 2.5244 4.33914 2.5244C4.33914 2.34722 4.33914 2.1966 4.33914 2.04597C4.33914 1.90566 4.33695 1.76473 4.34664 1.62473C4.37448 1.22286 4.61126 0.999744 4.98411 0.895996H5.32818C5.84491 1.09005 5.97691 1.28193 5.97722 1.84004C5.97722 2.06254 5.97722 2.28472 5.97722 2.51409H11.2947C11.2947 2.45159 11.2947 2.40159 11.2947 2.35066C11.2947 2.1216 11.2919 1.89254 11.2978 1.66317C11.3087 1.24693 11.5512 1.01537 11.929 0.896621ZM14.4626 8.17429H2.38075C2.37643 8.19912 2.37341 8.22415 2.37168 8.24929C2.37168 10.1708 2.36511 12.093 2.3745 14.0142C2.37794 14.7329 2.93752 15.266 3.66163 15.2663C6.83625 15.2684 10.0108 15.2684 13.1852 15.2663C13.9324 15.2663 14.4604 14.7289 14.461 13.9811C14.4625 12.2886 14.4625 10.5961 14.461 8.90365C14.4642 8.66334 14.4642 8.42397 14.4642 8.17429H14.4626ZM2.39983 6.51307H14.4789C14.4789 6.25183 14.4829 6.00246 14.4789 5.7534C14.4745 5.54591 14.4873 5.33216 14.4432 5.13216C14.3131 4.53842 13.8017 4.16343 13.1583 4.16187C11.162 4.16041 9.16581 4.15989 7.16958 4.16031C6.00725 4.16031 4.84502 4.16031 3.6829 4.16031C3.04794 4.16031 2.49805 4.54999 2.4136 5.14373C2.34885 5.59153 2.39983 6.05496 2.39983 6.51307Z" fill="#464343"/>
</svg>
