<svg width="41" height="31" viewBox="0 0 41 31" fill="none" xmlns="http://www.w3.org/2000/svg">
<path d="M0.75 0.25H40.4559V30.25H0.75V0.25Z" fill="#000066"/>
<path d="M0.75 0.25V2.16188L23.865 17.3508H26.7746V15.4389L3.65957 0.25H0.75ZM26.7746 0.25V2.16188L3.65957 17.3507H0.75V15.4389L23.865 0.25H26.7746Z" fill="white"/>
<path d="M11.5936 0.25V17.3507H15.931V0.25H11.5936V0.25ZM0.75 5.95025V11.6505H26.7746V5.95025H0.75Z" fill="white"/>
<path d="M0.75 7.09031V10.5104H26.7746V7.09031H0.75ZM12.4611 0.25V17.3507H15.0635V0.25H12.4611ZM0.75 17.3507L9.42487 11.6505H11.3646L2.68976 17.3507H0.75ZM0.75 0.25L9.42487 5.95025H7.48511L0.75 1.52462V0.25ZM16.16 5.95025L24.8349 0.25H26.7746L18.0997 5.95025H16.16ZM26.7745 17.3507L18.0997 11.6505H20.0394L26.7745 16.0761V17.3507Z" fill="#CC0000"/>
<path fill-rule="evenodd" clip-rule="evenodd" d="M8.53678 26.2799L6.83203 26.1306L8.30345 25.2508L7.35671 23.8151L8.95673 24.4254L9.48085 22.7843L10.0049 24.4254L11.6049 23.8149L10.6582 25.2507L12.1295 26.1305L10.4249 26.2799L10.6597 27.9874L9.48085 26.7378L8.30196 27.9874L8.53678 26.2799ZM31.284 28.1059L30.0838 28.0007L31.1198 27.3811L30.4529 26.3703L31.5799 26.8001L31.9486 25.6445L32.3173 26.8001L33.4442 26.3703L32.7774 27.3811L33.8134 28.0007L32.6131 28.1059L32.7788 29.3078L31.9486 28.4283L31.1183 29.3079L31.284 28.1059ZM31.284 10.1199L30.0838 10.0147L31.1198 9.39519L30.4529 8.38425L31.5799 8.81413L31.9486 7.65869L32.3173 8.81419L33.4442 8.38432L32.7774 9.39525L33.8134 10.0148L32.6131 10.12L32.7788 11.322L31.9486 10.4424L31.1183 11.3219L31.284 10.1199ZM24.5889 17.4268L23.3886 17.3215L24.4246 16.7019L23.7578 15.6911L24.8848 16.1209L25.2535 14.9653L25.6222 16.1209L26.7491 15.6911L26.0823 16.7019L27.1183 17.3215L25.918 17.4268L26.0837 18.6286L25.2535 17.7491L24.4232 18.6287L24.5889 17.4268ZM37.2333 15.6281L36.0349 15.5229L37.0727 14.9033L36.4045 13.8924L37.5324 14.3223L37.8985 13.1667L38.2689 14.3223L39.3937 13.8924L38.7286 14.9033L39.7642 15.5229L38.5635 15.628L38.7286 16.8299L37.8984 15.9505L37.0683 16.8299L37.2333 15.6281ZM35.688 19.3558L35.0985 19.8571L35.2827 20.6121L34.6267 20.2024L33.9706 20.6121L34.1548 19.8571L33.5653 19.3559L34.3352 19.2987L34.6267 18.5788L34.9181 19.2987" fill="white"/>
</svg>
