<svg width="19" height="18" viewBox="0 0 19 18" fill="none" xmlns="http://www.w3.org/2000/svg">
<path d="M8.72453 5.90698C9.11506 6.2975 9.74822 6.2975 10.1387 5.90698L15.7248 0.320877C16.1154 -0.0696474 16.7485 -0.0696479 17.1391 0.320876L17.7245 0.906348C18.1151 1.29687 18.1151 1.93004 17.7245 2.32056L12.1384 7.90666C11.7479 8.29719 11.7479 8.93035 12.1384 9.32088L17.7245 14.907C18.1151 15.2975 18.1151 15.9307 17.7245 16.3212L17.1391 16.9067C16.7485 17.2972 16.1154 17.2972 15.7248 16.9067L10.1387 11.3206C9.74822 10.93 9.11506 10.93 8.72453 11.3206L3.13843 16.9067C2.74791 17.2972 2.11474 17.2972 1.72422 16.9067L1.13875 16.3212C0.748224 15.9307 0.748223 15.2975 1.13875 14.907L6.72485 9.32088C7.11537 8.93035 7.11537 8.29719 6.72485 7.90666L1.13875 2.32056C0.748224 1.93004 0.748223 1.29687 1.13875 0.906348L1.72422 0.320877C2.11474 -0.0696475 2.74791 -0.069648 3.13843 0.320876L8.72453 5.90698Z" fill="#444444"/>
</svg>
