<svg width="19" height="18" viewBox="0 0 19 18" fill="none" xmlns="http://www.w3.org/2000/svg">
<path d="M8.74992 5.90063C9.14045 6.29115 9.77361 6.29115 10.1641 5.90063L15.7502 0.314529C16.1408 -0.0759951 16.7739 -0.0759955 17.1645 0.314529L17.7499 0.9C18.1404 1.29052 18.1404 1.92369 17.7499 2.31421L12.1638 7.90031C11.7733 8.29084 11.7733 8.924 12.1638 9.31453L17.7499 14.9006C18.1404 15.2912 18.1404 15.9243 17.7499 16.3148L17.1645 16.9003C16.7739 17.2908 16.1408 17.2908 15.7502 16.9003L10.1641 11.3142C9.77361 10.9237 9.14045 10.9237 8.74992 11.3142L3.16382 16.9003C2.7733 17.2908 2.14013 17.2908 1.74961 16.9003L1.16414 16.3148C0.773614 15.9243 0.773614 15.2912 1.16414 14.9006L6.75024 9.31453C7.14076 8.924 7.14076 8.29084 6.75024 7.90031L1.16414 2.31421C0.773614 1.92369 0.773614 1.29053 1.16414 0.900001L1.74961 0.314529C2.14013 -0.0759952 2.7733 -0.0759956 3.16382 0.314529L8.74992 5.90063Z" fill="#444444"/>
</svg>
