<svg width="25" height="25" viewBox="0 0 25 25" fill="none" xmlns="http://www.w3.org/2000/svg">
<path d="M12.0508 22.8359C6.52778 22.8359 2.05078 18.3589 2.05078 12.8359C2.05078 7.31294 6.52778 2.83594 12.0508 2.83594C17.5738 2.83594 22.0508 7.31294 22.0508 12.8359C22.0508 18.3589 17.5738 22.8359 12.0508 22.8359ZM12.0508 20.8359C14.1725 20.8359 16.2073 19.9931 17.7076 18.4928C19.2079 16.9925 20.0508 14.9577 20.0508 12.8359C20.0508 10.7142 19.2079 8.67937 17.7076 7.17908C16.2073 5.67879 14.1725 4.83594 12.0508 4.83594C9.92905 4.83594 7.89422 5.67879 6.39393 7.17908C4.89364 8.67937 4.05078 10.7142 4.05078 12.8359C4.05078 14.9577 4.89364 16.9925 6.39393 18.4928C7.89422 19.9931 9.92905 20.8359 12.0508 20.8359V20.8359ZM11.0508 15.8359H13.0508V17.8359H11.0508V15.8359ZM11.0508 7.83594H13.0508V13.8359H11.0508V7.83594Z" fill="#464343"/>
</svg>
