<svg width="25" height="25" viewBox="0 0 25 25" fill="none" xmlns="http://www.w3.org/2000/svg">
<path d="M12.7272 3.43958C18.1192 3.43958 22.6052 7.31958 23.5462 12.4396C22.6062 17.5596 18.1192 21.4396 12.7272 21.4396C7.3352 21.4396 2.8492 17.5596 1.9082 12.4396C2.8482 7.31958 7.3352 3.43958 12.7272 3.43958ZM12.7272 19.4396C14.7667 19.4391 16.7456 18.7464 18.3401 17.4747C19.9345 16.2031 21.0501 14.4278 21.5042 12.4396C21.0484 10.4529 19.9321 8.67958 18.3378 7.4096C16.7435 6.13962 14.7655 5.4481 12.7272 5.4481C10.6889 5.4481 8.71089 6.13962 7.11658 7.4096C5.52227 8.67958 4.40597 10.4529 3.9502 12.4396C4.4043 14.4278 5.51988 16.2031 7.11435 17.4747C8.70882 18.7464 10.6877 19.4391 12.7272 19.4396V19.4396ZM12.7272 16.9396C11.5337 16.9396 10.3891 16.4655 9.54522 15.6216C8.70131 14.7776 8.2272 13.633 8.2272 12.4396C8.2272 11.2461 8.70131 10.1015 9.54522 9.2576C10.3891 8.41368 11.5337 7.93958 12.7272 7.93958C13.9207 7.93958 15.0653 8.41368 15.9092 9.2576C16.7531 10.1015 17.2272 11.2461 17.2272 12.4396C17.2272 13.633 16.7531 14.7776 15.9092 15.6216C15.0653 16.4655 13.9207 16.9396 12.7272 16.9396ZM12.7272 14.9396C13.3902 14.9396 14.0261 14.6762 14.495 14.2073C14.9638 13.7385 15.2272 13.1026 15.2272 12.4396C15.2272 11.7765 14.9638 11.1406 14.495 10.6718C14.0261 10.203 13.3902 9.93958 12.7272 9.93958C12.0642 9.93958 11.4283 10.203 10.9594 10.6718C10.4906 11.1406 10.2272 11.7765 10.2272 12.4396C10.2272 13.1026 10.4906 13.7385 10.9594 14.2073C11.4283 14.6762 12.0642 14.9396 12.7272 14.9396Z" fill="white"/>
</svg>
