<svg width="25" height="25" viewBox="0 0 25 25" fill="none" xmlns="http://www.w3.org/2000/svg">
<path d="M6.96254 6.89258C5.68758 8.21586 4.90704 9.93773 4.75211 11.7687C4.59718 13.5998 5.07731 15.4283 6.1118 16.947C7.14628 18.4657 8.67205 19.582 10.4327 20.1082C12.1932 20.6344 14.0813 20.5385 15.7795 19.8366C15.8945 19.0866 15.6425 18.3666 15.5395 18.1146C15.3095 17.5546 14.5515 16.5976 13.2865 15.2706C12.9485 14.9156 12.9705 14.6426 13.0915 13.8336L13.1045 13.7426C13.1865 13.1886 13.3245 12.8606 15.1895 12.5646C16.1375 12.4146 16.3865 12.7926 16.7315 13.3176L16.8475 13.4896C17.1755 13.9696 17.4185 14.0796 17.7855 14.2456C17.9505 14.3206 18.1555 14.4156 18.4305 14.5706C19.0825 14.9436 19.0825 15.3646 19.0825 16.2866V16.3916C19.0825 16.7826 19.0445 17.1266 18.9845 17.4256C19.7519 16.4625 20.2866 15.3353 20.5471 14.1318C20.8076 12.9282 20.7868 11.6808 20.4864 10.4866C20.1859 9.29242 19.6139 8.18368 18.8148 7.24671C18.0158 6.30975 17.0113 5.56983 15.8795 5.08458C15.3265 5.45758 14.5675 5.98658 14.3025 6.34958C14.1675 6.53458 13.9755 7.48158 13.3525 7.55958C13.1905 7.57958 12.9715 7.56558 12.7395 7.55058C12.1175 7.51058 11.2675 7.45558 10.9955 8.19458C10.8225 8.66258 10.7925 9.93457 11.3515 10.5946C11.4415 10.6996 11.4585 10.8946 11.3975 11.1136C11.3175 11.4006 11.1565 11.5756 11.1055 11.6116C11.0095 11.5556 10.8175 11.3326 10.6865 11.1816C10.3735 10.8166 9.98154 10.3616 9.47554 10.2216C9.29154 10.1706 9.08954 10.1286 8.89254 10.0866C8.34354 9.97158 7.72254 9.84058 7.57754 9.53258C7.47154 9.30658 7.47254 8.99557 7.47254 8.66757C7.47254 8.25057 7.47254 7.77958 7.26854 7.32258C7.19762 7.15948 7.09339 7.01302 6.96254 6.89258V6.89258ZM12.7275 22.4396C7.20454 22.4396 2.72754 17.9626 2.72754 12.4396C2.72754 6.91658 7.20454 2.43958 12.7275 2.43958C18.2505 2.43958 22.7275 6.91658 22.7275 12.4396C22.7275 17.9626 18.2505 22.4396 12.7275 22.4396Z" fill="white"/>
</svg>
