<svg width="16" height="16" viewBox="0 0 16 16" fill="none" xmlns="http://www.w3.org/2000/svg">
<path fill-rule="evenodd" clip-rule="evenodd" d="M8.70059 8.19238V1.47559H7.20059V8.19238H0.962891V9.69238H7.20059V15.4756H8.70059V9.69238H14.9629V8.19238H8.70059Z" fill="#444444"/>
<path d="M8.70059 1.47559H9.20059V0.975586H8.70059V1.47559ZM8.70059 8.19238H8.20059V8.69238H8.70059V8.19238ZM7.20059 1.47559V0.975586H6.70059V1.47559H7.20059ZM7.20059 8.19238V8.69238H7.70059V8.19238H7.20059ZM0.962891 8.19238V7.69238H0.462891V8.19238H0.962891ZM0.962891 9.69238H0.462891V10.1924H0.962891V9.69238ZM7.20059 9.69238H7.70059V9.19238H7.20059V9.69238ZM7.20059 15.4756H6.70059V15.9756H7.20059V15.4756ZM8.70059 15.4756V15.9756H9.20059V15.4756H8.70059ZM8.70059 9.69238V9.19238H8.20059V9.69238H8.70059ZM14.9629 9.69238V10.1924H15.4629V9.69238H14.9629ZM14.9629 8.19238H15.4629V7.69238H14.9629V8.19238ZM8.20059 1.47559V8.19238H9.20059V1.47559H8.20059ZM7.20059 1.97559H8.70059V0.975586H7.20059V1.97559ZM7.70059 8.19238V1.47559H6.70059V8.19238H7.70059ZM0.962891 8.69238H7.20059V7.69238H0.962891V8.69238ZM1.46289 9.69238V8.19238H0.462891V9.69238H1.46289ZM7.20059 9.19238H0.962891V10.1924H7.20059V9.19238ZM7.70059 15.4756V9.69238H6.70059V15.4756H7.70059ZM8.70059 14.9756H7.20059V15.9756H8.70059V14.9756ZM8.20059 9.69238V15.4756H9.20059V9.69238H8.20059ZM14.9629 9.19238H8.70059V10.1924H14.9629V9.19238ZM14.4629 8.19238V9.69238H15.4629V8.19238H14.4629ZM8.70059 8.69238H14.9629V7.69238H8.70059V8.69238Z" fill="#444444"/>
</svg>
