<svg width="27" height="21" viewBox="0 0 27 21" fill="none" xmlns="http://www.w3.org/2000/svg">
<path fill-rule="evenodd" clip-rule="evenodd" d="M0 13.8459H27V20.6674H0V13.8459Z" fill="#DA0000"/>
<path fill-rule="evenodd" clip-rule="evenodd" d="M0 0H27V6.82139H0V0Z" fill="#239F40"/>
<path fill-rule="evenodd" clip-rule="evenodd" d="M0 6.9231H27V13.7445H0V6.9231Z" fill="white"/>
<path fill-rule="evenodd" clip-rule="evenodd" d="M13.9447 8.01147C14.2876 8.43173 15.3446 10.7558 13.3067 12.2781C12.3485 12.9992 12.9418 13.0356 12.9701 13.1568C14.5102 12.3388 15.0132 11.2304 15.0015 10.2376C14.9897 9.24469 14.4634 8.36743 13.9447 8.01164V8.01147Z" fill="#DA0000"/>
<path fill-rule="evenodd" clip-rule="evenodd" d="M14.1481 7.90332C14.9087 8.29274 16.5639 10.2512 14.7823 12.4605C15.8893 12.2149 17.2966 8.95505 14.1481 7.90332ZM11.8123 7.90332C11.0518 8.29274 9.39658 10.2512 11.1781 12.4605C10.0712 12.2149 8.6639 8.95505 11.8123 7.90332Z" fill="#DA0000"/>
<path fill-rule="evenodd" clip-rule="evenodd" d="M12.0121 8.01147C11.6692 8.43173 10.6121 10.7558 12.6502 12.2781C13.6082 12.9992 13.015 13.0356 12.9866 13.1568C11.4466 12.3388 10.9436 11.2304 10.9553 10.2376C10.967 9.24469 11.4934 8.36743 12.0121 8.01164L12.0121 8.01147Z" fill="#DA0000"/>
<path fill-rule="evenodd" clip-rule="evenodd" d="M14.9347 12.9448C14.3319 12.9544 13.572 12.8618 13.0084 12.5689C13.1012 12.7494 13.1783 12.8631 13.2711 13.0435C13.8086 13.0931 14.5503 13.1544 14.9347 12.9448H14.9347ZM11.0821 12.9448C11.6849 12.9544 12.4448 12.8618 13.0084 12.5689C12.9155 12.7494 12.8384 12.8631 12.7456 13.0435C12.2081 13.0931 11.4664 13.1544 11.082 12.9448H11.0821ZM12.1878 7.31787C12.3099 7.64247 12.6303 7.68965 12.9733 7.49855C13.2232 7.64852 13.6098 7.65797 13.7431 7.33357C13.8444 8.13611 13.0005 7.94626 12.9691 7.78915C12.6549 8.09286 12.07 7.91746 12.1878 7.31787H12.1878Z" fill="#DA0000"/>
<path fill-rule="evenodd" clip-rule="evenodd" d="M12.9949 13.4501L13.3118 13.0879L13.3571 8.21288L12.9798 7.88086L12.6025 8.19779L12.678 13.1029L12.9949 13.4501V13.4501Z" fill="#DA0000"/>
</svg>
