<svg id="Camada_1" data-name="Camada 1" xmlns="http://www.w3.org/2000/svg" xmlns:xlink="http://www.w3.org/1999/xlink" viewBox="0 0 1500 1500"><defs><style>.cls-1{fill:#252524;}.cls-2{fill:#f0ede6;}.cls-3{fill:#ff4500;}.cls-4{fill:url(#Gradiente_sem_nome_157);}.cls-5{fill:url(#Gradiente_sem_nome_155);}</style><linearGradient id="Gradiente_sem_nome_157" x1="627.54" y1="757.87" x2="724.44" y2="675.37" gradientUnits="userSpaceOnUse"><stop offset="0" stop-color="#ff4500"/><stop offset="0.15" stop-color="#ff4906"/><stop offset="0.34" stop-color="#ff5516"/><stop offset="0.55" stop-color="#ff6931"/><stop offset="0.78" stop-color="#ff8457"/><stop offset="1" stop-color="#ffa280"/></linearGradient><linearGradient id="Gradiente_sem_nome_155" x1="522.76" y1="765.46" x2="619.66" y2="682.97" gradientTransform="translate(1347.57 1447.48) rotate(180)" xlink:href="#Gradiente_sem_nome_157"/></defs><rect class="cls-1" width="1500" height="1500"/><path class="cls-2" d="M368.12,705.74a35.71,35.71,0,0,0-7.76-11.59,36.09,36.09,0,0,0-11.77-7.81,38.27,38.27,0,0,0-14.91-2.84,37.27,37.27,0,0,0-14.88,2.91,36.27,36.27,0,0,0-19.61,19.53,36,36,0,0,0-2.84,14.22,35.39,35.39,0,0,0,2.79,14.11,35.78,35.78,0,0,0,19.52,19.34,39.87,39.87,0,0,0,29.73-.07,36.33,36.33,0,0,0,19.66-19.46,35.66,35.66,0,0,0,2.85-14.17A36.25,36.25,0,0,0,368.12,705.74Zm-14.83,23.11a20.91,20.91,0,0,1-4.21,7.08,20.26,20.26,0,0,1-6.64,4.83,20.57,20.57,0,0,1-8.76,1.79,19.93,19.93,0,0,1-8.48-1.79,21.09,21.09,0,0,1-6.71-4.83,22.18,22.18,0,0,1-4.41-7.22,24.91,24.91,0,0,1-1.58-8.8,25.33,25.33,0,0,1,1.45-8.67,21,21,0,0,1,4.21-7.09,20.08,20.08,0,0,1,6.64-4.83,21.56,21.56,0,0,1,17.25,0,20.26,20.26,0,0,1,6.7,4.9,22.23,22.23,0,0,1,4.41,7.22,24,24,0,0,1,1.58,8.72A25.48,25.48,0,0,1,353.29,728.85Z"/><polygon class="cls-2" points="433.25 684.95 414.31 736.32 395.51 684.95 378.29 684.95 407.02 755.39 421.45 755.39 450.06 684.95 433.25 684.95"/><path class="cls-2" d="M525.67,706.8a35.7,35.7,0,0,0-6.28-12.06,30.5,30.5,0,0,0-10.47-8.21,33.48,33.48,0,0,0-14.63-3,32,32,0,0,0-13.77,2.91,33.82,33.82,0,0,0-10.79,7.88,35.46,35.46,0,0,0-7.08,11.58A39.54,39.54,0,0,0,460.12,720a38.55,38.55,0,0,0,2.78,14.9,34.73,34.73,0,0,0,7.62,11.45,34.32,34.32,0,0,0,11.4,7.42A37.3,37.3,0,0,0,496,756.45a36,36,0,0,0,16.62-3.57,38.83,38.83,0,0,0,12-9.54l-9.4-8.35a33.61,33.61,0,0,1-8.61,6.23,23.3,23.3,0,0,1-10.32,2.12A19.92,19.92,0,0,1,483,738.78c-3.61-3-5.92-7.44-6.88-13.18h51.37c.09-.79.16-1.54.2-2.26s.07-1.4.07-2.12A48.85,48.85,0,0,0,525.67,706.8ZM476,715a22.92,22.92,0,0,1,5.91-13.31,16.12,16.12,0,0,1,12.24-5.09,16.56,16.56,0,0,1,7.08,1.45,16.9,16.9,0,0,1,5.36,3.9,18.67,18.67,0,0,1,3.58,5.83A27.32,27.32,0,0,1,511.9,715Z"/><path class="cls-2" d="M572.9,688a30.91,30.91,0,0,0-9.41,12.71V685H547.35v69.92h16.14V728.24a38.91,38.91,0,0,1,1.72-12.1,23.58,23.58,0,0,1,4.9-8.69,20.17,20.17,0,0,1,7.56-5.15,26.07,26.07,0,0,1,9.66-1.73h.93V683.63Q579,683.23,572.9,688Z"/><path class="cls-2" d="M914.35,688a30.82,30.82,0,0,0-9.41,12.71V684.91H888.8v69.91h16.14V728.2a38.6,38.6,0,0,1,1.73-12.1,23.3,23.3,0,0,1,4.9-8.69,20.18,20.18,0,0,1,7.54-5.15,26.18,26.18,0,0,1,9.68-1.73h.91V683.58C923.53,683.32,918.4,684.77,914.35,688Z"/><path class="cls-2" d="M990.14,684.91v39.36q0,8.21-4.33,12.76a14.87,14.87,0,0,1-11.29,4.55c-4.73,0-8.37-1.47-11-4.42s-3.87-7.17-3.87-12.62V684.91H943.53V729.4q0,12.32,6.47,19.59t18.36,7.29q8.05,0,13.19-3.67a34.35,34.35,0,0,0,8.59-8.76v11h16.16V684.91Z"/><polygon class="cls-2" points="1023.1 664.56 1023.1 754.83 1039.26 754.83 1039.26 664.6 1023.1 664.56"/><path class="cls-2" d="M1117.51,706.76a35.91,35.91,0,0,0-6.3-12.06,30.19,30.19,0,0,0-10.46-8.21,33.31,33.31,0,0,0-14.63-3,32,32,0,0,0-13.77,2.91,33.82,33.82,0,0,0-10.79,7.88,35.48,35.48,0,0,0-7.09,11.58A39.53,39.53,0,0,0,1052,720a38.55,38.55,0,0,0,2.78,14.9,33.84,33.84,0,0,0,19,18.87,37.36,37.36,0,0,0,14.11,2.64,35.77,35.77,0,0,0,16.6-3.58,38.85,38.85,0,0,0,12-9.53L1107,735a33.57,33.57,0,0,1-8.6,6.23,23.56,23.56,0,0,1-10.34,2.12,19.92,19.92,0,0,1-13.23-4.56q-5.43-4.57-6.9-13.18h51.39c.08-.79.15-1.54.19-2.26s.07-1.4.07-2.12A48.8,48.8,0,0,0,1117.51,706.76ZM1067.85,715a23,23,0,0,1,5.89-13.31,16.13,16.13,0,0,1,12.24-5.1,16.4,16.4,0,0,1,7.09,1.46,17.06,17.06,0,0,1,5.37,3.9,18.61,18.61,0,0,1,3.57,5.83,27.32,27.32,0,0,1,1.72,7.22Z"/><path class="cls-2" d="M1187.49,665v30.79a39.08,39.08,0,0,0-9.51-8.6q-5.67-3.7-14.26-3.7a32,32,0,0,0-12.09,2.37,29.53,29.53,0,0,0-10.37,7.09,35.41,35.41,0,0,0-7.2,11.45,41.3,41.3,0,0,0-2.72,15.5,40.49,40.49,0,0,0,2.79,15.49,36.5,36.5,0,0,0,7.26,11.46,29.48,29.48,0,0,0,10.31,7.07,31.17,31.17,0,0,0,12,2.39q8.44,0,14.19-3.84a36.32,36.32,0,0,0,9.58-9.27v11.65h16.16V665Zm-1.39,64.16a22.7,22.7,0,0,1-4.42,7.09,19,19,0,0,1-6.47,4.57,19.46,19.46,0,0,1-15.36,0,19.53,19.53,0,0,1-6.42-4.51,21.09,21.09,0,0,1-4.35-7.08,26.28,26.28,0,0,1-1.58-9.33,26.73,26.73,0,0,1,1.58-9.48,21.29,21.29,0,0,1,4.35-7.08,18.87,18.87,0,0,1,6.42-4.43,19.58,19.58,0,0,1,7.71-1.53,19.11,19.11,0,0,1,7.65,1.59,18.83,18.83,0,0,1,6.47,4.57,22.77,22.77,0,0,1,4.42,7.08,26.71,26.71,0,0,1,0,18.54Z"/><path class="cls-2" d="M297.29,844.27a13.13,13.13,0,0,0,6.66,1.88c3.79,0,6-2,6-4.91,0-2.68-1.54-4.22-5.42-5.71-4.69-1.66-7.59-4.09-7.59-8.15,0-4.47,3.71-7.8,9.3-7.8A13,13,0,0,1,312.6,821l-1,3a11.5,11.5,0,0,0-5.46-1.36c-3.92,0-5.42,2.35-5.42,4.31,0,2.68,1.75,4,5.72,5.54,4.86,1.88,7.33,4.22,7.33,8.45,0,4.43-3.28,8.27-10.06,8.27a14.82,14.82,0,0,1-7.34-1.84ZM336,843.16c0,2.14,0,4,.17,5.63h-3.33l-.21-3.37h-.09a7.74,7.74,0,0,1-6.82,3.84c-3.24,0-7.12-1.79-7.12-9V828.15h3.75v11.43c0,3.92,1.19,6.57,4.61,6.57a5.42,5.42,0,0,0,4.94-3.41,5.6,5.6,0,0,0,.34-1.92V828.15H336Zm5.71,1.79a9.79,9.79,0,0,0,4.95,1.5c2.73,0,4-1.37,4-3.07s-1.07-2.78-3.84-3.8c-3.71-1.32-5.46-3.37-5.46-5.84,0-3.33,2.69-6.06,7.12-6.06a10.34,10.34,0,0,1,5.08,1.28l-.94,2.73a8,8,0,0,0-4.22-1.19c-2.22,0-3.46,1.28-3.46,2.81,0,1.71,1.24,2.48,3.93,3.5,3.58,1.36,5.41,3.15,5.41,6.22,0,3.63-2.81,6.19-7.71,6.19a11.78,11.78,0,0,1-5.8-1.41Zm21.93-22.73v5.93H369V831h-5.37v11.13c0,2.56.72,4,2.81,4a8.28,8.28,0,0,0,2.18-.26l.17,2.82a9.2,9.2,0,0,1-3.33.51,5.2,5.2,0,0,1-4.05-1.58c-1.07-1.11-1.45-2.94-1.45-5.37V831h-3.2v-2.86H360v-4.94Zm21,26.57-.3-2.6h-.12a7.71,7.71,0,0,1-6.32,3.07c-4.17,0-6.31-2.94-6.31-5.93,0-5,4.44-7.72,12.41-7.67v-.43c0-1.71-.47-4.78-4.69-4.78a10.26,10.26,0,0,0-5.37,1.54l-.85-2.47a12.76,12.76,0,0,1,6.78-1.84c6.31,0,7.84,4.31,7.84,8.45v7.72a29.63,29.63,0,0,0,.34,4.94Zm-.55-10.53c-4.1-.09-8.74.64-8.74,4.65a3.32,3.32,0,0,0,3.54,3.58,5.12,5.12,0,0,0,5-3.46,3.84,3.84,0,0,0,.22-1.19ZM398,822.35a2.33,2.33,0,0,1-4.65,0,2.28,2.28,0,0,1,2.35-2.34A2.22,2.22,0,0,1,398,822.35Zm-4.18,26.44V828.15h3.75v20.64Zm10-15c0-2.13,0-3.88-.17-5.59h3.33l.21,3.41h.09a7.58,7.58,0,0,1,6.82-3.88c2.86,0,7.29,1.71,7.29,8.79v12.32h-3.75v-11.9c0-3.32-1.24-6.09-4.78-6.09a5.33,5.33,0,0,0-5,3.83,5.43,5.43,0,0,0-.25,1.75v12.41h-3.76Zm27.85-11.39a2.2,2.2,0,0,1-2.38,2.3,2.23,2.23,0,0,1-2.27-2.3A2.29,2.29,0,0,1,429.3,820,2.22,2.22,0,0,1,431.6,822.35Zm-4.18,26.44V828.15h3.76v20.64Zm10-15c0-2.13,0-3.88-.17-5.59h3.33l.21,3.41h.09a7.58,7.58,0,0,1,6.82-3.88c2.86,0,7.29,1.71,7.29,8.79v12.32h-3.75v-11.9c0-3.32-1.23-6.09-4.77-6.09a5.33,5.33,0,0,0-5,3.83,5.43,5.43,0,0,0-.25,1.75v12.41H437.4Zm41.46-5.59c-.09,1.49-.17,3.16-.17,5.67v12c0,4.73-.94,7.63-2.94,9.42s-4.91,2.48-7.51,2.48a13.35,13.35,0,0,1-6.87-1.71l.94-2.86a11.6,11.6,0,0,0,6.06,1.62c3.84,0,6.65-2,6.65-7.2v-2.31h-.08a7.37,7.37,0,0,1-6.57,3.46c-5.12,0-8.79-4.35-8.79-10.07,0-7,4.57-11,9.3-11a6.88,6.88,0,0,1,6.44,3.58h.09l.17-3.11ZM475,836.3a5.47,5.47,0,0,0-5.46-5.67c-3.58,0-6.14,3-6.14,7.8,0,4.05,2.05,7.42,6.1,7.42a5.48,5.48,0,0,0,5.2-3.84,6.6,6.6,0,0,0,.3-2Zm39.19,11.55a18.24,18.24,0,0,1-7.59,1.37c-8.1,0-14.2-5.12-14.2-14.54,0-9,6.1-15.1,15-15.1a15.44,15.44,0,0,1,6.83,1.28l-.9,3a13.55,13.55,0,0,0-5.8-1.2c-6.74,0-11.21,4.31-11.21,11.86,0,7,4.05,11.55,11,11.55a14.82,14.82,0,0,0,6.06-1.19Zm22.74-9.55c0,7.63-5.29,11-10.28,11-5.58,0-9.89-4.09-9.89-10.62,0-6.91,4.52-11,10.23-11C532.9,827.68,536.91,832,536.91,838.3Zm-16.38.21c0,4.52,2.6,7.94,6.27,7.94s6.27-3.37,6.27-8c0-3.5-1.75-7.93-6.18-7.93S520.53,834.59,520.53,838.51Zm21.12-4.77c0-2.13,0-3.88-.17-5.59h3.28l.17,3.33h.13a7.12,7.12,0,0,1,6.48-3.8,6.1,6.1,0,0,1,5.84,4.14h.09a8.57,8.57,0,0,1,2.3-2.69,7,7,0,0,1,4.56-1.45c2.73,0,6.78,1.79,6.78,9v12.15h-3.66V837.11c0-4-1.45-6.36-4.48-6.36a4.87,4.87,0,0,0-4.44,3.41,6.29,6.29,0,0,0-.29,1.88v12.75h-3.67V836.43c0-3.29-1.45-5.68-4.31-5.68a5.14,5.14,0,0,0-4.65,3.76,5.21,5.21,0,0,0-.3,1.83v12.45h-3.66Zm35.57,1.15c0-2.64-.09-4.78-.17-6.74h3.37l.17,3.54h.08a8.12,8.12,0,0,1,7.34-4c5,0,8.74,4.22,8.74,10.49,0,7.42-4.52,11.09-9.38,11.09A7.24,7.24,0,0,1,581,846h-.08v11.22h-3.71Zm3.71,5.5a8.06,8.06,0,0,0,.17,1.54,5.79,5.79,0,0,0,5.63,4.39c4,0,6.27-3.24,6.27-8,0-4.13-2.18-7.67-6.14-7.67a6,6,0,0,0-5.68,4.65,6.44,6.44,0,0,0-.25,1.53Zm20.56-21.88h3.75v30.28h-3.75Zm14.24,3.84a2.33,2.33,0,0,1-4.65,0,2.28,2.28,0,0,1,2.35-2.34A2.22,2.22,0,0,1,615.73,822.35Zm-4.18,26.44V828.15h3.76v20.64Zm21.41,0-.3-2.6h-.12a7.71,7.71,0,0,1-6.32,3.07c-4.18,0-6.31-2.94-6.31-5.93,0-5,4.44-7.72,12.41-7.67v-.43c0-1.71-.47-4.78-4.69-4.78a10.26,10.26,0,0,0-5.37,1.54l-.86-2.47a12.82,12.82,0,0,1,6.79-1.84c6.31,0,7.84,4.31,7.84,8.45v7.72a29.63,29.63,0,0,0,.34,4.94Zm-.55-10.53c-4.1-.09-8.75.64-8.75,4.65a3.32,3.32,0,0,0,3.54,3.58,5.13,5.13,0,0,0,5-3.46,3.84,3.84,0,0,0,.22-1.19Zm9.68-4.52c0-2.13,0-3.88-.17-5.59h3.33l.21,3.41h.09a7.58,7.58,0,0,1,6.82-3.88c2.86,0,7.29,1.71,7.29,8.79v12.32h-3.75v-11.9c0-3.32-1.24-6.09-4.78-6.09a5.33,5.33,0,0,0-5,3.83,5.42,5.42,0,0,0-.26,1.75v12.41h-3.75ZM680.48,848a13.7,13.7,0,0,1-5.93,1.2c-6.23,0-10.28-4.22-10.28-10.54s4.35-10.95,11.09-10.95a12.55,12.55,0,0,1,5.2,1.06l-.85,2.9a8.73,8.73,0,0,0-4.35-1c-4.74,0-7.29,3.5-7.29,7.8,0,4.78,3.07,7.72,7.16,7.72a10.7,10.7,0,0,0,4.61-1Zm6.22-8.87c.09,5.08,3.33,7.17,7.08,7.17a13.54,13.54,0,0,0,5.72-1.07l.64,2.69a16.66,16.66,0,0,1-6.87,1.28c-6.35,0-10.15-4.18-10.15-10.41s3.67-11.13,9.68-11.13c6.74,0,8.53,5.93,8.53,9.73a12.66,12.66,0,0,1-.13,1.74Zm11-2.68c0-2.39-1-6.1-5.2-6.1-3.8,0-5.46,3.5-5.76,6.1Zm21.5-14.12a2.33,2.33,0,0,1-4.65,0A2.28,2.28,0,0,1,716.9,820,2.23,2.23,0,0,1,719.21,822.35ZM715,848.79V828.15h3.75v20.64Zm10-15c0-2.13,0-3.88-.17-5.59h3.32l.22,3.41h.08a7.58,7.58,0,0,1,6.82-3.88c2.86,0,7.3,1.71,7.3,8.79v12.32h-3.76v-11.9c0-3.32-1.23-6.09-4.77-6.09a5.33,5.33,0,0,0-5,3.83,5.43,5.43,0,0,0-.25,1.75v12.41H725Zm44.14,15-.3-2.6h-.13a7.69,7.69,0,0,1-6.31,3.07c-4.18,0-6.31-2.94-6.31-5.93,0-5,4.43-7.72,12.41-7.67v-.43c0-1.71-.47-4.78-4.69-4.78a10.29,10.29,0,0,0-5.38,1.54l-.85-2.47a12.81,12.81,0,0,1,6.78-1.84c6.31,0,7.85,4.31,7.85,8.45v7.72a28.6,28.6,0,0,0,.34,4.94Zm-.56-10.53c-4.09-.09-8.74.64-8.74,4.65a3.32,3.32,0,0,0,3.54,3.58,5.14,5.14,0,0,0,5-3.46,3.83,3.83,0,0,0,.21-1.19Zm22,10.53-7.3-28.74h3.93l3.41,14.54c.85,3.58,1.62,7.17,2.13,9.94h.08c.47-2.86,1.37-6.27,2.35-10l3.84-14.5h3.88l3.5,14.58c.81,3.42,1.57,6.83,2,9.86h.09c.59-3.16,1.4-6.36,2.3-9.94l3.79-14.5h3.8l-8.15,28.74h-3.88l-3.62-15a86.67,86.67,0,0,1-1.88-9.38h-.08a93.48,93.48,0,0,1-2.22,9.38l-4.09,15Zm48.53-10.49c0,7.63-5.29,11-10.28,11-5.58,0-9.89-4.09-9.89-10.62,0-6.91,4.52-11,10.23-11C835.13,827.68,839.14,832,839.14,838.3Zm-16.37.21c0,4.52,2.6,7.94,6.26,7.94s6.27-3.37,6.27-8c0-3.5-1.75-7.93-6.18-7.93S822.77,834.59,822.77,838.51Zm21.11-3.92c0-2.43,0-4.52-.17-6.44H847l.13,4.05h.17a6.2,6.2,0,0,1,5.71-4.52,4.29,4.29,0,0,1,1.07.13v3.54a5.37,5.37,0,0,0-1.28-.13c-2.64,0-4.52,2-5,4.82a10.08,10.08,0,0,0-.17,1.75v11h-3.71ZM858,818.51h3.75v30.28H858Zm27.89,0v25c0,1.84,0,3.92.17,5.33h-3.37l-.17-3.58h-.09a7.63,7.63,0,0,1-7,4c-5,0-8.83-4.22-8.83-10.49,0-6.87,4.22-11.09,9.25-11.09a6.89,6.89,0,0,1,6.23,3.16h.08V818.51Zm-3.76,18A6.54,6.54,0,0,0,882,835a5.51,5.51,0,0,0-5.41-4.34c-3.88,0-6.19,3.41-6.19,8,0,4.18,2,7.63,6.1,7.63a5.63,5.63,0,0,0,5.5-4.47,6.5,6.5,0,0,0,.17-1.62Zm37.71,1.75c0,7.63-5.29,11-10.28,11-5.59,0-9.89-4.09-9.89-10.62,0-6.91,4.52-11,10.23-11C915.83,827.68,919.84,832,919.84,838.3Zm-16.38.21c0,4.52,2.6,7.94,6.27,7.94s6.27-3.37,6.27-8c0-3.5-1.75-7.93-6.18-7.93S903.46,834.59,903.46,838.51ZM925,848.79V831h-2.9v-2.86H925v-1c0-2.9.64-5.54,2.39-7.21a7.18,7.18,0,0,1,5-1.92,8.7,8.7,0,0,1,3.2.6l-.51,2.9a5.75,5.75,0,0,0-2.39-.47c-3.2,0-4,2.82-4,6v1.11h5V831h-5v17.78Zm41.33-.94a18.33,18.33,0,0,1-7.6,1.37c-8.1,0-14.2-5.12-14.2-14.54,0-9,6.1-15.1,15-15.1a15.42,15.42,0,0,1,6.82,1.28l-.9,3a13.51,13.51,0,0,0-5.8-1.2c-6.73,0-11.21,4.31-11.21,11.86,0,7,4.05,11.55,11,11.55a14.78,14.78,0,0,0,6.06-1.19ZM989,838.3c0,7.63-5.29,11-10.28,11-5.59,0-9.89-4.09-9.89-10.62,0-6.91,4.52-11,10.23-11C985,827.68,989,832,989,838.3Zm-16.38.21c0,4.52,2.6,7.94,6.27,7.94s6.27-3.37,6.27-8c0-3.5-1.75-7.93-6.18-7.93S972.64,834.59,972.64,838.51Zm21.12-4.77c0-2.13,0-3.88-.17-5.59h3.28l.17,3.33h.13a7.12,7.12,0,0,1,6.48-3.8,6.09,6.09,0,0,1,5.84,4.14h.09a8.57,8.57,0,0,1,2.3-2.69,7,7,0,0,1,4.56-1.45c2.73,0,6.78,1.79,6.78,9v12.15h-3.66V837.11c0-4-1.45-6.36-4.48-6.36a4.87,4.87,0,0,0-4.44,3.41,6.29,6.29,0,0,0-.29,1.88v12.75h-3.67V836.43c0-3.29-1.45-5.68-4.31-5.68a5.14,5.14,0,0,0-4.65,3.76,5.21,5.21,0,0,0-.3,1.83v12.45h-3.66Zm35.57,1.15c0-2.64-.09-4.78-.17-6.74h3.37l.17,3.54h.08a8.12,8.12,0,0,1,7.34-4c5,0,8.74,4.22,8.74,10.49,0,7.42-4.52,11.09-9.38,11.09a7.24,7.24,0,0,1-6.36-3.24H1033v11.22h-3.71Zm3.71,5.5a8.06,8.06,0,0,0,.17,1.54,5.79,5.79,0,0,0,5.63,4.39c4,0,6.27-3.24,6.27-8,0-4.13-2.18-7.67-6.14-7.67a6,6,0,0,0-5.68,4.65,6.44,6.44,0,0,0-.25,1.53Zm20.56-21.88h3.75v30.28h-3.75Zm12.15,20.64c.09,5.08,3.33,7.17,7.08,7.17a13.54,13.54,0,0,0,5.72-1.07l.64,2.69a16.73,16.73,0,0,1-6.87,1.28c-6.35,0-10.15-4.18-10.15-10.41s3.67-11.13,9.68-11.13c6.74,0,8.53,5.93,8.53,9.73a14.5,14.5,0,0,1-.13,1.74Zm11-2.68c0-2.39-1-6.1-5.2-6.1-3.79,0-5.46,3.5-5.76,6.1Zm9.9-8.32,2.94,4.44c.77,1.15,1.41,2.21,2.1,3.37h.12c.69-1.24,1.37-2.31,2-3.42l2.9-4.39h4l-7,10,7.25,10.66h-4.26l-3-4.65c-.81-1.19-1.49-2.34-2.22-3.58h-.08c-.68,1.24-1.41,2.35-2.18,3.58l-3,4.65h-4.14l7.34-10.53-7-10.11Zm27.17-7.72a39,39,0,0,1,7.12-.59c4,0,6.53.72,8.32,2.34a7.16,7.16,0,0,1,2.26,5.46,7.53,7.53,0,0,1-5.42,7.33v.13c2.22.77,3.54,2.82,4.23,5.8.93,4,1.62,6.78,2.21,7.89h-3.83a37,37,0,0,1-1.92-6.86c-.86-4-2.39-5.46-5.76-5.59h-3.5v12.45h-3.71Zm3.71,13.09h3.8c4,0,6.48-2.17,6.48-5.45,0-3.71-2.69-5.33-6.61-5.38a15.37,15.37,0,0,0-3.67.34Zm36.38,9.64c0,2.14,0,4,.17,5.63h-3.32l-.22-3.37h-.08a7.76,7.76,0,0,1-6.82,3.84c-3.25,0-7.13-1.79-7.13-9V828.15h3.76v11.43c0,3.92,1.19,6.57,4.6,6.57a5.43,5.43,0,0,0,5-3.41,5.6,5.6,0,0,0,.34-1.92V828.15h3.75Zm6.23-24.65h3.75v30.28h-3.75Zm12.16,20.64c.08,5.08,3.32,7.17,7.08,7.17a13.52,13.52,0,0,0,5.71-1.07l.64,2.69a16.64,16.64,0,0,1-6.86,1.28c-6.36,0-10.15-4.18-10.15-10.41s3.66-11.13,9.68-11.13c6.73,0,8.53,5.93,8.53,9.73a14.5,14.5,0,0,1-.13,1.74Zm11-2.68c0-2.39-1-6.1-5.2-6.1-3.8,0-5.46,3.5-5.76,6.1Zm7.77,8.48a9.75,9.75,0,0,0,4.94,1.5c2.73,0,4-1.37,4-3.07s-1.07-2.78-3.84-3.8c-3.71-1.32-5.46-3.37-5.46-5.84,0-3.33,2.69-6.06,7.13-6.06a10.33,10.33,0,0,1,5.07,1.28l-.94,2.73a8,8,0,0,0-4.22-1.19c-2.22,0-3.45,1.28-3.45,2.81,0,1.71,1.23,2.48,3.92,3.5,3.58,1.36,5.42,3.15,5.42,6.22,0,3.63-2.82,6.19-7.72,6.19a11.8,11.8,0,0,1-5.8-1.41Z"/><path class="cls-3" d="M790.66,693.92l-30.31,26.35a69.5,69.5,0,0,0-11.91-19.47l-.07-.08-.51-.57a69.48,69.48,0,0,0-97.49-6.43l30.31-26.35a69.54,69.54,0,0,1,110,26.55Z"/><path class="cls-4" d="M747.86,700.15a29.29,29.29,0,0,0-21.68-9.57h-.78a29.32,29.32,0,0,0-18.35,7.07l-.07.07,0,0-47.61,41.38h0l-3.41,3L641.09,755l-4.55,4L631,763.79,627.7,760l-5.49-6.33,4.24-3.68,5.86-5.1-5.53-6.36-3.25-3.74-10.11,8.78-10.1,8.78-8.78-10.1,10.1-8.78,10.11-8.78,35.62-31a69.52,69.52,0,0,1,97.49,6.43ZM602,771.25l8.79,10.1,10.09-8.78-8.78-10.1Zm-27.66-11.43,8.78,10.1,10.1-8.78L584.44,751Zm-11.43,27.67,8.78,10.1,10.1-8.78L573,778.71Z"/><path class="cls-3" d="M661.69,746,692,719.62a69.53,69.53,0,0,0,11.92,19.47l.07.07c.16.2.34.39.51.58A69.44,69.44,0,0,0,802,746.16l-30.31,26.35a69.53,69.53,0,0,1-110-26.54Z"/><path class="cls-5" d="M704.5,739.74a29.26,29.26,0,0,0,21.68,9.56H727a29.25,29.25,0,0,0,18.34-7.08l.08-.06,0,0L793,700.75h0l3.41-3,14.85-12.9,4.55-4,5.55-4.83,3.28,3.78,5.5,6.32-4.24,3.69L820.05,695l5.53,6.37,3.25,3.74,10.1-8.78L849,687.52l8.78,10.11-10.11,8.78-10.1,8.78-35.63,31a69.49,69.49,0,0,1-97.48-6.42Zm145.86-71.1-8.79-10.1-10.1,8.78,8.78,10.1ZM878,680.07,869.24,670l-10.1,8.78,8.78,10.11Zm11.43-27.67-8.79-10.11-10.1,8.78,8.78,10.11Z"/></svg>