<svg xmlns="http://www.w3.org/2000/svg" xmlns:xlink="http://www.w3.org/1999/xlink" width="259.998" height="39.729" viewBox="0 0 259.998 39.729">
  <defs>
    <clipPath id="clip-path">
      <path id="Clip_7" data-name="Clip 7" d="M0,39.728H260V0H0Z" transform="translate(0 0.169)" fill="none"/>
    </clipPath>
  </defs>
  <g id="Logo" transform="translate(0 -0.169)">
    <g id="Group_29" data-name="Group 29">
      <path id="Fill_2" data-name="Fill 2" d="M159.537,24.374a15.024,15.024,0,0,1-5.247-.931,14.412,14.412,0,0,1-4.638-2.861l2.5-2.979a14.636,14.636,0,0,0,3.487,2.285,9.642,9.642,0,0,0,4,.8,5.185,5.185,0,0,0,3.064-.813,2.58,2.58,0,0,0,1.134-2.2,2.9,2.9,0,0,0-.22-1.151,2.3,2.3,0,0,0-.814-.931,7,7,0,0,0-1.63-.8c-.7-.25-1.609-.512-2.7-.778a29.031,29.031,0,0,1-3.379-.982,8.636,8.636,0,0,1-2.477-1.354,5.4,5.4,0,0,1-1.529-1.964,6.762,6.762,0,0,1-.525-2.81,6.552,6.552,0,0,1,.6-2.826A6.692,6.692,0,0,1,152.834,1.9a7.443,7.443,0,0,1,2.544-1.4A10.319,10.319,0,0,1,158.622,0a13.644,13.644,0,0,1,4.689.761,14.03,14.03,0,0,1,3.91,2.218l-2.235,3.148a14.646,14.646,0,0,0-3.217-1.812,8.784,8.784,0,0,0-3.215-.626,4.4,4.4,0,0,0-2.844.829A2.528,2.528,0,0,0,154.7,6.534a2.883,2.883,0,0,0,.237,1.219,2.508,2.508,0,0,0,.864.948,7.074,7.074,0,0,0,1.733.813c.738.249,1.682.511,2.8.778a26.869,26.869,0,0,1,3.307,1.049,8.287,8.287,0,0,1,2.392,1.4,5.573,5.573,0,0,1,1.444,1.93,6.336,6.336,0,0,1,.49,2.589,7.061,7.061,0,0,1-.62,3.012,6.452,6.452,0,0,1-1.732,2.235,7.584,7.584,0,0,1-2.658,1.388A11.725,11.725,0,0,1,159.537,24.374ZM4.16,24.036H0V.169H10.638a12.159,12.159,0,0,1,3.7.529,8.077,8.077,0,0,1,2.8,1.5,6.507,6.507,0,0,1,1.755,2.388A7.881,7.881,0,0,1,19.5,7.739a7.862,7.862,0,0,1-.427,2.677A6.971,6.971,0,0,1,17.9,12.5a7.151,7.151,0,0,1-1.79,1.534,8.973,8.973,0,0,1-2.3.972l6.443,9.033-4.943,0L9.428,15.717,6.8,12h3.514a5.488,5.488,0,0,0,3.592-1.1A3.613,3.613,0,0,0,15.241,7.96a3.559,3.559,0,0,0-1.3-2.994,5.842,5.842,0,0,0-3.66-1.013H4.16V24.035Zm122.913,0h-4.266L133.233.169h3.859l10.426,23.865h-4.4l-.255-.605L141.6,20.419c-2.311-5.509-3.175-7.568-6.5-15.274-2.4,5.594-3.4,7.98-4.569,10.742l0,.009-.008.019c-.843,2-1.8,4.264-3.442,8.121Zm-100.339,0H22.469L32.894.169h3.86L47.18,24.034h-4.4L41.4,20.759l-.188-.449c-2.293-5.465-3.151-7.509-6.459-15.164-2.384,5.563-3.388,7.943-4.55,10.7l0,.005c-.887,2.1-1.8,4.277-3.47,8.187Zm163.846,0h-17.7V10.19h16.012v3.757H177v6.33H190.58v3.757Zm-79.232,0H100.4V.338H111.01a9.054,9.054,0,0,1,5.675,1.63,5.348,5.348,0,0,1,2.093,4.441,6.078,6.078,0,0,1-.288,1.935,5.453,5.453,0,0,1-.733,1.472,5.423,5.423,0,0,1-1.078,1.1,8.711,8.711,0,0,1-1.258.819,12.566,12.566,0,0,1,1.9.858,6.138,6.138,0,0,1,1.479,1.167,4.64,4.64,0,0,1,.959,1.608,6.253,6.253,0,0,1,.338,2.144,6.066,6.066,0,0,1-.625,2.8,5.731,5.731,0,0,1-1.772,2.048,8.4,8.4,0,0,1-2.77,1.247A14.294,14.294,0,0,1,111.347,24.035Zm-6.821-10.19v6.5h6.883a5.905,5.905,0,0,0,3.346-.829,2.8,2.8,0,0,0,1.213-2.454,2.755,2.755,0,0,0-1.2-2.371,6.433,6.433,0,0,0-3.662-.846Zm0-9.816V10.36h5.67a5.83,5.83,0,0,0,3.239-.8,2.755,2.755,0,0,0,1.213-2.466,2.676,2.676,0,0,0-1.061-2.263,5.1,5.1,0,0,0-3.091-.8ZM95.421,24.035h-17.7V10.19H93.729v3.757H81.845v6.33H95.421v3.757Zm-35.342,0H51.243V.338h8.835a14.066,14.066,0,0,1,5.095.9,12.072,12.072,0,0,1,3.994,2.488,11.072,11.072,0,0,1,2.589,3.757,11.945,11.945,0,0,1,.914,4.673,12.055,12.055,0,0,1-.914,4.688,11.031,11.031,0,0,1-2.589,3.775,12.3,12.3,0,0,1-3.994,2.5A13.843,13.843,0,0,1,60.079,24.035ZM55.373,4.1v16.18h4.684a9.414,9.414,0,0,0,3.4-.591,7.339,7.339,0,0,0,4.26-4.221,8.669,8.669,0,0,0,.592-3.244,8.671,8.671,0,0,0-.592-3.245A7.727,7.727,0,0,0,66.048,6.41a7.546,7.546,0,0,0-2.6-1.7,9.155,9.155,0,0,0-3.4-.609Z" transform="translate(69.418 0.169)" fill="#464343"/>
      <path id="Fill_4" data-name="Fill 4" d="M18.866,0H0V3.758H18.866Z" transform="translate(45.733 0.514)" fill="#ff4500"/>
      <path id="Clip_7-2" data-name="Clip 7" d="M0,39.728H260V0H0Z" transform="translate(0 0.169)" fill="none"/>
      <g id="Group_29-2" data-name="Group 29" clip-path="url(#clip-path)">
        <path id="Fill_6" data-name="Fill 6" d="M0,17.51H4.2V0H0Z" transform="translate(53.067 6.7)" fill="#464343"/>
        <path id="Fill_8" data-name="Fill 8" d="M0,17.157H17.157V0H0Z" transform="translate(20.634 20.803)" fill="#ff4500"/>
        <path id="Fill_9" data-name="Fill 9" d="M17.157,17.157V0H6.615A6.634,6.634,0,0,0,0,6.614V17.157Z" transform="translate(0 0.169)" fill="#ff4500"/>
        <path id="Fill_10" data-name="Fill 10" d="M0,0V17.157H17.157V6.614A6.634,6.634,0,0,0,10.542,0Z" transform="translate(20.634 0.169)" fill="#cdc8b1"/>
        <path id="Fill_11" data-name="Fill 11" d="M17.157,0H0V10.542a6.634,6.634,0,0,0,6.615,6.615H17.157Z" transform="translate(0 20.803)" fill="#cdc8b1"/>
        <path id="Fill_1" data-name="Fill 1" d="M112.7,3.758H95.16V0H112.7V3.757Zm-95.16,0H0V0H17.536V3.757Z" transform="translate(147.133 0.508)" fill="#ff4500"/>
      </g>
    </g>
    <g id="Powered_by" data-name="Powered by" transform="translate(97.067 29.467)">
      <path id="Fill_12" data-name="Fill 12" d="M.722,8.021H0V0H2.011l.175,0c1.415,0,3.1.394,3.1,2.268S3.6,4.535,2.186,4.535l-.175,0H.722V8.02Zm0-7.353v3.2H2.477c1.349,0,2.033-.538,2.033-1.6S3.826.668,2.477.668Z" transform="translate(0 0.165)" fill="#464343"/>
      <path id="Fill_13" data-name="Fill 13" d="M2.6,5.909A2.384,2.384,0,0,1,.633,4.982,3.327,3.327,0,0,1,0,2.955,3.327,3.327,0,0,1,.633.928,2.384,2.384,0,0,1,2.6,0,2.384,2.384,0,0,1,4.565.928,3.327,3.327,0,0,1,5.2,2.955a3.327,3.327,0,0,1-.633,2.027A2.384,2.384,0,0,1,2.6,5.909Zm0-5.3c-.9,0-1.877.733-1.877,2.344C.722,4.083,1.309,5.3,2.6,5.3c.9,0,1.877-.733,1.877-2.344C4.477,1.826,3.889.611,2.6.611Z" transform="translate(5.442 2.443)" fill="#464343"/>
      <path id="Fill_14" data-name="Fill 14" d="M2.4,4.7h.022L4.11,0H4.9L6.542,4.653h.022L8.175,0h.733L6.831,5.575H6.2L4.487.766H4.465L2.721,5.575H2.044L0,0H.733Z" transform="translate(10.972 2.61)" fill="#464343"/>
      <path id="Fill_15" data-name="Fill 15" d="M2.444,5.909C.756,5.909,0,4.425,0,2.955,0,1.532.778,0,2.488,0A2.277,2.277,0,0,1,4.459.9,3.744,3.744,0,0,1,5.031,3.11H.722C.748,4.5,1.452,5.3,2.654,5.3A1.655,1.655,0,0,0,4.265,3.965h.7A2.347,2.347,0,0,1,2.444,5.909ZM2.5.611A1.817,1.817,0,0,0,.744,2.5H4.309A1.769,1.769,0,0,0,2.5.611Z" transform="translate(20.269 2.443)" fill="#464343"/>
      <path id="Fill_16" data-name="Fill 16" d="M.722,5.747H.056V1.426C.067.993.023.549,0,.171H.689L.722.993H.744A1.436,1.436,0,0,1,2,0a6.653,6.653,0,0,1,.667.012V.66C2.533.649,2.389.615,2.255.615,1.266.615.744,1.326.722,2.392Z" transform="translate(26.609 2.439)" fill="#464343"/>
      <path id="Fill_17" data-name="Fill 17" d="M2.444,5.909C.756,5.909,0,4.425,0,2.955,0,1.532.778,0,2.488,0A2.277,2.277,0,0,1,4.459.9,3.744,3.744,0,0,1,5.031,3.11H.722C.748,4.5,1.452,5.3,2.654,5.3A1.655,1.655,0,0,0,4.265,3.965h.7A2.347,2.347,0,0,1,2.444,5.909ZM2.5.611A1.817,1.817,0,0,0,.744,2.5H4.309A1.769,1.769,0,0,0,2.5.611Z" transform="translate(29.919 2.443)" fill="#464343"/>
      <path id="Fill_18" data-name="Fill 18" d="M2.288,8.186A2.009,2.009,0,0,1,.523,7.223,3.776,3.776,0,0,1,0,5.209,3.688,3.688,0,0,1,.523,3.2a2.019,2.019,0,0,1,1.765-.925A2.229,2.229,0,0,1,4.2,3.288l.022-.023V0h.667V6.764c0,.35.022.712.042,1.032,0,.076.009.151.013.223H4.253L4.22,7.2,4.2,7.152A2.267,2.267,0,0,1,2.288,8.186Zm.111-5.3a1.446,1.446,0,0,0-1.313.722A2.977,2.977,0,0,0,.722,5.132c0,.573.114,2.444,1.577,2.444,1.653,0,1.9-1.552,1.9-2.478a2.658,2.658,0,0,0-.413-1.529A1.593,1.593,0,0,0,2.4,2.888Z" transform="translate(35.938 0.166)" fill="#464343"/>
      <path id="Fill_19" data-name="Fill 19" d="M2.687,8.186A2.269,2.269,0,0,1,.743,7.152L.722,7.2l-.034.822H0c0-.072.009-.146.013-.223.02-.32.042-.682.042-1.033V0H.722V3.265l.022.022A2.233,2.233,0,0,1,2.654,2.276,2.019,2.019,0,0,1,4.419,3.2a3.69,3.69,0,0,1,.523,2.008C4.942,6.691,4.245,8.186,2.687,8.186Zm-.166-5.3c-1.326,0-1.8,1.153-1.8,2.233,0,.917.247,2.454,1.9,2.454,1.484,0,1.6-1.853,1.6-2.421C4.22,4.058,3.774,2.887,2.521,2.887Z" transform="translate(45.19 0.167)" fill="#464343"/>
      <path id="Fill_20" data-name="Fill 20" d="M.811,0,2.688,4.665,4.554,0h.722L2.2,7.708H1.466L2.31,5.575,0,0Z" transform="translate(50.398 2.61)" fill="#464343"/>
      <path id="Fill_21" data-name="Fill 21" d="M.744,8.02H0L3.177,0H4.02l3.2,8.018H6.431L5.576,5.854H1.589L.744,8.019ZM3.587.666,1.822,5.187h3.5Z" transform="translate(58.549 0.166)" fill="#464343"/>
      <path id="Fill_22" data-name="Fill 22" d="M.666,4.72l2.7-2.276H4.22L1.4,4.853,4.442,8.019H3.6L.666,5V8.019H0V0H.666Z" transform="translate(66.701 0.167)" fill="#464343"/>
      <path id="Fill_23" data-name="Fill 23" d="M.929,8.019H.071V2.443H.929V8.018ZM1,.832H0V0H1V.831Z" transform="translate(72.032 0.167)" fill="#464343"/>
      <path id="Fill_24" data-name="Fill 24" d="M.722,5.742H.056V1.422C.056.989.023.544,0,.167H.689L.722.989l.022.022A1.918,1.918,0,0,1,2.488,0,1.963,1.963,0,0,1,4.454,2.255V5.742H3.788v-3.6A1.379,1.379,0,0,0,2.321.611c-1.1,0-1.6.922-1.6,1.921Z" transform="translate(74.375 2.443)" fill="#464343"/>
      <path id="Fill_25" data-name="Fill 25" d="M6.3,4.1V7.853a7.488,7.488,0,0,1-2.877.5C1.233,8.352,0,6.642,0,4.176,0,2.11,1.1,0,3.421,0A2.593,2.593,0,0,1,6.242,2.144H5.42a1.823,1.823,0,0,0-2-1.477C1.5.666.777,2.51.777,4.176c0,2.044.856,3.51,3.022,3.51a6.455,6.455,0,0,0,1.777-.333V4.765H3.566V4.1Z" transform="translate(83.293 0)" fill="#464343"/>
      <path id="Fill_26" data-name="Fill 26" d="M3.732,0H4.4V4.32c0,.433.033.877.056,1.255H3.765l-.034-.822L3.71,4.731A1.917,1.917,0,0,1,1.966,5.742,1.963,1.963,0,0,1,0,3.487V0H.667V3.6A1.379,1.379,0,0,0,2.133,5.131c1.1,0,1.6-.922,1.6-1.922Z" transform="translate(91.378 2.61)" fill="#464343"/>
      <path id="Fill_27" data-name="Fill 27" d="M.722.989l.022.022A1.918,1.918,0,0,1,2.488,0,1.833,1.833,0,0,1,4.3,1.222,2.316,2.316,0,0,1,6.22,0,1.963,1.963,0,0,1,8.186,2.255V5.742H7.519v-3.6A1.379,1.379,0,0,0,6.053.611c-1.1,0-1.6.922-1.6,1.921v3.21H3.788v-3.6A1.379,1.379,0,0,0,2.322.611c-1.1,0-1.6.922-1.6,1.921v3.21H.056V1.422C.056.989.022.544,0,.167H.689Z" transform="translate(97.375 2.443)" fill="#464343"/>
      <path id="Fill_28" data-name="Fill 28" d="M.722,7.875H.055V1.422C.064,1.091.04.747.018.444.012.348.005.255,0,.167H.689L.722.989l.023.022A2.23,2.23,0,0,1,2.655,0,2.018,2.018,0,0,1,4.419.925a3.689,3.689,0,0,1,.523,2.007c0,1.482-.7,2.977-2.255,2.977A2.268,2.268,0,0,1,.744,4.876H.722v3ZM2.521.611a1.592,1.592,0,0,0-1.387.68,2.662,2.662,0,0,0-.412,1.53c0,.925.247,2.477,1.9,2.477A1.358,1.358,0,0,0,3.9,4.464a3.821,3.821,0,0,0,.32-1.609C4.22,1.77,3.774.611,2.521.611Z" transform="translate(107.037 2.443)" fill="#464343"/>
    </g>
  </g>
</svg>
