<svg width="25" height="25" viewBox="0 0 25 25" fill="none" xmlns="http://www.w3.org/2000/svg">
<path d="M3.72754 3.43958H21.7275C21.9928 3.43958 22.2471 3.54493 22.4346 3.73247C22.6222 3.92 22.7275 4.17436 22.7275 4.43958V20.4396C22.7275 20.7048 22.6222 20.9591 22.4346 21.1467C22.2471 21.3342 21.9928 21.4396 21.7275 21.4396H3.72754C3.46232 21.4396 3.20797 21.3342 3.02043 21.1467C2.8329 20.9591 2.72754 20.7048 2.72754 20.4396V4.43958C2.72754 4.17436 2.8329 3.92 3.02043 3.73247C3.20797 3.54493 3.46232 3.43958 3.72754 3.43958V3.43958ZM20.7275 7.67758L12.7995 14.7776L4.72754 7.65558V19.4396H20.7275V7.67758ZM5.23854 5.43958L12.7885 12.1016L20.2295 5.43958H5.23854Z" fill="white"/>
</svg>
