<svg width="18" height="19" viewBox="0 0 18 19" fill="none" xmlns="http://www.w3.org/2000/svg">
<path d="M13.5233 13.3963L16.7355 16.6078L15.6743 17.6691L12.4628 14.4568C11.2678 15.4148 9.7815 15.9358 8.25 15.9336C4.524 15.9336 1.5 12.9096 1.5 9.18359C1.5 5.45759 4.524 2.43359 8.25 2.43359C11.976 2.43359 15 5.45759 15 9.18359C15.0022 10.7151 14.4812 12.2014 13.5233 13.3963ZM12.0187 12.8398C12.9706 11.861 13.5022 10.5489 13.5 9.18359C13.5 6.28259 11.1503 3.93359 8.25 3.93359C5.349 3.93359 3 6.28259 3 9.18359C3 12.0838 5.349 14.4336 8.25 14.4336C9.61532 14.4357 10.9274 13.9042 11.9062 12.9523L12.0187 12.8398V12.8398Z" fill="#495067"/>
</svg>
