<svg width="27" height="26" viewBox="0 0 27 26" fill="none" xmlns="http://www.w3.org/2000/svg">
<path d="M8.375 0C7.48125 0 6.75 0.73125 6.75 1.625V24.375C6.75 25.2688 7.48125 26 8.375 26H24.625C25.5188 26 26.25 25.2688 26.25 24.375V6.5L19.75 0H8.375Z" fill="#E2E5E7"/>
<path d="M21.375 6.5H26.25L19.75 0V4.875C19.75 5.76875 20.4812 6.5 21.375 6.5Z" fill="#B0B7BD"/>
<path d="M26.25 11.375L21.375 6.5H26.25V11.375Z" fill="#CAD1D8"/>
<path d="M24.875 21.8333C24.875 22.475 24.425 23 23.875 23H1.875C1.325 23 0.875 22.475 0.875 21.8333V10.1667C0.875 9.525 1.325 9 1.875 9H23.875C24.425 9 24.875 9.525 24.875 10.1667V21.8333Z" fill="#F15642"/>
<path d="M3.875 13.6894C3.875 13.3597 4.1132 13 4.49685 13H6.61206C7.80308 13 8.875 13.8692 8.875 15.5352C8.875 17.1138 7.80308 17.993 6.61206 17.993H5.0832V19.3119C5.0832 19.7515 4.82667 20 4.49685 20C4.19451 20 3.875 19.7515 3.875 19.3119V13.6894V13.6894ZM5.0832 14.2576V16.7454H6.61206C7.22589 16.7454 7.71146 16.1547 7.71146 15.5352C7.71146 14.8371 7.22589 14.2576 6.61206 14.2576H5.0832Z" fill="white"/>
<path d="M11.5241 20C11.2137 20 10.875 19.8178 10.875 19.3738V13.6275C10.875 13.2644 11.2137 13 11.5241 13H13.6772C17.9739 13 17.8798 20 13.7618 20H11.5241V20ZM12.1167 14.2348V18.7665H13.6772C16.2159 18.7665 16.3288 14.2348 13.6772 14.2348H12.1167V14.2348Z" fill="white"/>
<path d="M19.2044 14.317V15.925H21.7959C22.162 15.925 22.528 16.2894 22.528 16.6423C22.528 16.9763 22.162 17.2496 21.7959 17.2496H19.2044V19.3738C19.2044 19.728 18.9515 20 18.5956 20C18.1483 20 17.875 19.728 17.875 19.3738V13.6275C17.875 13.2644 18.1495 13 18.5956 13H22.1633C22.6106 13 22.875 13.2644 22.875 13.6275C22.875 13.9514 22.6106 14.3157 22.1633 14.3157H19.2044V14.317Z" fill="white"/>
</svg>
