<svg width="32" height="16" viewBox="0 0 32 16" fill="none" xmlns="http://www.w3.org/2000/svg">
<line x1="0.583984" y1="1" x2="0.583984" y2="15" stroke="#BBCAD4"/>
<path d="M23.4432 12.1808L26.2631 14.8208L25.084 16L22.2648 13.3592C20.9371 14.4235 19.2857 15.0024 17.584 15C13.444 15 10.084 11.64 10.084 7.5C10.084 3.36 13.444 0 17.584 0C21.724 0 25.084 3.36 25.084 7.5C25.0864 9.20167 24.5075 10.8531 23.4432 12.1808ZM21.7715 11.5625C22.8291 10.4749 23.4197 9.01702 23.4173 7.5C23.4173 4.27667 20.8065 1.66667 17.584 1.66667C14.3607 1.66667 11.7507 4.27667 11.7507 7.5C11.7507 10.7225 14.3607 13.3333 17.584 13.3333C19.101 13.3357 20.5589 12.7451 21.6465 11.6875L21.7715 11.5625Z" fill="#464343"/>
</svg>
