<svg xmlns="http://www.w3.org/2000/svg" xmlns:xlink="http://www.w3.org/1999/xlink" width="857.284" height="439.602" viewBox="0 0 857.284 439.602">
  <defs>
    <clipPath id="clip-path">
      <path id="Clip_2" data-name="Clip 2" d="M0,0H286.387V136.048H0Z" transform="translate(0.324 0.272)" fill="none"/>
    </clipPath>
    <clipPath id="clip-path-2">
      <path id="Clip_5" data-name="Clip 5" d="M0,0H43V50.019H0Z" transform="translate(0 0.12)" fill="none"/>
    </clipPath>
  </defs>
  <g id="Group_1" data-name="Group 1" transform="translate(-125.716 -8.398)">
    <text id="This_is_your_practit" data-name="This is your practit" transform="translate(383 248)" fill="#fff" font-size="36" font-family="Verveine-Regular, Verveine"><tspan x="22.728" y="35">This is your practitioners’ toolkit where you will </tspan><tspan x="35.436" y="77">find various Tradebase tools, including contact </tspan><tspan x="47.874" y="119">information. Click on the arrow to expand.</tspan></text>
    <g id="Group_3" data-name="Group 3" transform="translate(170.707 31.877) rotate(11)">
      <path id="Clip_2-2" data-name="Clip 2" d="M0,0H286.387V136.048H0Z" transform="translate(0.324 0.272)" fill="none"/>
      <g id="Group_3-2" data-name="Group 3" clip-path="url(#clip-path)">
        <path id="Fill_1" data-name="Fill 1" d="M286.051,132.673l-1.947-3.114c-1.3-2.018-3.015-5.05-5.637-8.779-2.485-3.8-5.743-8.207-9.479-13.255l-6.256-7.811c-2.328-2.645-4.711-5.485-7.317-8.341-5.24-5.681-11.024-11.764-17.648-17.664a278.306,278.306,0,0,0-21.54-17.725,288.658,288.658,0,0,0-24.843-16.605,281.075,281.075,0,0,0-27.335-14.468,278.648,278.648,0,0,0-28.832-11.4,263.675,263.675,0,0,0-29.028-7.939c-4.793-.951-9.5-1.915-14.167-2.559-4.643-.775-9.217-1.3-13.673-1.8S69.53.557,65.327.23c-4.215-.149-8.29-.257-12.2-.224-3.91.123-7.658.059-11.212.352s-6.925.451-10.079.789L23.023,2.252c-2.714.4-5.188.9-7.426,1.284s-4.229.767-5.944,1.2L5.293,5.779l-3.614.905a2.212,2.212,0,0,0,.669,4.354l.092-.006L6.1,10.821c2.389-.11,5.858-.487,10.3-.642l7.327-.363,8.625-.2c6.15-.125,13.08-.024,20.625.2,3.772.136,7.692.46,11.754.616,4.049.383,8.25.6,12.537,1.145,8.607.809,17.613,2.25,26.89,3.953,2.319.428,4.636.966,6.982,1.448s4.705,1,7.054,1.617l7.122,1.737,7.137,1.98A290.85,290.85,0,0,1,160.9,32.139a274.077,274.077,0,0,1,27.335,12.746A247,247,0,0,1,213.175,60.19c1.976,1.322,3.884,2.7,5.738,4.118l5.544,4.163c3.523,2.912,7.065,5.66,10.274,8.607,6.606,5.688,12.385,11.572,17.634,17.073,2.582,2.79,4.918,5.589,7.215,8.182L265.744,110l5.123,6.967c1.58,2.157,2.842,4.24,4.083,6.066,2.476,3.622,4.217,6.719,5.445,8.765l1.868,3.162a2.213,2.213,0,0,0,3.817-2.239l-.029-.048" transform="translate(0.324 0.272)" fill="#fff"/>
      </g>
    </g>
    <g id="Group_6" data-name="Group 6" transform="translate(135.283 8.281) rotate(11)">
      <path id="Clip_5-2" data-name="Clip 5" d="M0,0H43V50.019H0Z" transform="translate(0 0.12)" fill="none"/>
      <g id="Group_6-2" data-name="Group 6" clip-path="url(#clip-path-2)">
        <path id="Fill_4" data-name="Fill 4" d="M15.026,24.837c1.616-1.08,3.194-2.213,4.78-3.325s3.132-2.278,4.678-3.44,3.062-2.358,4.576-3.554l4.474-3.674c1.477-1.242,3.037-2.38,4.474-3.668l4.4-3.732.029-.023A2.011,2.011,0,0,0,42.463.657,1.907,1.907,0,0,0,39.8.444c-.042.038-.141.009-.178.049-1.3,1.414-2.669,2.713-4.006,4C34.23,5.762,32.8,6.987,31.36,8.194a96.038,96.038,0,0,1-9.1,6.637c-1.583,1.009-3.2,1.962-4.821,2.9-1.631.922-3.306,1.764-4.976,2.6C9.087,21.954,5.641,23.391,2.166,24.7a3.369,3.369,0,0,0-.582,6l.468.29,4.3,2.668c1.441.871,2.856,1.789,4.3,2.643s2.871,1.751,4.32,2.6l4.341,2.557q4.345,2.549,8.913,4.732a63.675,63.675,0,0,0,9.583,3.757,2.093,2.093,0,0,0,2.2-3.216l-.025-.03a44.959,44.959,0,0,0-3.725-3.758c-1.295-1.157-2.638-2.277-4-3.329a75.539,75.539,0,0,0-8.573-5.745c-2.977-1.71-6-3.355-9.079-4.867s-3.141-1.87-3.141-1.87" transform="translate(0 0.12)" fill="#fff"/>
      </g>
    </g>
  </g>
</svg>
