<svg xmlns="http://www.w3.org/2000/svg" xmlns:xlink="http://www.w3.org/1999/xlink" width="669.34" height="411.892" viewBox="0 0 669.34 411.892">
  <defs>
    <clipPath id="clip-path">
      <path id="Clip_2" data-name="Clip 2" d="M0,0H135.69V101.865H0Z" transform="translate(0.153 0.204)" fill="none"/>
    </clipPath>
    <clipPath id="clip-path-2">
      <path id="Clip_5" data-name="Clip 5" d="M0,0H24.883V45.652H0Z" transform="translate(0 0.109)" fill="none"/>
    </clipPath>
    <clipPath id="clip-path-3">
      <path id="Clip_2-2" data-name="Clip 2" d="M0,0H-135.69V101.865H0Z" transform="translate(-0.153 0.204)" fill="none"/>
    </clipPath>
    <clipPath id="clip-path-4">
      <path id="Clip_5-2" data-name="Clip 5" d="M0,0H-24.883V45.652H0Z" transform="translate(0 0.109)" fill="none"/>
    </clipPath>
    <clipPath id="clip-path-5">
      <path id="Clip_4" data-name="Clip 4" d="M0,0H19.567V33.4H0Z" transform="translate(0.207 0.398)" fill="none"/>
    </clipPath>
    <clipPath id="clip-path-6">
      <path id="Clip_4-2" data-name="Clip 4" d="M0,0H29.351V31.436H0Z" transform="translate(0.31 0.374)" fill="none"/>
    </clipPath>
    <clipPath id="clip-path-7">
      <path id="Clip_4-3" data-name="Clip 4" d="M0,0H-29.351V31.436H0Z" transform="translate(-0.31 0.374)" fill="none"/>
    </clipPath>
  </defs>
  <g id="Group_2" data-name="Group 2" transform="translate(-348.902 -110.682)">
    <text id="These_tiles_give_you" data-name="These tiles give you" transform="translate(383 269)" fill="#fff" font-size="36" font-family="Verveine-Regular, Verveine"><tspan x="77.844" y="35">These tiles give you real-time data on </tspan><tspan x="57.072" y="81">compliance risks and recent developments.</tspan></text>
    <g id="Group_7_Copy" data-name="Group 7 Copy" transform="translate(351.529 523.471) rotate(-97)">
      <g id="Group_3" data-name="Group 3" transform="translate(20.86 20.579)">
        <path id="Clip_2-3" data-name="Clip 2" d="M0,0H135.69V101.865H0Z" transform="translate(0.153 0.204)" fill="none"/>
        <g id="Group_3-2" data-name="Group 3" clip-path="url(#clip-path)">
          <path id="Fill_1" data-name="Fill 1" d="M135.532,99.339l-.923-2.332c-.618-1.511-1.428-3.781-2.671-6.573-1.177-2.849-2.721-6.145-4.491-9.925l-2.964-5.848c-1.1-1.981-2.232-4.107-3.467-6.245-2.483-4.253-5.223-8.808-8.362-13.226-3.1-4.479-6.525-8.942-10.206-13.271A153.1,153.1,0,0,0,90.678,29.485,128.955,128.955,0,0,0,77.727,18.652a110.21,110.21,0,0,0-13.661-8.538A91.777,91.777,0,0,0,50.312,4.169c-2.271-.712-4.5-1.434-6.712-1.916-2.2-.58-4.367-.976-6.478-1.347s-4.179-.49-6.17-.735c-2-.112-3.928-.192-5.78-.167C23.32.1,21.544.049,19.86.268s-3.281.338-4.776.591l-4.176.827c-1.286.3-2.458.676-3.519.961a24.351,24.351,0,0,0-2.816.9l-2.066.778L.8,5a1.867,1.867,0,0,0-.763,2.01c.125.784.586,1.3,1.081,1.25l.043,0L2.892,8.1c1.132-.082,2.775-.365,4.879-.481l3.471-.272L15.329,7.2c2.914-.093,6.2-.018,9.772.147,1.787.1,3.645.344,5.569.461,1.918.287,3.909.447,5.94.858a98.382,98.382,0,0,1,12.741,2.96c1.1.32,2.2.723,3.308,1.084s2.229.747,3.342,1.211l3.374,1.3,3.382,1.483a108.943,108.943,0,0,1,13.478,7.359,117.289,117.289,0,0,1,12.952,9.543A123.992,123.992,0,0,1,101,45.067c.936.99,1.84,2.024,2.719,3.083l2.627,3.117c1.669,2.181,3.347,4.238,4.868,6.444,3.13,4.259,5.868,8.665,8.355,12.783,1.223,2.089,2.33,4.184,3.419,6.126l2.92,5.741,2.427,5.216c.748,1.615,1.346,3.175,1.934,4.542,1.173,2.712,2,5.031,2.58,6.563l.885,2.367c.294.787.937,1.049,1.437.586a2.247,2.247,0,0,0,.372-2.262l-.014-.036" transform="translate(0.153 0.204)" fill="#fff"/>
        </g>
      </g>
      <g id="Group_6" data-name="Group 6" transform="translate(0.841 0.403)">
        <path id="Clip_5-3" data-name="Clip 5" d="M0,0H24.883V45.652H0Z" transform="translate(0 0.109)" fill="none"/>
        <g id="Group_6-2" data-name="Group 6" clip-path="url(#clip-path-2)">
          <path id="Fill_4" data-name="Fill 4" d="M8.7,22.669c.935-.986,1.848-2.02,2.766-3.035s1.813-2.079,2.707-3.14,1.772-2.152,2.648-3.244L19.406,9.9C20.261,8.763,21.164,7.724,22,6.549l2.546-3.406.017-.021A2.658,2.658,0,0,0,24.573.6c-.393-.7-1.1-.819-1.538-.195-.024.034-.081.008-.1.045-.754,1.291-1.545,2.476-2.318,3.653-.805,1.156-1.631,2.274-2.466,3.375a65.775,65.775,0,0,1-5.269,6.057c-.916.921-1.852,1.791-2.79,2.646s-1.913,1.61-2.88,2.375a63.1,63.1,0,0,1-5.956,3.986c-1,.592-1.5,2.358-1.131,3.943a3.146,3.146,0,0,0,.794,1.537l.271.264,2.488,2.435c.834.795,1.653,1.633,2.491,2.412s1.661,1.6,2.5,2.374l2.512,2.333a65.353,65.353,0,0,0,5.158,4.319,30.683,30.683,0,0,0,5.546,3.429c.592.266,1.256-.345,1.424-1.287a2.8,2.8,0,0,0-.152-1.648l-.015-.028a38.184,38.184,0,0,0-2.156-3.43c-.749-1.056-1.526-2.078-2.317-3.039a48.94,48.94,0,0,0-4.961-5.243c-1.723-1.561-3.47-3.062-5.254-4.442s-1.818-1.707-1.818-1.707" transform="translate(0 0.109)" fill="#fff"/>
        </g>
      </g>
    </g>
    <g id="Group_7_Copy_2" data-name="Group 7 Copy 2" transform="translate(1000.471 523.471) rotate(97)">
      <g id="Group_3-3" data-name="Group 3" transform="translate(-20.86 20.579)">
        <path id="Clip_2-4" data-name="Clip 2" d="M0,0H-135.69V101.865H0Z" transform="translate(-0.153 0.204)" fill="none"/>
        <g id="Group_3-4" data-name="Group 3" clip-path="url(#clip-path-3)">
          <path id="Fill_1-2" data-name="Fill 1" d="M-135.532,99.339l.923-2.332c.618-1.511,1.428-3.781,2.671-6.573,1.177-2.849,2.721-6.145,4.491-9.925l2.964-5.848c1.1-1.981,2.232-4.107,3.467-6.245,2.483-4.253,5.223-8.808,8.362-13.226,3.1-4.479,6.525-8.942,10.206-13.271A153.1,153.1,0,0,1-90.678,29.485,128.955,128.955,0,0,1-77.727,18.652a110.21,110.21,0,0,1,13.661-8.538A91.777,91.777,0,0,1-50.312,4.169c2.271-.712,4.5-1.434,6.712-1.916,2.2-.58,4.367-.976,6.478-1.347s4.179-.49,6.17-.735c2-.112,3.928-.192,5.78-.167C-23.32.1-21.544.049-19.86.268s3.281.338,4.776.591l4.176.827c1.286.3,2.458.676,3.519.961a24.351,24.351,0,0,1,2.816.9l2.066.778L-.8,5a1.867,1.867,0,0,1,.763,2.01c-.125.784-.586,1.3-1.081,1.25l-.043,0L-2.892,8.1c-1.132-.082-2.775-.365-4.879-.481l-3.471-.272L-15.329,7.2c-2.914-.093-6.2-.018-9.772.147-1.787.1-3.645.344-5.569.461-1.918.287-3.909.447-5.94.858a98.382,98.382,0,0,0-12.741,2.96c-1.1.32-2.2.723-3.308,1.084s-2.229.747-3.342,1.211l-3.374,1.3-3.382,1.483a108.943,108.943,0,0,0-13.478,7.359,117.289,117.289,0,0,0-12.952,9.543A123.992,123.992,0,0,0-101,45.067c-.936.99-1.84,2.024-2.719,3.083l-2.627,3.117c-1.669,2.181-3.347,4.238-4.868,6.444-3.13,4.259-5.868,8.665-8.355,12.783-1.223,2.089-2.33,4.184-3.419,6.126l-2.92,5.741-2.427,5.216c-.748,1.615-1.346,3.175-1.934,4.542-1.173,2.712-2,5.031-2.58,6.563l-.885,2.367c-.294.787-.937,1.049-1.437.586a2.247,2.247,0,0,1-.372-2.262l.014-.036" transform="translate(-0.153 0.204)" fill="#fff"/>
        </g>
      </g>
      <g id="Group_6-3" data-name="Group 6" transform="translate(-0.841 0.403)">
        <path id="Clip_5-4" data-name="Clip 5" d="M0,0H-24.883V45.652H0Z" transform="translate(0 0.109)" fill="none"/>
        <g id="Group_6-4" data-name="Group 6" clip-path="url(#clip-path-4)">
          <path id="Fill_4-2" data-name="Fill 4" d="M-8.7,22.669c-.935-.986-1.848-2.02-2.766-3.035s-1.813-2.079-2.707-3.14-1.772-2.152-2.648-3.244L-19.406,9.9C-20.261,8.763-21.164,7.724-22,6.549l-2.546-3.406-.017-.021A2.658,2.658,0,0,1-24.573.6c.393-.7,1.1-.819,1.538-.195.024.034.081.008.1.045.754,1.291,1.545,2.476,2.318,3.653.805,1.156,1.631,2.274,2.466,3.375a65.775,65.775,0,0,0,5.269,6.057c.916.921,1.852,1.791,2.79,2.646s1.913,1.61,2.88,2.375a63.1,63.1,0,0,0,5.956,3.986c1,.592,1.5,2.358,1.131,3.943a3.146,3.146,0,0,1-.794,1.537l-.271.264-2.488,2.435c-.834.795-1.653,1.633-2.491,2.412s-1.661,1.6-2.5,2.374l-2.512,2.333a65.353,65.353,0,0,1-5.158,4.319,30.683,30.683,0,0,1-5.546,3.429c-.592.266-1.256-.345-1.424-1.287a2.8,2.8,0,0,1,.152-1.648l.015-.028a38.184,38.184,0,0,1,2.156-3.43c.749-1.056,1.526-2.078,2.317-3.039a48.94,48.94,0,0,1,4.961-5.243c1.723-1.561,3.47-3.062,5.254-4.442s1.818-1.707,1.818-1.707" transform="translate(0 0.109)" fill="#fff"/>
        </g>
      </g>
    </g>
    <g id="Group_6-5" data-name="Group 6" transform="translate(926.224 198.575) rotate(43)">
      <path id="Fill_1-3" data-name="Fill 1" d="M.13,74.115l.755-1.739c.506-1.128,1.168-2.821,2.185-4.9.963-2.126,2.226-4.585,3.674-7.4L9.169,55.7c.9-1.478,1.826-3.064,2.836-4.659,2.031-3.173,4.273-6.572,6.84-9.867a128.645,128.645,0,0,1,8.349-9.9A119.484,119.484,0,0,1,36.822,22a103.89,103.89,0,0,1,10.595-8.082A91.988,91.988,0,0,1,58.592,7.545,79.021,79.021,0,0,1,69.843,3.11c1.857-.532,3.684-1.07,5.491-1.43,1.8-.432,3.572-.728,5.3-1S84.051.311,85.68.129C87.313.045,88.893-.015,90.408,0c1.515.069,2.968.033,4.346.2s2.684.252,3.907.44l3.416.618c1.052.222,2.011.5,2.879.717a21.3,21.3,0,0,1,2.3.672l1.69.581,1.4.506a1.342,1.342,0,0,1,.625,1.5c-.1.585-.48.967-.884.933l-.036,0-1.42-.118c-.926-.062-2.27-.272-3.992-.359l-2.84-.2L98.46,5.373c-2.384-.069-5.07-.013-7.994.11-1.462.077-2.982.257-4.556.344-1.569.214-3.2.333-4.859.64A87.092,87.092,0,0,0,70.629,8.674c-.9.239-1.8.54-2.706.81s-1.824.557-2.734.9l-2.76.97-2.766,1.106a92.049,92.049,0,0,0-11.026,5.49,95.985,95.985,0,0,0-10.595,7.12,97.8,97.8,0,0,0-9.666,8.55c-.766.738-1.506,1.51-2.224,2.3L24,38.25c-1.366,1.627-2.738,3.162-3.982,4.808-2.56,3.177-4.8,6.464-6.835,9.537-1,1.559-1.906,3.122-2.8,4.571L8,61.449,6.015,65.341c-.612,1.2-1.1,2.369-1.582,3.388-.96,2.023-1.634,3.754-2.111,4.9L1.6,75.393c-.241.587-.767.782-1.175.437a1.561,1.561,0,0,1-.3-1.687l.011-.027" transform="translate(0.079 14.2)" fill="#fff"/>
      <g id="Group_5" data-name="Group 5" transform="translate(107.27 0.917)">
        <path id="Clip_4-4" data-name="Clip 4" d="M0,0H19.567V33.4H0Z" transform="translate(0.207 0.398)" fill="none"/>
        <g id="Group_5-2" data-name="Group 5" clip-path="url(#clip-path-5)">
          <path id="Fill_3" data-name="Fill 3" d="M12.73,16.585c-.736-.721-1.454-1.478-2.175-2.221s-1.425-1.522-2.129-2.3S7.032,10.494,6.343,9.694L4.307,7.241c-.672-.83-1.382-1.59-2.036-2.45L.269,2.3.256,2.283A1.825,1.825,0,0,1,.244.439.693.693,0,0,1,1.453.3c.019.025.064.006.081.033C2.127,1.274,2.749,2.141,3.357,3,3.99,3.847,4.64,4.665,5.3,5.471A49.368,49.368,0,0,0,9.439,9.9c.721.674,1.456,1.31,2.194,1.936s1.5,1.178,2.264,1.738a50.123,50.123,0,0,0,4.684,2.916,2.658,2.658,0,0,1,.89,2.885,2.254,2.254,0,0,1-.624,1.124l-.213.193-1.957,1.782c-.656.582-1.3,1.195-1.959,1.764s-1.306,1.17-1.966,1.737l-1.975,1.708A50.589,50.589,0,0,1,6.72,30.846a24.454,24.454,0,0,1-4.361,2.509c-.466.195-.988-.253-1.119-.941a1.916,1.916,0,0,1,.12-1.206l.012-.02a27.742,27.742,0,0,1,1.7-2.51c.589-.773,1.2-1.521,1.822-2.223a37.112,37.112,0,0,1,3.9-3.836c1.355-1.142,2.729-2.24,4.132-3.25s1.43-1.249,1.43-1.249" transform="translate(0.207 0.398)" fill="#fff"/>
        </g>
      </g>
    </g>
    <g id="Group_6-6" data-name="Group 6" transform="matrix(0.921, -0.391, 0.391, 0.921, 792.906, 183.303)">
      <path id="Fill_1-4" data-name="Fill 1" d="M.194,70.214l1.129-1.648C2.079,67.5,3.07,65.894,4.591,63.92c1.44-2.014,3.329-4.343,5.494-7.015l3.627-4.134c1.349-1.4,2.731-2.9,4.241-4.414,3.038-3.006,6.39-6.226,10.23-9.348,3.794-3.166,7.982-6.32,12.486-9.38,4.485-3.085,9.338-6.008,14.4-8.788a168.813,168.813,0,0,1,15.844-7.657A171.059,171.059,0,0,1,87.624,7.148a164.4,164.4,0,0,1,16.826-4.2c2.778-.5,5.509-1.014,8.211-1.354,2.691-.41,5.342-.69,7.925-.952S125.7.295,128.134.122c2.443-.079,4.8-.136,7.071-.119,2.266.065,4.439.031,6.5.187s4.014.239,5.843.417l5.109.585c1.573.21,3.007.477,4.3.679s2.451.406,3.445.637l2.527.55,2.095.479a1.168,1.168,0,0,1,.934,1.421,1.279,1.279,0,0,1-1.322.884l-.054,0-2.123-.112c-1.385-.059-3.4-.258-5.969-.34l-4.247-.192-5-.1c-3.565-.066-7.582-.012-11.955.1-2.186.072-4.459.243-6.813.326-2.347.2-4.782.316-7.267.606-4.989.428-10.209,1.191-15.586,2.091-1.344.227-2.687.511-4.048.767s-2.727.528-4.089.856l-4.128.919-4.137,1.048c-5.513,1.485-11.075,3.166-16.489,5.2a166.259,166.259,0,0,0-15.844,6.745,146.065,146.065,0,0,0-14.455,8.1c-1.145.7-2.252,1.43-3.326,2.179l-3.214,2.2c-2.043,1.541-4.1,3-5.955,4.555-3.829,3.01-7.179,6.124-10.221,9.035-1.5,1.477-2.851,2.958-4.183,4.33l-3.572,4.058L9,61.9c-.915,1.142-1.648,2.244-2.367,3.21-1.435,1.917-2.444,3.556-3.156,4.639L2.39,71.424a1.356,1.356,0,0,1-1.757.414,1.111,1.111,0,0,1-.455-1.6l.016-.025" transform="translate(0.076 12.834)" fill="#fff"/>
      <g id="Group_5-3" data-name="Group 5" transform="translate(158.83 0.743)">
        <path id="Clip_4-5" data-name="Clip 4" d="M0,0H29.351V31.436H0Z" transform="translate(0.31 0.374)" fill="none"/>
        <g id="Group_5-4" data-name="Group 5" clip-path="url(#clip-path-6)">
          <path id="Fill_3-2" data-name="Fill 3" d="M19.094,15.61c-1.1-.679-2.181-1.391-3.263-2.09s-2.138-1.432-3.193-2.161-2.09-1.482-3.124-2.235L6.46,6.815c-1.008-.781-2.073-1.5-3.054-2.306L.4,2.164l-.02-.015A1.192,1.192,0,0,1,.365.413,1.382,1.382,0,0,1,2.18.279c.028.024.1.006.121.031C3.19,1.2,4.123,2.015,5.036,2.825c.95.8,1.924,1.566,2.909,2.324a65.664,65.664,0,0,0,6.215,4.171c1.081.634,2.184,1.233,3.291,1.822s2.257,1.109,3.4,1.636c2.3,1.02,4.654,1.922,7.026,2.745a2.069,2.069,0,0,1,1.334,2.715A2.146,2.146,0,0,1,28.27,19.3l-.319.182-2.936,1.677c-.984.547-1.95,1.125-2.938,1.661s-1.959,1.1-2.949,1.634l-2.963,1.607c-1.977,1.068-4,2.061-6.085,2.974a45.685,45.685,0,0,1-6.541,2.362,1.421,1.421,0,0,1-1.679-.886,1.2,1.2,0,0,1,.18-1.135l.017-.019A29.583,29.583,0,0,1,4.6,26.991c.883-.727,1.8-1.431,2.734-2.092a52.17,52.17,0,0,1,5.851-3.611c2.032-1.075,4.094-2.108,6.2-3.059s2.144-1.175,2.144-1.175" transform="translate(0.31 0.374)" fill="#fff"/>
        </g>
      </g>
    </g>
    <g id="Group_6_Copy" data-name="Group 6 Copy" transform="matrix(0.921, 0.391, -0.391, 0.921, 595.094, 183.303)">
      <path id="Fill_1-5" data-name="Fill 1" d="M-.194,70.214l-1.129-1.648C-2.079,67.5-3.07,65.894-4.591,63.92c-1.44-2.014-3.329-4.343-5.494-7.015l-3.627-4.134c-1.349-1.4-2.731-2.9-4.241-4.414-3.038-3.006-6.39-6.226-10.23-9.348-3.794-3.166-7.982-6.32-12.486-9.38-4.485-3.085-9.338-6.008-14.4-8.788a168.813,168.813,0,0,0-15.844-7.657A171.059,171.059,0,0,0-87.624,7.148a164.4,164.4,0,0,0-16.826-4.2c-2.778-.5-5.509-1.014-8.211-1.354-2.691-.41-5.342-.69-7.925-.952S-125.7.295-128.134.122c-2.443-.079-4.8-.136-7.071-.119-2.266.065-4.439.031-6.5.187s-4.014.239-5.843.417l-5.109.585c-1.573.21-3.007.477-4.3.679s-2.451.406-3.445.637l-2.527.55-2.095.479a1.168,1.168,0,0,0-.934,1.421,1.279,1.279,0,0,0,1.322.884l.054,0,2.123-.112c1.385-.059,3.4-.258,5.969-.34l4.247-.192,5-.1c3.565-.066,7.582-.012,11.955.1,2.186.072,4.459.243,6.813.326,2.347.2,4.782.316,7.267.606,4.989.428,10.209,1.191,15.586,2.091,1.344.227,2.688.511,4.048.767s2.727.528,4.089.856l4.128.919,4.137,1.048c5.513,1.485,11.075,3.166,16.489,5.2a166.259,166.259,0,0,1,15.844,6.745,146.065,146.065,0,0,1,14.455,8.1c1.145.7,2.252,1.43,3.326,2.179l3.214,2.2c2.043,1.541,4.1,3,5.955,4.555,3.829,3.01,7.179,6.124,10.221,9.035,1.5,1.477,2.851,2.958,4.183,4.33l3.572,4.058L-9,61.9c.915,1.142,1.648,2.244,2.367,3.21,1.435,1.917,2.444,3.556,3.156,4.639l1.083,1.673a1.356,1.356,0,0,0,1.757.414,1.111,1.111,0,0,0,.455-1.6l-.016-.025" transform="translate(-0.076 12.834)" fill="#fff"/>
      <g id="Group_5-5" data-name="Group 5" transform="translate(-158.83 0.743)">
        <path id="Clip_4-6" data-name="Clip 4" d="M0,0H-29.351V31.436H0Z" transform="translate(-0.31 0.374)" fill="none"/>
        <g id="Group_5-6" data-name="Group 5" clip-path="url(#clip-path-7)">
          <path id="Fill_3-3" data-name="Fill 3" d="M-19.094,15.61c1.1-.679,2.181-1.391,3.263-2.09s2.138-1.432,3.193-2.161,2.09-1.482,3.124-2.235L-6.46,6.815c1.008-.781,2.073-1.5,3.054-2.306l3-2.346.02-.015A1.192,1.192,0,0,0-.365.413,1.382,1.382,0,0,0-2.18.279C-2.208.3-2.276.285-2.3.31-3.19,1.2-4.123,2.015-5.036,2.825c-.95.8-1.924,1.566-2.909,2.324a65.664,65.664,0,0,1-6.215,4.171c-1.081.634-2.184,1.233-3.291,1.822s-2.257,1.109-3.4,1.636c-2.3,1.02-4.654,1.922-7.026,2.745a2.069,2.069,0,0,0-1.334,2.715A2.146,2.146,0,0,0-28.27,19.3l.319.182,2.936,1.677c.984.547,1.95,1.125,2.938,1.661s1.959,1.1,2.949,1.634l2.963,1.607c1.977,1.068,4,2.061,6.085,2.974a45.685,45.685,0,0,0,6.541,2.362,1.421,1.421,0,0,0,1.679-.886,1.2,1.2,0,0,0-.18-1.135l-.017-.019A29.583,29.583,0,0,0-4.6,26.991c-.883-.727-1.8-1.431-2.734-2.092a52.17,52.17,0,0,0-5.851-3.611c-2.032-1.075-4.094-2.108-6.2-3.059s-2.144-1.175-2.144-1.175" transform="translate(-0.31 0.374)" fill="#fff"/>
        </g>
      </g>
    </g>
  </g>
</svg>
