<svg xmlns="http://www.w3.org/2000/svg" xmlns:xlink="http://www.w3.org/1999/xlink" width="609.403" height="413.625" viewBox="0 0 609.403 413.625">
  <defs>
    <clipPath id="clip-path">
      <path id="Clip_4" data-name="Clip 4" d="M0,0H51.741V47.335H0Z" transform="translate(0.546 0.564)" fill="none"/>
    </clipPath>
  </defs>
  <g id="Group_3" data-name="Group 3" transform="translate(-79 -91.375)">
    <text id="Click_here_to_login" data-name="Click here to login" transform="translate(79 377)" fill="#fff" font-size="36" font-family="Verveine-Regular, Verveine"><tspan x="14.592" y="35">Click here to login or register for enhanced access.</tspan></text>
    <g id="Group_6" data-name="Group 6" transform="matrix(0.883, -0.469, 0.469, 0.883, 370.775, 246.326)">
      <path id="Fill_1" data-name="Fill 1" d="M.343,106.585l1.99-2.5c1.333-1.622,3.08-4.057,5.76-7.053,2.539-3.057,5.868-6.593,9.685-10.649l6.393-6.276c2.378-2.126,4.813-4.406,7.476-6.7C37,68.842,42.912,63.954,49.68,59.215c6.688-4.806,14.071-9.594,22.01-14.24,7.907-4.683,16.462-9.12,25.384-13.34,8.883-4.284,18.334-8.073,27.931-11.623,9.593-3.576,19.566-6.486,29.461-9.162,9.9-2.693,19.916-4.673,29.662-6.378,4.9-.765,9.711-1.539,14.475-2.056C203.346,1.8,208.02,1.37,212.573.972s9.012-.525,13.306-.787c4.307-.12,8.47-.207,12.465-.18,3.995.1,7.824.047,11.456.283s7.075.363,10.3.633l9.005.889c2.773.319,5.3.724,7.589,1.031s4.321.616,6.074.967l4.455.835,3.692.727c1.215.24,1.952,1.205,1.647,2.157a2.274,2.274,0,0,1-2.33,1.341l-.094-.005-3.743-.169c-2.442-.089-5.986-.391-10.523-.516l-7.487-.292-8.812-.159c-6.284-.1-13.365-.019-21.074.157-3.854.11-7.861.369-12.011.5-4.137.308-8.43.479-12.811.92-8.794.65-18,1.808-27.476,3.175-2.369.344-4.738.776-7.135,1.164s-4.808.8-7.208,1.3l-7.277,1.4-7.292,1.591c-9.719,2.254-19.523,4.805-29.067,7.9s-18.995,6.4-27.931,10.239a271.681,271.681,0,0,0-25.482,12.3c-2.019,1.062-3.969,2.171-5.864,3.308l-5.665,3.344c-3.6,2.339-7.219,4.547-10.5,6.915-6.75,4.569-12.656,9.3-18.018,13.715-2.638,2.241-5.025,4.49-7.373,6.573l-6.3,6.16q-2.8,3-5.235,5.6c-1.614,1.733-2.9,3.406-4.172,4.873-2.53,2.91-4.309,5.4-5.564,7.042l-1.908,2.54a2.636,2.636,0,0,1-3.1.628,1.578,1.578,0,0,1-.8-2.427l.029-.039" transform="translate(0.002 16.908)" fill="#fff"/>
      <g id="Group_5" data-name="Group 5" transform="translate(279.118 0.154)">
        <path id="Clip_4-2" data-name="Clip 4" d="M0,0H51.741V47.335H0Z" transform="translate(0.546 0.564)" fill="none"/>
        <g id="Group_5-2" data-name="Group 5" clip-path="url(#clip-path)">
          <path id="Fill_3" data-name="Fill 3" d="M33.66,23.5c-1.946-1.022-3.844-2.094-5.752-3.147S24.139,18.2,22.28,17.1s-3.685-2.231-5.506-3.365l-5.385-3.476C9.612,9.086,7.734,8.009,6,6.79L.711,3.258.676,3.236A1.622,1.622,0,0,1,.644.622a2.751,2.751,0,0,1,3.2-.2c.05.036.169.009.214.047,1.568,1.339,3.213,2.568,4.82,3.788,1.674,1.2,3.393,2.357,5.127,3.5A118.794,118.794,0,0,0,24.96,14.035c1.905.955,3.85,1.857,5.8,2.743s3.978,1.67,5.988,2.463c4.056,1.536,8.2,2.894,12.385,4.133,2.074.614,3.127,2.444,2.352,4.088a3.461,3.461,0,0,1-1.651,1.593l-.563.274L44.1,31.854c-1.735.824-3.437,1.693-5.18,2.5s-3.454,1.658-5.2,2.461L28.5,39.237c-3.486,1.608-7.052,3.1-10.727,4.477A89.871,89.871,0,0,1,6.239,47.27a2.609,2.609,0,0,1-2.96-1.334A1.6,1.6,0,0,1,3.6,44.227l.031-.029a49.948,49.948,0,0,1,4.483-3.557c1.557-1.1,3.173-2.155,4.819-3.151a95.836,95.836,0,0,1,10.315-5.437c3.583-1.618,7.217-3.175,10.926-4.606s3.78-1.77,3.78-1.77" transform="translate(0.546 0.564)" fill="#fff"/>
        </g>
      </g>
    </g>
  </g>
</svg>
