<svg width="24" height="24" viewBox="0 0 24 24" fill="none" xmlns="http://www.w3.org/2000/svg">
<path d="M20.2539 11.562C19.806 7.71635 16.7664 4.67702 12.927 4.24283V2.57068H11.0073V4.24283C7.16783 4.67702 4.12827 7.71635 3.68034 11.562H2.11523V13.4228H3.68034C4.12827 17.2685 7.16783 20.3079 11.0073 20.7421V22.4142H12.927V20.7421C16.7664 20.3079 19.806 17.2685 20.2539 13.4228H21.819V11.562H20.2539ZM18.3022 13.4228C17.8863 16.2141 15.7106 18.447 12.927 18.8502V16.7439H11.0073V18.8502C8.22367 18.447 6.04799 16.2141 5.63205 13.4228H7.67709V11.562H5.63205C6.04799 8.77081 8.22367 6.53783 11.0073 6.13466V8.24099H12.927V6.13466C15.7106 6.53783 17.8863 8.77081 18.3022 11.562H16.2572V13.4228H18.3022Z" fill="white" stroke="white" stroke-width="0.3"/>
</svg>
