<svg width="877" height="139" viewBox="0 0 877 139" fill="none" xmlns="http://www.w3.org/2000/svg">
<path opacity="0.2" d="M116.556 70.0281C116.556 91.7491 91.26 108.875 69.5558 108.875C47.8516 108.875 30.2568 91.267 30.2568 69.546C30.2568 47.8251 47.8516 30.2168 69.5558 30.2168C91.26 30.2168 116.556 48.3072 116.556 70.0281Z" fill="#E6A591"/>
<g filter="url(#filter0_d_253_4164)">
<path d="M114.948 41.3593L832.723 41.3593C847.995 41.3593 860.61 53.8101 860.61 69.3735C860.61 84.9369 848.216 97.3876 832.723 97.3876L114.948 97.3876C105.209 113.173 88.167 122.956 69.5756 122.956C55.4106 122.956 41.9098 117.398 31.9501 107.393C21.9904 97.3876 16.4572 83.8252 16.4572 69.5958C16.4572 55.3664 21.9904 41.804 31.9501 31.799C41.9098 21.7939 55.4106 16.2356 69.5756 16.2356C88.3884 15.7909 105.431 25.5736 114.948 41.3593ZM28.1874 69.3735C28.1874 92.2739 46.7789 110.95 69.5756 110.95C85.0684 110.95 99.0121 102.501 106.316 88.7165C107.422 86.7155 109.414 85.6039 111.628 85.6039L832.723 85.6039C841.576 85.6039 848.659 78.4892 848.659 69.5958C848.659 60.7024 841.576 53.5877 832.723 53.5877L111.628 53.5877C109.414 53.5877 107.422 52.2537 106.316 50.475C99.2334 36.6903 85.0684 28.2416 69.5756 28.2416C46.7789 27.7969 28.1874 46.473 28.1874 69.3735Z" fill="#464343"/>
<path d="M105.432 88.2484L105.436 88.2404L105.441 88.2326C106.73 85.9018 109.064 84.6039 111.628 84.6039L832.723 84.6039C841.02 84.6039 847.659 77.9412 847.659 69.5958C847.659 61.2504 841.02 54.5877 832.723 54.5877L111.628 54.5877C109.01 54.5877 106.723 53.022 105.467 51.0033L105.445 50.9685L105.426 50.932C98.5192 37.4885 84.7025 29.2416 69.5756 29.2416H69.5658L69.556 29.2414C47.335 28.808 29.1874 47.017 29.1874 69.3735C29.1874 91.7259 47.3355 109.95 69.5756 109.95C84.6942 109.95 98.2999 101.709 105.432 88.2484ZM69.564 15.2356C88.5495 14.7911 105.76 24.5636 115.509 40.3593L832.723 40.3593C848.546 40.3593 861.61 53.2569 861.61 69.3735C861.61 85.4849 848.773 98.3876 832.723 98.3876L115.502 98.3876C105.54 114.182 88.3361 123.956 69.5756 123.956C55.1476 123.956 41.3909 118.294 31.2413 108.098C21.092 97.9027 15.4572 84.0853 15.4572 69.5958C15.4572 55.1063 21.092 41.289 31.2413 31.0935C41.3881 20.9005 55.1403 15.2386 69.564 15.2356Z" stroke="white" stroke-width="2"/>
</g>
<path d="M109.758 53.5806H293.989V85.5959H109.758V53.5806Z" fill="#FBA281"/>
<path d="M296.254 53.5806H481.046V85.5959H296.254V53.5806Z" fill="#FF4500"/>
<path opacity="0.2" d="M482.907 53.5806H667.637V85.5959H482.907V53.5806Z" fill="#E6A591"/>
<path opacity="0.2" d="M669.249 53.5806H832.88C841.721 53.5806 848.888 60.7475 848.888 69.5883C848.888 78.4291 841.721 85.5959 832.88 85.5959H669.249V53.5806Z" fill="#E6A591"/>
<path d="M142.23 63.6644H146.278C147.174 63.6644 147.91 63.771 148.486 63.9844C149.072 64.187 149.531 64.459 149.862 64.8004C150.192 65.131 150.422 65.5044 150.55 65.9204C150.678 66.3257 150.742 66.7257 150.742 67.1204C150.742 67.8564 150.608 68.475 150.342 68.9764C150.075 69.4777 149.627 69.899 148.998 70.2404L151.318 75.0884H148.742L146.822 70.8004H144.582V75.0884H142.23V63.6644ZM146.438 68.8164C146.811 68.8164 147.12 68.779 147.366 68.7044C147.611 68.619 147.803 68.507 147.942 68.3684C148.091 68.219 148.192 68.043 148.246 67.8404C148.299 67.6377 148.326 67.4137 148.326 67.1684C148.326 66.9657 148.294 66.7737 148.23 66.5924C148.166 66.4004 148.054 66.235 147.894 66.0964C147.744 65.947 147.531 65.835 147.254 65.7604C146.987 65.675 146.646 65.6324 146.23 65.6324H144.582V68.8164H146.438ZM159.842 72.4804C159.693 73.419 159.314 74.1337 158.706 74.6244C158.109 75.1044 157.234 75.3444 156.082 75.3444C154.695 75.3444 153.65 74.9604 152.946 74.1924C152.253 73.4244 151.906 72.3364 151.906 70.9284C151.906 70.2244 152.007 69.6004 152.21 69.0564C152.413 68.5017 152.695 68.0324 153.058 67.6484C153.431 67.2644 153.874 66.9764 154.386 66.7844C154.898 66.5817 155.463 66.4804 156.082 66.4804C157.362 66.4804 158.322 66.8484 158.962 67.5844C159.613 68.3204 159.938 69.3124 159.938 70.5604V71.4564H154.146C154.167 72.1284 154.338 72.6564 154.658 73.0404C154.978 73.4137 155.458 73.6004 156.098 73.6004C156.983 73.6004 157.506 73.227 157.666 72.4804H159.842ZM157.778 69.9844C157.778 69.4084 157.634 68.9604 157.346 68.6404C157.069 68.3204 156.631 68.1604 156.034 68.1604C155.735 68.1604 155.474 68.2084 155.25 68.3044C155.026 68.4004 154.834 68.5337 154.674 68.7044C154.525 68.8644 154.407 69.0564 154.322 69.2804C154.237 69.4937 154.189 69.7284 154.178 69.9844H157.778ZM166.576 74.0324C166.245 74.4057 165.872 74.7097 165.456 74.9444C165.051 75.179 164.523 75.2964 163.872 75.2964C163.499 75.2964 163.141 75.2484 162.8 75.1524C162.469 75.0564 162.176 74.907 161.92 74.7044C161.675 74.5017 161.477 74.2457 161.328 73.9364C161.179 73.6164 161.104 73.2377 161.104 72.8004C161.104 72.2244 161.232 71.755 161.488 71.3924C161.744 71.0297 162.08 70.747 162.496 70.5444C162.912 70.3417 163.376 70.1977 163.888 70.1124C164.411 70.027 164.939 69.9737 165.472 69.9524L166.544 69.9044V69.4884C166.544 68.9764 166.4 68.6244 166.112 68.4324C165.835 68.2404 165.504 68.1444 165.12 68.1444C164.235 68.1444 163.728 68.4804 163.6 69.1524L161.552 68.9604C161.701 68.0857 162.085 67.4564 162.704 67.0724C163.323 66.6777 164.155 66.4804 165.2 66.4804C165.84 66.4804 166.384 66.5604 166.832 66.7204C167.28 66.8697 167.637 67.0884 167.904 67.3764C168.181 67.6644 168.379 68.0164 168.496 68.4324C168.624 68.8377 168.688 69.2964 168.688 69.8084V75.0884H166.576V74.0324ZM166.528 71.3604L165.536 71.4084C165.067 71.4297 164.688 71.4777 164.4 71.5524C164.112 71.627 163.888 71.723 163.728 71.8404C163.579 71.947 163.477 72.075 163.424 72.2244C163.371 72.3737 163.344 72.539 163.344 72.7204C163.344 72.9977 163.44 73.2164 163.632 73.3764C163.824 73.5364 164.091 73.6164 164.432 73.6164C165.008 73.6164 165.477 73.483 165.84 73.2164C166.043 73.067 166.208 72.8804 166.336 72.6564C166.464 72.4217 166.528 72.1337 166.528 71.7924V71.3604ZM172.201 72.4324C172.275 72.923 172.473 73.243 172.793 73.3924C173.113 73.5417 173.497 73.6164 173.945 73.6164C174.478 73.6164 174.857 73.5524 175.081 73.4244C175.315 73.2857 175.433 73.067 175.433 72.7684C175.433 72.555 175.358 72.3684 175.209 72.2084C175.07 72.0484 174.798 71.9364 174.393 71.8724L173.241 71.6804C172.227 71.5204 171.47 71.2484 170.969 70.8644C170.478 70.4697 170.233 69.8777 170.233 69.0884C170.233 68.683 170.318 68.3204 170.489 68.0004C170.67 67.6804 170.921 67.4084 171.241 67.1844C171.561 66.9604 171.939 66.7897 172.377 66.6724C172.825 66.5444 173.315 66.4804 173.849 66.4804C174.51 66.4804 175.065 66.5497 175.513 66.6884C175.961 66.8164 176.323 66.9924 176.601 67.2164C176.889 67.4404 177.102 67.707 177.241 68.0164C177.39 68.3257 177.497 68.6564 177.561 69.0084L175.561 69.2644C175.465 68.8804 175.294 68.5977 175.049 68.4164C174.814 68.235 174.43 68.1444 173.897 68.1444C173.598 68.1444 173.347 68.171 173.145 68.2244C172.953 68.267 172.798 68.3257 172.681 68.4004C172.574 68.475 172.494 68.5604 172.441 68.6564C172.398 68.7524 172.377 68.843 172.377 68.9284C172.377 69.195 172.457 69.3924 172.617 69.5204C172.787 69.6377 173.113 69.739 173.593 69.8244L174.649 70.0004C175.235 70.0964 175.721 70.219 176.105 70.3684C176.489 70.5177 176.793 70.7044 177.017 70.9284C177.251 71.1417 177.411 71.3977 177.497 71.6964C177.593 71.995 177.641 72.3417 177.641 72.7364C177.641 73.5257 177.342 74.1604 176.745 74.6404C176.147 75.1097 175.225 75.3444 173.977 75.3444C173.475 75.3444 172.995 75.2964 172.537 75.2004C172.089 75.115 171.683 74.9604 171.321 74.7364C170.969 74.5124 170.675 74.2137 170.441 73.8404C170.217 73.467 170.089 72.9977 170.057 72.4324H172.201ZM183.115 75.3444C181.771 75.3444 180.731 74.9604 179.995 74.1924C179.259 73.4244 178.891 72.3257 178.891 70.8964C178.891 70.2137 178.987 69.6004 179.179 69.0564C179.381 68.5017 179.664 68.0377 180.027 67.6644C180.4 67.2804 180.848 66.987 181.371 66.7844C181.893 66.5817 182.475 66.4804 183.115 66.4804C183.765 66.4804 184.352 66.5817 184.875 66.7844C185.397 66.987 185.84 67.2804 186.203 67.6644C186.576 68.0377 186.859 68.5017 187.051 69.0564C187.243 69.6004 187.339 70.2137 187.339 70.8964C187.339 71.5897 187.237 72.2137 187.035 72.7684C186.843 73.3124 186.56 73.7764 186.187 74.1604C185.824 74.5444 185.381 74.8377 184.859 75.0404C184.336 75.243 183.755 75.3444 183.115 75.3444ZM183.115 73.5524C183.755 73.5524 184.229 73.323 184.539 72.8644C184.859 72.4057 185.019 71.7497 185.019 70.8964C185.019 70.043 184.859 69.3924 184.539 68.9444C184.229 68.4964 183.755 68.2724 183.115 68.2724C182.475 68.2724 181.995 68.4964 181.675 68.9444C181.365 69.3924 181.211 70.043 181.211 70.8964C181.211 71.7604 181.365 72.4217 181.675 72.8804C181.984 73.3284 182.464 73.5524 183.115 73.5524ZM189.038 66.7364H191.214V67.8884C191.545 67.3977 191.934 67.0404 192.382 66.8164C192.841 66.5924 193.315 66.4804 193.806 66.4804C194.755 66.4804 195.459 66.731 195.918 67.2324C196.377 67.723 196.606 68.5017 196.606 69.5684V75.0884H194.366V69.8724C194.366 69.2857 194.254 68.8857 194.03 68.6724C193.806 68.459 193.507 68.3524 193.134 68.3524C192.846 68.3524 192.595 68.395 192.382 68.4804C192.179 68.5657 191.987 68.6884 191.806 68.8484C191.657 68.9977 191.529 69.179 191.422 69.3924C191.326 69.595 191.278 69.819 191.278 70.0644V75.0884H189.038V66.7364ZM202.566 68.4804H201.254V66.7364H202.566V64.5124H204.806V66.7364H206.726V68.4804H204.806V72.3364C204.806 72.7737 204.896 73.0724 205.078 73.2324C205.259 73.3817 205.494 73.4564 205.782 73.4564C205.931 73.4564 206.08 73.451 206.23 73.4404C206.39 73.419 206.544 73.387 206.694 73.3444L207.014 74.9924C206.704 75.0884 206.4 75.1524 206.102 75.1844C205.814 75.227 205.536 75.2484 205.27 75.2484C204.352 75.2484 203.67 75.0297 203.222 74.5924C202.784 74.155 202.566 73.419 202.566 72.3844V68.4804ZM211.896 75.3444C210.552 75.3444 209.512 74.9604 208.776 74.1924C208.04 73.4244 207.672 72.3257 207.672 70.8964C207.672 70.2137 207.768 69.6004 207.96 69.0564C208.162 68.5017 208.445 68.0377 208.808 67.6644C209.181 67.2804 209.629 66.987 210.152 66.7844C210.674 66.5817 211.256 66.4804 211.896 66.4804C212.546 66.4804 213.133 66.5817 213.656 66.7844C214.178 66.987 214.621 67.2804 214.984 67.6644C215.357 68.0377 215.64 68.5017 215.832 69.0564C216.024 69.6004 216.12 70.2137 216.12 70.8964C216.12 71.5897 216.018 72.2137 215.816 72.7684C215.624 73.3124 215.341 73.7764 214.968 74.1604C214.605 74.5444 214.162 74.8377 213.64 75.0404C213.117 75.243 212.536 75.3444 211.896 75.3444ZM211.896 73.5524C212.536 73.5524 213.01 73.323 213.32 72.8644C213.64 72.4057 213.8 71.7497 213.8 70.8964C213.8 70.043 213.64 69.3924 213.32 68.9444C213.01 68.4964 212.536 68.2724 211.896 68.2724C211.256 68.2724 210.776 68.4964 210.456 68.9444C210.146 69.3924 209.992 70.043 209.992 70.8964C209.992 71.7604 210.146 72.4217 210.456 72.8804C210.765 73.3284 211.245 73.5524 211.896 73.5524ZM221.542 63.6644H223.942V68.2404L228.15 63.6644H230.758L226.966 67.9524L231.174 75.0884H228.518L225.302 69.5044L223.942 70.8964V75.0884H221.542V63.6644ZM232.163 66.7364H234.339V67.8884C234.67 67.3977 235.059 67.0404 235.507 66.8164C235.966 66.5924 236.44 66.4804 236.931 66.4804C237.88 66.4804 238.584 66.731 239.043 67.2324C239.502 67.723 239.731 68.5017 239.731 69.5684V75.0884H237.491V69.8724C237.491 69.2857 237.379 68.8857 237.155 68.6724C236.931 68.459 236.632 68.3524 236.259 68.3524C235.971 68.3524 235.72 68.395 235.507 68.4804C235.304 68.5657 235.112 68.6884 234.931 68.8484C234.782 68.9977 234.654 69.179 234.547 69.3924C234.451 69.595 234.403 69.819 234.403 70.0644V75.0884H232.163V66.7364ZM245.568 75.3444C244.224 75.3444 243.184 74.9604 242.448 74.1924C241.712 73.4244 241.344 72.3257 241.344 70.8964C241.344 70.2137 241.44 69.6004 241.632 69.0564C241.834 68.5017 242.117 68.0377 242.48 67.6644C242.853 67.2804 243.301 66.987 243.824 66.7844C244.346 66.5817 244.928 66.4804 245.568 66.4804C246.218 66.4804 246.805 66.5817 247.328 66.7844C247.85 66.987 248.293 67.2804 248.656 67.6644C249.029 68.0377 249.312 68.5017 249.504 69.0564C249.696 69.6004 249.792 70.2137 249.792 70.8964C249.792 71.5897 249.69 72.2137 249.488 72.7684C249.296 73.3124 249.013 73.7764 248.64 74.1604C248.277 74.5444 247.834 74.8377 247.312 75.0404C246.789 75.243 246.208 75.3444 245.568 75.3444ZM245.568 73.5524C246.208 73.5524 246.682 73.323 246.992 72.8644C247.312 72.4057 247.472 71.7497 247.472 70.8964C247.472 70.043 247.312 69.3924 246.992 68.9444C246.682 68.4964 246.208 68.2724 245.568 68.2724C244.928 68.2724 244.448 68.4964 244.128 68.9444C243.818 69.3924 243.664 70.043 243.664 70.8964C243.664 71.7604 243.818 72.4217 244.128 72.8804C244.437 73.3284 244.917 73.5524 245.568 73.5524ZM250.408 66.7364H252.84L254.008 72.2724L255.608 66.8004H257.56L259.08 72.2724L260.248 66.7364H262.584L260.152 75.0884H257.976L256.488 69.5844L254.984 75.0884H252.84L250.408 66.7364Z" fill="white"/>
<path d="M355.436 63.6644H359.484C360.38 63.6644 361.116 63.771 361.692 63.9844C362.278 64.187 362.737 64.459 363.068 64.8004C363.398 65.131 363.628 65.5044 363.756 65.9204C363.884 66.3257 363.948 66.7257 363.948 67.1204C363.948 67.8564 363.814 68.475 363.548 68.9764C363.281 69.4777 362.833 69.899 362.204 70.2404L364.524 75.0884H361.948L360.028 70.8004H357.788V75.0884H355.436V63.6644ZM359.644 68.8164C360.017 68.8164 360.326 68.779 360.572 68.7044C360.817 68.619 361.009 68.507 361.148 68.3684C361.297 68.219 361.398 68.043 361.452 67.8404C361.505 67.6377 361.532 67.4137 361.532 67.1684C361.532 66.9657 361.5 66.7737 361.436 66.5924C361.372 66.4004 361.26 66.235 361.1 66.0964C360.95 65.947 360.737 65.835 360.46 65.7604C360.193 65.675 359.852 65.6324 359.436 65.6324H357.788V68.8164H359.644ZM373.048 72.4804C372.899 73.419 372.52 74.1337 371.912 74.6244C371.315 75.1044 370.44 75.3444 369.288 75.3444C367.902 75.3444 366.856 74.9604 366.152 74.1924C365.459 73.4244 365.112 72.3364 365.112 70.9284C365.112 70.2244 365.214 69.6004 365.416 69.0564C365.619 68.5017 365.902 68.0324 366.264 67.6484C366.638 67.2644 367.08 66.9764 367.592 66.7844C368.104 66.5817 368.67 66.4804 369.288 66.4804C370.568 66.4804 371.528 66.8484 372.168 67.5844C372.819 68.3204 373.144 69.3124 373.144 70.5604V71.4564H367.352C367.374 72.1284 367.544 72.6564 367.864 73.0404C368.184 73.4137 368.664 73.6004 369.304 73.6004C370.19 73.6004 370.712 73.227 370.872 72.4804H373.048ZM370.984 69.9844C370.984 69.4084 370.84 68.9604 370.552 68.6404C370.275 68.3204 369.838 68.1604 369.24 68.1604C368.942 68.1604 368.68 68.2084 368.456 68.3044C368.232 68.4004 368.04 68.5337 367.88 68.7044C367.731 68.8644 367.614 69.0564 367.528 69.2804C367.443 69.4937 367.395 69.7284 367.384 69.9844H370.984ZM382.326 72.0644C382.241 73.067 381.894 73.867 381.286 74.4644C380.689 75.051 379.787 75.3444 378.582 75.3444C377.878 75.3444 377.27 75.2377 376.758 75.0244C376.246 74.811 375.825 74.5124 375.494 74.1284C375.174 73.7444 374.934 73.2804 374.774 72.7364C374.614 72.1924 374.534 71.5897 374.534 70.9284C374.534 70.267 374.625 69.6644 374.806 69.1204C374.998 68.5657 375.27 68.0964 375.622 67.7124C375.974 67.3177 376.406 67.0137 376.918 66.8004C377.43 66.587 378.017 66.4804 378.678 66.4804C379.243 66.4804 379.734 66.555 380.15 66.7044C380.577 66.843 380.934 67.0404 381.222 67.2964C381.51 67.5524 381.734 67.8617 381.894 68.2244C382.054 68.5764 382.161 68.9657 382.214 69.3924L379.958 69.6964C379.905 69.2697 379.782 68.9284 379.59 68.6724C379.398 68.4057 379.067 68.2724 378.598 68.2724C378.257 68.2724 377.974 68.347 377.75 68.4964C377.526 68.635 377.345 68.827 377.206 69.0724C377.078 69.3177 376.987 69.6004 376.934 69.9204C376.881 70.2297 376.854 70.555 376.854 70.8964C376.854 71.2484 376.881 71.5844 376.934 71.9044C376.987 72.2244 377.078 72.507 377.206 72.7524C377.334 72.9977 377.51 73.195 377.734 73.3444C377.958 73.483 378.241 73.5524 378.582 73.5524C379.03 73.5524 379.377 73.4244 379.622 73.1684C379.867 72.9124 380.011 72.5444 380.054 72.0644H382.326ZM383.931 63.6644H386.123V69.6484L389.339 66.7364H391.931L388.891 69.6164L392.171 75.0884H389.755L387.291 70.8644L386.123 71.9204V75.0884H383.931V63.6644ZM393.182 63.6644H395.422V75.0884H393.182V63.6644ZM405.064 72.4804C404.914 73.419 404.536 74.1337 403.928 74.6244C403.33 75.1044 402.456 75.3444 401.304 75.3444C399.917 75.3444 398.872 74.9604 398.168 74.1924C397.474 73.4244 397.128 72.3364 397.128 70.9284C397.128 70.2244 397.229 69.6004 397.432 69.0564C397.634 68.5017 397.917 68.0324 398.28 67.6484C398.653 67.2644 399.096 66.9764 399.608 66.7844C400.12 66.5817 400.685 66.4804 401.304 66.4804C402.584 66.4804 403.544 66.8484 404.184 67.5844C404.834 68.3204 405.16 69.3124 405.16 70.5604V71.4564H399.368C399.389 72.1284 399.56 72.6564 399.88 73.0404C400.2 73.4137 400.68 73.6004 401.32 73.6004C402.205 73.6004 402.728 73.227 402.888 72.4804H405.064ZM403 69.9844C403 69.4084 402.856 68.9604 402.568 68.6404C402.29 68.3204 401.853 68.1604 401.256 68.1604C400.957 68.1604 400.696 68.2084 400.472 68.3044C400.248 68.4004 400.056 68.5337 399.896 68.7044C399.746 68.8644 399.629 69.0564 399.544 69.2804C399.458 69.4937 399.41 69.7284 399.4 69.9844H403ZM408.454 72.4324C408.528 72.923 408.726 73.243 409.046 73.3924C409.366 73.5417 409.75 73.6164 410.198 73.6164C410.731 73.6164 411.11 73.5524 411.334 73.4244C411.568 73.2857 411.686 73.067 411.686 72.7684C411.686 72.555 411.611 72.3684 411.462 72.2084C411.323 72.0484 411.051 71.9364 410.646 71.8724L409.494 71.6804C408.48 71.5204 407.723 71.2484 407.222 70.8644C406.731 70.4697 406.486 69.8777 406.486 69.0884C406.486 68.683 406.571 68.3204 406.742 68.0004C406.923 67.6804 407.174 67.4084 407.494 67.1844C407.814 66.9604 408.192 66.7897 408.63 66.6724C409.078 66.5444 409.568 66.4804 410.102 66.4804C410.763 66.4804 411.318 66.5497 411.766 66.6884C412.214 66.8164 412.576 66.9924 412.854 67.2164C413.142 67.4404 413.355 67.707 413.494 68.0164C413.643 68.3257 413.75 68.6564 413.814 69.0084L411.814 69.2644C411.718 68.8804 411.547 68.5977 411.302 68.4164C411.067 68.235 410.683 68.1444 410.15 68.1444C409.851 68.1444 409.6 68.171 409.398 68.2244C409.206 68.267 409.051 68.3257 408.934 68.4004C408.827 68.475 408.747 68.5604 408.694 68.6564C408.651 68.7524 408.63 68.843 408.63 68.9284C408.63 69.195 408.71 69.3924 408.87 69.5204C409.04 69.6377 409.366 69.739 409.846 69.8244L410.902 70.0004C411.488 70.0964 411.974 70.219 412.358 70.3684C412.742 70.5177 413.046 70.7044 413.27 70.9284C413.504 71.1417 413.664 71.3977 413.75 71.6964C413.846 71.995 413.894 72.3417 413.894 72.7364C413.894 73.5257 413.595 74.1604 412.998 74.6404C412.4 75.1097 411.478 75.3444 410.23 75.3444C409.728 75.3444 409.248 75.2964 408.79 75.2004C408.342 75.115 407.936 74.9604 407.574 74.7364C407.222 74.5124 406.928 74.2137 406.694 73.8404C406.47 73.467 406.342 72.9977 406.31 72.4324H408.454ZM417.047 72.4324C417.122 72.923 417.319 73.243 417.639 73.3924C417.959 73.5417 418.343 73.6164 418.791 73.6164C419.325 73.6164 419.703 73.5524 419.927 73.4244C420.162 73.2857 420.279 73.067 420.279 72.7684C420.279 72.555 420.205 72.3684 420.055 72.2084C419.917 72.0484 419.645 71.9364 419.239 71.8724L418.087 71.6804C417.074 71.5204 416.317 71.2484 415.815 70.8644C415.325 70.4697 415.079 69.8777 415.079 69.0884C415.079 68.683 415.165 68.3204 415.335 68.0004C415.517 67.6804 415.767 67.4084 416.087 67.1844C416.407 66.9604 416.786 66.7897 417.223 66.6724C417.671 66.5444 418.162 66.4804 418.695 66.4804C419.357 66.4804 419.911 66.5497 420.359 66.6884C420.807 66.8164 421.17 66.9924 421.447 67.2164C421.735 67.4404 421.949 67.707 422.087 68.0164C422.237 68.3257 422.343 68.6564 422.407 69.0084L420.407 69.2644C420.311 68.8804 420.141 68.5977 419.895 68.4164C419.661 68.235 419.277 68.1444 418.743 68.1444C418.445 68.1444 418.194 68.171 417.991 68.2244C417.799 68.267 417.645 68.3257 417.527 68.4004C417.421 68.475 417.341 68.5604 417.287 68.6564C417.245 68.7524 417.223 68.843 417.223 68.9284C417.223 69.195 417.303 69.3924 417.463 69.5204C417.634 69.6377 417.959 69.739 418.439 69.8244L419.495 70.0004C420.082 70.0964 420.567 70.219 420.951 70.3684C421.335 70.5177 421.639 70.7044 421.863 70.9284C422.098 71.1417 422.258 71.3977 422.343 71.6964C422.439 71.995 422.487 72.3417 422.487 72.7364C422.487 73.5257 422.189 74.1604 421.591 74.6404C420.994 75.1097 420.071 75.3444 418.823 75.3444C418.322 75.3444 417.842 75.2964 417.383 75.2004C416.935 75.115 416.53 74.9604 416.167 74.7364C415.815 74.5124 415.522 74.2137 415.287 73.8404C415.063 73.467 414.935 72.9977 414.903 72.4324H417.047Z" fill="white"/>
<path opacity="0.2" d="M511.049 63.6663H513.321L517.609 75.0903H515.049L514.137 72.4503H510.137L509.225 75.0903H506.761L511.049 63.6663ZM513.513 70.4823L512.121 66.3863L510.745 70.4823H513.513ZM525.784 72.0663C525.699 73.069 525.352 73.869 524.744 74.4663C524.147 75.053 523.245 75.3463 522.04 75.3463C521.336 75.3463 520.728 75.2397 520.216 75.0263C519.704 74.813 519.283 74.5143 518.952 74.1303C518.632 73.7463 518.392 73.2823 518.232 72.7383C518.072 72.1943 517.992 71.5917 517.992 70.9303C517.992 70.269 518.083 69.6663 518.264 69.1223C518.456 68.5677 518.728 68.0983 519.08 67.7143C519.432 67.3197 519.864 67.0157 520.376 66.8023C520.888 66.589 521.475 66.4823 522.136 66.4823C522.701 66.4823 523.192 66.557 523.608 66.7063C524.035 66.845 524.392 67.0423 524.68 67.2983C524.968 67.5543 525.192 67.8637 525.352 68.2263C525.512 68.5783 525.619 68.9677 525.672 69.3943L523.416 69.6983C523.363 69.2717 523.24 68.9303 523.048 68.6743C522.856 68.4077 522.525 68.2743 522.056 68.2743C521.715 68.2743 521.432 68.349 521.208 68.4983C520.984 68.637 520.803 68.829 520.664 69.0743C520.536 69.3197 520.445 69.6023 520.392 69.9223C520.339 70.2317 520.312 70.557 520.312 70.8983C520.312 71.2503 520.339 71.5863 520.392 71.9063C520.445 72.2263 520.536 72.509 520.664 72.7543C520.792 72.9997 520.968 73.197 521.192 73.3463C521.416 73.485 521.699 73.5543 522.04 73.5543C522.488 73.5543 522.835 73.4263 523.08 73.1703C523.325 72.9143 523.469 72.5463 523.512 72.0663H525.784ZM527.901 68.4823H526.589V66.7383H527.901V64.5143H530.141V66.7383H532.061V68.4823H530.141V72.3383C530.141 72.7757 530.232 73.0743 530.413 73.2343C530.595 73.3837 530.829 73.4583 531.117 73.4583C531.267 73.4583 531.416 73.453 531.565 73.4423C531.725 73.421 531.88 73.389 532.029 73.3463L532.349 74.9943C532.04 75.0903 531.736 75.1543 531.437 75.1863C531.149 75.229 530.872 75.2503 530.605 75.2503C529.688 75.2503 529.005 75.0317 528.557 74.5943C528.12 74.157 527.901 73.421 527.901 72.3863V68.4823ZM533.372 66.7383H535.612V71.9543C535.612 72.5517 535.719 72.957 535.932 73.1703C536.145 73.373 536.439 73.4743 536.812 73.4743C537.1 73.4743 537.335 73.4317 537.516 73.3463C537.708 73.261 537.889 73.1383 538.06 72.9783C538.231 72.829 538.364 72.653 538.46 72.4503C538.567 72.237 538.62 72.0077 538.62 71.7623V66.7383H540.86V75.0903H538.684V73.9383C538.343 74.429 537.953 74.7863 537.516 75.0103C537.089 75.2343 536.631 75.3463 536.14 75.3463C535.191 75.3463 534.492 75.101 534.044 74.6103C533.596 74.109 533.372 73.325 533.372 72.2583V66.7383ZM547.803 74.0343C547.472 74.4077 547.099 74.7117 546.683 74.9463C546.277 75.181 545.749 75.2983 545.099 75.2983C544.725 75.2983 544.368 75.2503 544.027 75.1543C543.696 75.0583 543.403 74.909 543.147 74.7063C542.901 74.5037 542.704 74.2477 542.555 73.9383C542.405 73.6183 542.331 73.2397 542.331 72.8023C542.331 72.2263 542.459 71.757 542.715 71.3943C542.971 71.0317 543.307 70.749 543.723 70.5463C544.139 70.3437 544.603 70.1997 545.115 70.1143C545.637 70.029 546.165 69.9757 546.699 69.9543L547.771 69.9063V69.4903C547.771 68.9783 547.627 68.6263 547.339 68.4343C547.061 68.2423 546.731 68.1463 546.347 68.1463C545.461 68.1463 544.955 68.4823 544.827 69.1543L542.779 68.9623C542.928 68.0877 543.312 67.4583 543.931 67.0743C544.549 66.6797 545.381 66.4823 546.427 66.4823C547.067 66.4823 547.611 66.5623 548.059 66.7223C548.507 66.8717 548.864 67.0903 549.131 67.3783C549.408 67.6663 549.605 68.0183 549.723 68.4343C549.851 68.8397 549.915 69.2983 549.915 69.8103V75.0903H547.803V74.0343ZM547.755 71.3623L546.763 71.4103C546.293 71.4317 545.915 71.4797 545.627 71.5543C545.339 71.629 545.115 71.725 544.955 71.8423C544.805 71.949 544.704 72.077 544.651 72.2263C544.597 72.3757 544.571 72.541 544.571 72.7223C544.571 72.9997 544.667 73.2183 544.859 73.3783C545.051 73.5383 545.317 73.6183 545.659 73.6183C546.235 73.6183 546.704 73.485 547.067 73.2183C547.269 73.069 547.435 72.8823 547.563 72.6583C547.691 72.4237 547.755 72.1357 547.755 71.7943V71.3623ZM551.827 63.6663H554.067V75.0903H551.827V63.6663ZM559.784 63.6663H562.184V68.2423L566.392 63.6663H569L565.208 67.9543L569.416 75.0903H566.76L563.544 69.5063L562.184 70.8983V75.0903H559.784V63.6663ZM570.405 66.7383H572.581V67.8903C572.912 67.3997 573.301 67.0423 573.749 66.8183C574.208 66.5943 574.682 66.4823 575.173 66.4823C576.122 66.4823 576.826 66.733 577.285 67.2343C577.744 67.725 577.973 68.5037 577.973 69.5703V75.0903H575.733V69.8743C575.733 69.2877 575.621 68.8877 575.397 68.6743C575.173 68.461 574.874 68.3543 574.501 68.3543C574.213 68.3543 573.962 68.397 573.749 68.4823C573.546 68.5677 573.354 68.6903 573.173 68.8503C573.024 68.9997 572.896 69.181 572.789 69.3943C572.693 69.597 572.645 69.821 572.645 70.0663V75.0903H570.405V66.7383ZM583.81 75.3463C582.466 75.3463 581.426 74.9623 580.69 74.1943C579.954 73.4263 579.586 72.3277 579.586 70.8983C579.586 70.2157 579.682 69.6023 579.874 69.0583C580.077 68.5037 580.359 68.0397 580.722 67.6663C581.095 67.2823 581.543 66.989 582.066 66.7863C582.589 66.5837 583.17 66.4823 583.81 66.4823C584.461 66.4823 585.047 66.5837 585.57 66.7863C586.093 66.989 586.535 67.2823 586.898 67.6663C587.271 68.0397 587.554 68.5037 587.746 69.0583C587.938 69.6023 588.034 70.2157 588.034 70.8983C588.034 71.5917 587.933 72.2157 587.73 72.7703C587.538 73.3143 587.255 73.7783 586.882 74.1623C586.519 74.5463 586.077 74.8397 585.554 75.0423C585.031 75.245 584.45 75.3463 583.81 75.3463ZM583.81 73.5543C584.45 73.5543 584.925 73.325 585.234 72.8663C585.554 72.4077 585.714 71.7517 585.714 70.8983C585.714 70.045 585.554 69.3943 585.234 68.9463C584.925 68.4983 584.45 68.2743 583.81 68.2743C583.17 68.2743 582.69 68.4983 582.37 68.9463C582.061 69.3943 581.906 70.045 581.906 70.8983C581.906 71.7623 582.061 72.4237 582.37 72.8823C582.679 73.3303 583.159 73.5543 583.81 73.5543ZM588.65 66.7383H591.082L592.25 72.2743L593.85 66.8023H595.802L597.322 72.2743L598.49 66.7383H600.826L598.394 75.0903H596.218L594.73 69.5863L593.226 75.0903H591.082L588.65 66.7383ZM601.937 63.6663H604.177V75.0903H601.937V63.6663ZM613.819 72.4823C613.669 73.421 613.291 74.1357 612.683 74.6263C612.085 75.1063 611.211 75.3463 610.059 75.3463C608.672 75.3463 607.627 74.9623 606.923 74.1943C606.229 73.4263 605.883 72.3383 605.883 70.9303C605.883 70.2263 605.984 69.6023 606.187 69.0583C606.389 68.5037 606.672 68.0343 607.035 67.6503C607.408 67.2663 607.851 66.9783 608.363 66.7863C608.875 66.5837 609.44 66.4823 610.059 66.4823C611.339 66.4823 612.299 66.8503 612.939 67.5863C613.589 68.3223 613.915 69.3143 613.915 70.5623V71.4583H608.123C608.144 72.1303 608.315 72.6583 608.635 73.0423C608.955 73.4157 609.435 73.6023 610.075 73.6023C610.96 73.6023 611.483 73.229 611.643 72.4823H613.819ZM611.755 69.9863C611.755 69.4103 611.611 68.9623 611.323 68.6423C611.045 68.3223 610.608 68.1623 610.011 68.1623C609.712 68.1623 609.451 68.2103 609.227 68.3063C609.003 68.4023 608.811 68.5357 608.651 68.7063C608.501 68.8663 608.384 69.0583 608.299 69.2823C608.213 69.4957 608.165 69.7303 608.155 69.9863H611.755ZM621.385 73.9863C620.745 74.893 619.881 75.3463 618.793 75.3463C617.619 75.3463 616.745 74.9517 616.169 74.1623C615.593 73.373 615.305 72.2797 615.305 70.8823C615.305 70.2317 615.385 69.6397 615.545 69.1063C615.715 68.5623 615.955 68.0983 616.265 67.7143C616.574 67.3197 616.953 67.0157 617.401 66.8023C617.849 66.589 618.355 66.4823 618.921 66.4823C619.337 66.4823 619.747 66.557 620.153 66.7063C620.569 66.8557 620.958 67.1437 621.321 67.5703V63.6663H623.561V75.0903H621.385V73.9863ZM621.337 70.8183C621.337 70.285 621.289 69.8583 621.193 69.5383C621.107 69.2183 620.963 68.957 620.761 68.7543C620.569 68.5623 620.355 68.4397 620.121 68.3863C619.897 68.3223 619.673 68.2903 619.449 68.2903C619.203 68.2903 618.969 68.3383 618.745 68.4343C618.531 68.5303 618.339 68.6797 618.169 68.8823C618.009 69.085 617.881 69.3517 617.785 69.6823C617.689 70.013 617.641 70.4077 617.641 70.8663C617.641 71.3677 617.683 71.789 617.769 72.1303C617.865 72.461 617.993 72.733 618.153 72.9463C618.313 73.149 618.499 73.2983 618.713 73.3943C618.926 73.4797 619.155 73.5223 619.401 73.5223C619.934 73.5223 620.371 73.3677 620.713 73.0583C620.926 72.845 621.081 72.589 621.177 72.2903C621.283 71.981 621.337 71.5863 621.337 71.1063V70.8183ZM627.882 75.6183C627.924 75.8317 627.983 76.0023 628.058 76.1303C628.143 76.2583 628.25 76.3597 628.378 76.4343C628.516 76.509 628.676 76.557 628.858 76.5783C629.05 76.6103 629.279 76.6263 629.546 76.6263C629.962 76.6263 630.287 76.5463 630.522 76.3863C630.756 76.237 630.927 76.0343 631.034 75.7783C631.151 75.5223 631.22 75.229 631.242 74.8983C631.274 74.5677 631.29 74.2263 631.29 73.8743V73.6183C631.012 74.0237 630.655 74.333 630.218 74.5463C629.791 74.749 629.306 74.8503 628.762 74.8503C627.588 74.8503 626.708 74.4717 626.122 73.7143C625.546 72.957 625.258 71.9383 625.258 70.6583C625.258 70.0503 625.338 69.4903 625.498 68.9783C625.668 68.4663 625.908 68.029 626.218 67.6663C626.527 67.293 626.906 67.005 627.354 66.8023C627.812 66.589 628.324 66.4823 628.89 66.4823C629.338 66.4823 629.77 66.5677 630.186 66.7383C630.612 66.909 631.002 67.2237 631.354 67.6823V66.7383H633.53V73.9223C633.53 74.6263 633.455 75.2503 633.306 75.7943C633.167 76.349 632.938 76.8183 632.618 77.2023C632.308 77.5863 631.898 77.8743 631.386 78.0663C630.884 78.269 630.271 78.3703 629.546 78.3703C628.874 78.3703 628.298 78.3117 627.818 78.1943C627.348 78.0877 626.959 77.917 626.65 77.6823C626.34 77.4583 626.1 77.1703 625.93 76.8183C625.77 76.477 625.663 76.077 625.61 75.6183H627.882ZM631.306 70.6263C631.306 70.125 631.247 69.7197 631.13 69.4103C631.023 69.101 630.879 68.8663 630.698 68.7063C630.516 68.5357 630.314 68.4237 630.09 68.3703C629.866 68.317 629.642 68.2903 629.418 68.2903C629.172 68.2903 628.938 68.333 628.714 68.4183C628.5 68.5037 628.308 68.6423 628.138 68.8343C627.978 69.0263 627.85 69.2717 627.754 69.5703C627.658 69.869 627.61 70.2263 627.61 70.6423C627.61 71.5277 627.775 72.157 628.106 72.5303C628.447 72.893 628.868 73.0743 629.37 73.0743C629.647 73.0743 629.903 73.037 630.138 72.9623C630.383 72.877 630.591 72.749 630.762 72.5783C630.932 72.397 631.066 72.1677 631.162 71.8903C631.258 71.6023 631.306 71.2557 631.306 70.8503V70.6263ZM643.162 72.4823C643.013 73.421 642.634 74.1357 642.026 74.6263C641.429 75.1063 640.554 75.3463 639.402 75.3463C638.016 75.3463 636.97 74.9623 636.266 74.1943C635.573 73.4263 635.226 72.3383 635.226 70.9303C635.226 70.2263 635.328 69.6023 635.53 69.0583C635.733 68.5037 636.016 68.0343 636.378 67.6503C636.752 67.2663 637.194 66.9783 637.706 66.7863C638.218 66.5837 638.784 66.4823 639.402 66.4823C640.682 66.4823 641.642 66.8503 642.282 67.5863C642.933 68.3223 643.258 69.3143 643.258 70.5623V71.4583H637.466C637.488 72.1303 637.658 72.6583 637.978 73.0423C638.298 73.4157 638.778 73.6023 639.418 73.6023C640.304 73.6023 640.826 73.229 640.986 72.4823H643.162ZM641.098 69.9863C641.098 69.4103 640.954 68.9623 640.666 68.6423C640.389 68.3223 639.952 68.1623 639.354 68.1623C639.056 68.1623 638.794 68.2103 638.57 68.3063C638.346 68.4023 638.154 68.5357 637.994 68.7063C637.845 68.8663 637.728 69.0583 637.642 69.2823C637.557 69.4957 637.509 69.7303 637.498 69.9863H641.098Z" fill="#464343"/>
<path opacity="0.2" d="M735.26 63.6644H737.948L739.788 71.6004L741.66 63.7284H744.188L746.14 71.6004L747.868 63.6644H750.428L747.324 75.0884H745.004L742.876 66.6404L740.812 75.0884H738.556L735.26 63.6644ZM751.592 66.7364H753.832V75.0884H751.592V66.7364ZM751.56 63.6644H753.864V65.6804H751.56V63.6644ZM755.842 63.6644H758.082V75.0884H755.842V63.6644ZM760.092 63.6644H762.332V75.0884H760.092V63.6644ZM764.87 68.4804H763.558V66.7364H764.87V66.4644C764.87 65.9524 764.945 65.5097 765.094 65.1364C765.243 64.763 765.446 64.459 765.702 64.2244C765.969 63.9897 766.278 63.819 766.63 63.7124C766.982 63.595 767.366 63.5364 767.782 63.5364C768.049 63.5364 768.326 63.5524 768.614 63.5844C768.913 63.6164 769.217 63.6804 769.526 63.7764L769.222 65.4084C768.881 65.323 768.555 65.2804 768.246 65.2804C767.958 65.2804 767.697 65.3657 767.462 65.5364C767.227 65.6964 767.11 65.9897 767.11 66.4164V66.7364H769.046V68.4804H767.11V75.0884H764.87V68.4804ZM770.308 66.7364H772.548V71.9524C772.548 72.5497 772.655 72.955 772.868 73.1684C773.082 73.371 773.375 73.4724 773.748 73.4724C774.036 73.4724 774.271 73.4297 774.452 73.3444C774.644 73.259 774.826 73.1364 774.996 72.9764C775.167 72.827 775.3 72.651 775.396 72.4484C775.503 72.235 775.556 72.0057 775.556 71.7604V66.7364H777.796V75.0884H775.62V73.9364C775.279 74.427 774.89 74.7844 774.452 75.0084C774.026 75.2324 773.567 75.3444 773.076 75.3444C772.127 75.3444 771.428 75.099 770.98 74.6084C770.532 74.107 770.308 73.323 770.308 72.2564V66.7364ZM779.795 63.6644H782.035V75.0884H779.795V63.6644Z" fill="#464343"/>
<path opacity="0.2" d="M35.4616 63.5233H37.8456V70.3233C37.8456 71.2939 38.0162 72.0139 38.3576 72.4833C38.6989 72.9526 39.2696 73.1873 40.0696 73.1873C40.8696 73.1873 41.4349 72.9526 41.7656 72.4833C42.1069 72.0139 42.2776 71.2939 42.2776 70.3233V63.5233H44.6616V70.3233C44.6616 71.1873 44.5549 71.9286 44.3416 72.5473C44.1282 73.1659 43.8242 73.6779 43.4296 74.0833C43.0349 74.4779 42.5496 74.7659 41.9736 74.9473C41.4082 75.1393 40.7682 75.2353 40.0536 75.2353C39.3282 75.2353 38.6776 75.1393 38.1016 74.9473C37.5362 74.7553 37.0562 74.4619 36.6616 74.0673C36.2669 73.6619 35.9682 73.1446 35.7656 72.5153C35.5629 71.8859 35.4616 71.1393 35.4616 70.2753V63.5233ZM46.6033 66.5953H48.7793V67.7473C49.11 67.2566 49.4993 66.8993 49.9473 66.6753C50.406 66.4513 50.8807 66.3393 51.3713 66.3393C52.3207 66.3393 53.0247 66.5899 53.4833 67.0913C53.942 67.5819 54.1713 68.3606 54.1713 69.4273V74.9473H51.9313V69.7313C51.9313 69.1446 51.8193 68.7446 51.5953 68.5313C51.3713 68.3179 51.0727 68.2113 50.6993 68.2113C50.4113 68.2113 50.1607 68.2539 49.9473 68.3393C49.7447 68.4246 49.5527 68.5473 49.3713 68.7073C49.222 68.8566 49.094 69.0379 48.9873 69.2513C48.8913 69.4539 48.8433 69.6779 48.8433 69.9233V74.9473H46.6033V66.5953ZM56.0721 63.5233H58.2641V69.5073L61.4801 66.5953H64.0721L61.0321 69.4753L64.3121 74.9473H61.8961L59.4321 70.7233L58.2641 71.7793V74.9473H56.0721V63.5233ZM65.3065 66.5953H67.4825V67.7473C67.8131 67.2566 68.2025 66.8993 68.6505 66.6753C69.1091 66.4513 69.5838 66.3393 70.0745 66.3393C71.0238 66.3393 71.7278 66.5899 72.1865 67.0913C72.6451 67.5819 72.8745 68.3606 72.8745 69.4273V74.9473H70.6345V69.7313C70.6345 69.1446 70.5225 68.7446 70.2985 68.5313C70.0745 68.3179 69.7758 68.2113 69.4025 68.2113C69.1145 68.2113 68.8638 68.2539 68.6505 68.3393C68.4478 68.4246 68.2558 68.5473 68.0745 68.7073C67.9251 68.8566 67.7971 69.0379 67.6905 69.2513C67.5945 69.4539 67.5465 69.6779 67.5465 69.9233V74.9473H65.3065V66.5953ZM78.7112 75.2033C77.3672 75.2033 76.3272 74.8193 75.5912 74.0513C74.8552 73.2833 74.4872 72.1846 74.4872 70.7553C74.4872 70.0726 74.5832 69.4593 74.7752 68.9153C74.9779 68.3606 75.2605 67.8966 75.6232 67.5233C75.9965 67.1393 76.4445 66.8459 76.9672 66.6433C77.4899 66.4406 78.0712 66.3393 78.7112 66.3393C79.3619 66.3393 79.9485 66.4406 80.4712 66.6433C80.9939 66.8459 81.4365 67.1393 81.7992 67.5233C82.1725 67.8966 82.4552 68.3606 82.6472 68.9153C82.8392 69.4593 82.9352 70.0726 82.9352 70.7553C82.9352 71.4486 82.8339 72.0726 82.6312 72.6273C82.4392 73.1713 82.1565 73.6353 81.7832 74.0193C81.4205 74.4033 80.9779 74.6966 80.4552 74.8993C79.9325 75.1019 79.3512 75.2033 78.7112 75.2033ZM78.7112 73.4113C79.3512 73.4113 79.8259 73.1819 80.1352 72.7233C80.4552 72.2646 80.6152 71.6086 80.6152 70.7553C80.6152 69.9019 80.4552 69.2513 80.1352 68.8033C79.8259 68.3553 79.3512 68.1313 78.7112 68.1313C78.0712 68.1313 77.5912 68.3553 77.2712 68.8033C76.9619 69.2513 76.8072 69.9019 76.8072 70.7553C76.8072 71.6193 76.9619 72.2806 77.2712 72.7393C77.5805 73.1873 78.0605 73.4113 78.7112 73.4113ZM83.5511 66.5953H85.9831L87.1511 72.1313L88.7511 66.6593H90.7031L92.2231 72.1313L93.3911 66.5953H95.7271L93.2951 74.9473H91.1191L89.6311 69.4433L88.1271 74.9473H85.9831L83.5511 66.5953ZM96.8221 66.5953H98.9981V67.7473C99.3287 67.2566 99.7181 66.8993 100.166 66.6753C100.625 66.4513 101.099 66.3393 101.59 66.3393C102.539 66.3393 103.243 66.5899 103.702 67.0913C104.161 67.5819 104.39 68.3606 104.39 69.4273V74.9473H102.15V69.7313C102.15 69.1446 102.038 68.7446 101.814 68.5313C101.59 68.3179 101.291 68.2113 100.918 68.2113C100.63 68.2113 100.379 68.2539 100.166 68.3393C99.9634 68.4246 99.7714 68.5473 99.5901 68.7073C99.4407 68.8566 99.3127 69.0379 99.2061 69.2513C99.1101 69.4539 99.0621 69.6779 99.0621 69.9233V74.9473H96.8221V66.5953Z" fill="#464343"/>
<defs>
<filter id="filter0_d_253_4164" x="0.457031" y="0.221191" width="876.153" height="138.735" filterUnits="userSpaceOnUse" color-interpolation-filters="sRGB">
<feFlood flood-opacity="0" result="BackgroundImageFix"/>
<feColorMatrix in="SourceAlpha" type="matrix" values="0 0 0 0 0 0 0 0 0 0 0 0 0 0 0 0 0 0 127 0" result="hardAlpha"/>
<feOffset/>
<feGaussianBlur stdDeviation="7"/>
<feComposite in2="hardAlpha" operator="out"/>
<feColorMatrix type="matrix" values="0 0 0 0 0 0 0 0 0 0 0 0 0 0 0 0 0 0 0.25 0"/>
<feBlend mode="normal" in2="BackgroundImageFix" result="effect1_dropShadow_253_4164"/>
<feBlend mode="normal" in="SourceGraphic" in2="effect1_dropShadow_253_4164" result="shape"/>
</filter>
</defs>
</svg>
