<svg width="21" height="19" viewBox="0 0 21 19" fill="none" xmlns="http://www.w3.org/2000/svg">
<path d="M19.457 0.607422C19.7222 0.607422 19.9766 0.712779 20.1641 0.900315C20.3517 1.08785 20.457 1.34221 20.457 1.60742V17.6074C20.457 17.8726 20.3517 18.127 20.1641 18.3145C19.9766 18.5021 19.7222 18.6074 19.457 18.6074H1.45703C1.19181 18.6074 0.937461 18.5021 0.749924 18.3145C0.562388 18.127 0.457031 17.8726 0.457031 17.6074V1.60742C0.457031 1.34221 0.562388 1.08785 0.749924 0.900315C0.937461 0.712779 1.19181 0.607422 1.45703 0.607422H19.457ZM9.45703 2.60742H2.45703V16.6074H9.45703V2.60742ZM18.457 2.60742H11.457V16.6074H18.457V2.60742Z" fill="white"/>
</svg>
